G04 #@! TF.GenerationSoftware,KiCad,Pcbnew,(6.0.9)*
G04 #@! TF.CreationDate,2024-05-06T14:48:15+09:00*
G04 #@! TF.ProjectId,CommunicationBoard,436f6d6d-756e-4696-9361-74696f6e426f,rev?*
G04 #@! TF.SameCoordinates,PX8a48640PY5f5e100*
G04 #@! TF.FileFunction,Soldermask,Top*
G04 #@! TF.FilePolarity,Negative*
%FSLAX46Y46*%
G04 Gerber Fmt 4.6, Leading zero omitted, Abs format (unit mm)*
G04 Created by KiCad (PCBNEW (6.0.9)) date 2024-05-06 14:48:15*
%MOMM*%
%LPD*%
G01*
G04 APERTURE LIST*
G04 Aperture macros list*
%AMRoundRect*
0 Rectangle with rounded corners*
0 $1 Rounding radius*
0 $2 $3 $4 $5 $6 $7 $8 $9 X,Y pos of 4 corners*
0 Add a 4 corners polygon primitive as box body*
4,1,4,$2,$3,$4,$5,$6,$7,$8,$9,$2,$3,0*
0 Add four circle primitives for the rounded corners*
1,1,$1+$1,$2,$3*
1,1,$1+$1,$4,$5*
1,1,$1+$1,$6,$7*
1,1,$1+$1,$8,$9*
0 Add four rect primitives between the rounded corners*
20,1,$1+$1,$2,$3,$4,$5,0*
20,1,$1+$1,$4,$5,$6,$7,0*
20,1,$1+$1,$6,$7,$8,$9,0*
20,1,$1+$1,$8,$9,$2,$3,0*%
%AMHorizOval*
0 Thick line with rounded ends*
0 $1 width*
0 $2 $3 position (X,Y) of the first rounded end (center of the circle)*
0 $4 $5 position (X,Y) of the second rounded end (center of the circle)*
0 Add line between two ends*
20,1,$1,$2,$3,$4,$5,0*
0 Add two circle primitives to create the rounded ends*
1,1,$1,$2,$3*
1,1,$1,$4,$5*%
%AMRotRect*
0 Rectangle, with rotation*
0 The origin of the aperture is its center*
0 $1 length*
0 $2 width*
0 $3 Rotation angle, in degrees counterclockwise*
0 Add horizontal line*
21,1,$1,$2,0,0,$3*%
%AMFreePoly0*
4,1,22,0.500000,-0.750000,0.000000,-0.750000,0.000000,-0.745033,-0.079941,-0.743568,-0.215256,-0.701293,-0.333266,-0.622738,-0.424486,-0.514219,-0.481581,-0.384460,-0.499164,-0.250000,-0.500000,-0.250000,-0.500000,0.250000,-0.499164,0.250000,-0.499963,0.256109,-0.478152,0.396186,-0.417904,0.524511,-0.324060,0.630769,-0.204165,0.706417,-0.067858,0.745374,0.000000,0.744959,0.000000,0.750000,
0.500000,0.750000,0.500000,-0.750000,0.500000,-0.750000,$1*%
%AMFreePoly1*
4,1,20,0.000000,0.744959,0.073905,0.744508,0.209726,0.703889,0.328688,0.626782,0.421226,0.519385,0.479903,0.390333,0.500000,0.250000,0.500000,-0.250000,0.499851,-0.262216,0.476331,-0.402017,0.414519,-0.529596,0.319384,-0.634700,0.198574,-0.708877,0.061801,-0.746166,0.000000,-0.745033,0.000000,-0.750000,-0.500000,-0.750000,-0.500000,0.750000,0.000000,0.750000,0.000000,0.744959,
0.000000,0.744959,$1*%
G04 Aperture macros list end*
%ADD10FreePoly0,0.000000*%
%ADD11FreePoly1,0.000000*%
%ADD12C,2.200000*%
%ADD13RoundRect,0.200000X0.200000X0.275000X-0.200000X0.275000X-0.200000X-0.275000X0.200000X-0.275000X0*%
%ADD14R,1.700000X1.700000*%
%ADD15O,1.700000X1.700000*%
%ADD16RoundRect,0.100000X0.247487X-0.318198X0.318198X-0.247487X-0.247487X0.318198X-0.318198X0.247487X0*%
%ADD17RoundRect,0.100000X-0.212132X-0.141421X-0.141421X-0.212132X0.212132X0.141421X0.141421X0.212132X0*%
%ADD18R,0.650000X1.050000*%
%ADD19RoundRect,0.250000X0.250000X0.475000X-0.250000X0.475000X-0.250000X-0.475000X0.250000X-0.475000X0*%
%ADD20RoundRect,0.200000X-0.200000X-0.275000X0.200000X-0.275000X0.200000X0.275000X-0.200000X0.275000X0*%
%ADD21RoundRect,0.225000X0.225000X0.250000X-0.225000X0.250000X-0.225000X-0.250000X0.225000X-0.250000X0*%
%ADD22RoundRect,0.150000X0.512500X0.150000X-0.512500X0.150000X-0.512500X-0.150000X0.512500X-0.150000X0*%
%ADD23RoundRect,0.225000X-0.225000X-0.250000X0.225000X-0.250000X0.225000X0.250000X-0.225000X0.250000X0*%
%ADD24RoundRect,0.250000X-0.250000X-0.475000X0.250000X-0.475000X0.250000X0.475000X-0.250000X0.475000X0*%
%ADD25RoundRect,0.218750X-0.256250X0.218750X-0.256250X-0.218750X0.256250X-0.218750X0.256250X0.218750X0*%
%ADD26R,0.740000X2.400000*%
%ADD27C,1.000000*%
%ADD28RoundRect,0.225000X-0.017678X0.335876X-0.335876X0.017678X0.017678X-0.335876X0.335876X-0.017678X0*%
%ADD29RotRect,0.500000X0.375000X225.000000*%
%ADD30RotRect,0.650000X0.300000X225.000000*%
%ADD31R,2.000000X1.100000*%
%ADD32R,0.800000X1.100000*%
%ADD33RoundRect,0.112100X-0.339500X-0.339500X0.339500X-0.339500X0.339500X0.339500X-0.339500X0.339500X0*%
%ADD34RoundRect,0.106100X-0.320500X-0.145500X0.320500X-0.145500X0.320500X0.145500X-0.320500X0.145500X0*%
%ADD35RoundRect,0.106100X0.145500X-0.320500X0.145500X0.320500X-0.145500X0.320500X-0.145500X-0.320500X0*%
%ADD36RoundRect,0.112100X0.339500X0.339500X-0.339500X0.339500X-0.339500X-0.339500X0.339500X-0.339500X0*%
%ADD37RoundRect,0.106100X-0.145500X0.320500X-0.145500X-0.320500X0.145500X-0.320500X0.145500X0.320500X0*%
%ADD38RoundRect,0.106100X0.320500X0.145500X-0.320500X0.145500X-0.320500X-0.145500X0.320500X-0.145500X0*%
%ADD39RoundRect,0.113600X-0.413000X-0.388000X0.413000X-0.388000X0.413000X0.388000X-0.413000X0.388000X0*%
%ADD40RoundRect,0.225000X0.250000X-0.225000X0.250000X0.225000X-0.250000X0.225000X-0.250000X-0.225000X0*%
%ADD41FreePoly0,90.000000*%
%ADD42FreePoly1,90.000000*%
%ADD43R,0.510000X1.100000*%
%ADD44C,0.650000*%
%ADD45R,0.600000X1.160000*%
%ADD46R,0.300000X1.160000*%
%ADD47O,1.000000X1.800000*%
%ADD48O,1.000000X2.100000*%
%ADD49HorizOval,3.100000X0.424264X0.424264X-0.424264X-0.424264X0*%
%ADD50O,0.900000X1.400000*%
%ADD51O,1.400000X0.900000*%
%ADD52O,1.200000X0.900000*%
G04 APERTURE END LIST*
D10*
X-17922000Y21336000D03*
D11*
X-16622000Y21336000D03*
D12*
X-27500000Y27500000D03*
D13*
X-2985000Y20828000D03*
X-4635000Y20828000D03*
D14*
X-27940000Y-7620000D03*
D15*
X-27940000Y-10160000D03*
X-27940000Y-12700000D03*
X-27940000Y-15240000D03*
X-27940000Y-17780000D03*
X-27940000Y-20320000D03*
X-27940000Y-22860000D03*
D16*
X8698802Y19524041D03*
X8415959Y19241198D03*
D17*
X8027051Y18781579D03*
X8309893Y18498736D03*
X8592736Y18215893D03*
X8875579Y17933051D03*
D16*
X9335198Y18321959D03*
X9618041Y18604802D03*
D17*
X10006949Y19064421D03*
X9724107Y19347264D03*
X9441264Y19630107D03*
X9158421Y19912949D03*
D18*
X11879000Y9609000D03*
X11879000Y13759000D03*
X14029000Y9609000D03*
X14029000Y13734000D03*
D19*
X-12700000Y25400000D03*
X-14600000Y25400000D03*
D20*
X16075000Y16764000D03*
X17725000Y16764000D03*
D21*
X-482000Y19050000D03*
X-2032000Y19050000D03*
D13*
X-16447000Y23876000D03*
X-18097000Y23876000D03*
D18*
X-11235000Y22903000D03*
X-11235000Y18753000D03*
X-9085000Y18753000D03*
X-9085000Y22878000D03*
D21*
X13983000Y18288000D03*
X12433000Y18288000D03*
D22*
X-894500Y16068000D03*
X-894500Y17018000D03*
X-894500Y17968000D03*
X-3169500Y17968000D03*
X-3169500Y16068000D03*
D18*
X-12641000Y22903000D03*
X-12641000Y18753000D03*
X-14791000Y22903000D03*
X-14791000Y18778000D03*
D21*
X13983000Y16764000D03*
X12433000Y16764000D03*
D23*
X5829000Y10160000D03*
X7379000Y10160000D03*
D18*
X15689000Y13759000D03*
X15689000Y9609000D03*
X17839000Y9609000D03*
X17839000Y13734000D03*
D24*
X-11110000Y25400000D03*
X-9210000Y25400000D03*
D20*
X2731000Y10160000D03*
X4381000Y10160000D03*
D25*
X-7366000Y1549500D03*
X-7366000Y-25500D03*
D26*
X5080000Y23958000D03*
X5080000Y27858000D03*
X6350000Y23958000D03*
X6350000Y27858000D03*
X7620000Y23958000D03*
X7620000Y27858000D03*
X8890000Y23958000D03*
X8890000Y27858000D03*
X10160000Y23958000D03*
X10160000Y27858000D03*
D27*
X11557000Y25075000D03*
D28*
X7573016Y21797016D03*
X6477000Y20701000D03*
D29*
X4029111Y20286971D03*
D30*
X3702074Y20720074D03*
D29*
X3268971Y21047111D03*
X2066889Y19845029D03*
D30*
X2393926Y19411926D03*
D29*
X2827029Y19084889D03*
D21*
X-8877000Y1524000D03*
X-10427000Y1524000D03*
D31*
X9906000Y11938000D03*
D32*
X8006000Y11938000D03*
D13*
X-6033000Y20828000D03*
X-7683000Y20828000D03*
D12*
X-27500000Y-27500000D03*
D13*
X10477000Y13716000D03*
X8827000Y13716000D03*
D20*
X9843000Y21844000D03*
X11493000Y21844000D03*
X-10477000Y0D03*
X-8827000Y0D03*
D33*
X12800000Y28500000D03*
D34*
X12775000Y27675000D03*
X12775000Y27025000D03*
X12775000Y26375000D03*
X12775000Y25725000D03*
X12775000Y25075000D03*
X12775000Y24425000D03*
X12775000Y23775000D03*
X12775000Y23125000D03*
X12775000Y22475000D03*
X12775000Y21825000D03*
X12775000Y21175000D03*
X12775000Y20525000D03*
D33*
X12800000Y19700000D03*
D35*
X13650000Y19675000D03*
X14300000Y19675000D03*
X14950000Y19675000D03*
X15600000Y19675000D03*
X16250000Y19675000D03*
X16900000Y19675000D03*
X17550000Y19675000D03*
X18200000Y19675000D03*
D36*
X19050000Y19700000D03*
D34*
X19075000Y20525000D03*
X19075000Y21175000D03*
X19075000Y21825000D03*
X19075000Y22475000D03*
X19075000Y23125000D03*
X19075000Y23775000D03*
X19075000Y24425000D03*
X19075000Y25075000D03*
X19075000Y25725000D03*
X19075000Y26375000D03*
X19075000Y27025000D03*
X19075000Y27675000D03*
D36*
X19050000Y28500000D03*
D35*
X18200000Y28525000D03*
X17550000Y28525000D03*
X16900000Y28525000D03*
X16250000Y28525000D03*
X15600000Y28525000D03*
X14950000Y28525000D03*
X14300000Y28525000D03*
X13650000Y28525000D03*
X20825000Y19675000D03*
X21625000Y19675000D03*
X22425000Y19675000D03*
X23225000Y19675000D03*
X24025000Y19675000D03*
X24825000Y19675000D03*
X25625000Y19675000D03*
X26425000Y19675000D03*
D37*
X27225000Y19675000D03*
D36*
X29000000Y19700000D03*
D38*
X29030000Y20900000D03*
X29030000Y21700000D03*
X29030000Y22500000D03*
X29030000Y23300000D03*
X29030000Y24100000D03*
X29030000Y24900000D03*
X29030000Y25700000D03*
X29030000Y26500000D03*
D34*
X29030000Y27300000D03*
D33*
X29000000Y28500000D03*
D37*
X27225000Y28525000D03*
X26425000Y28525000D03*
X25625000Y28525000D03*
X24825000Y28525000D03*
X24025000Y28525000D03*
X23225000Y28525000D03*
X22425000Y28525000D03*
X21625000Y28525000D03*
D35*
X20825000Y28525000D03*
D39*
X14180000Y22275000D03*
X14180000Y25025000D03*
X17675000Y25025000D03*
X16725000Y25025000D03*
X15130000Y23175000D03*
X16725000Y26825000D03*
X14180000Y23175000D03*
X15130000Y26825000D03*
X16725000Y23175000D03*
X17675000Y22275000D03*
X17675000Y26825000D03*
X17675000Y21375000D03*
X15130000Y21375000D03*
X16725000Y21375000D03*
X16725000Y22275000D03*
X14180000Y25925000D03*
X15130000Y25025000D03*
X16725000Y25925000D03*
X14180000Y21375000D03*
X17675000Y25925000D03*
X15130000Y22275000D03*
X14180000Y26825000D03*
X15130000Y25925000D03*
X17675000Y23175000D03*
D20*
X16075000Y15240000D03*
X17725000Y15240000D03*
D10*
X-17922000Y18796000D03*
D11*
X-16622000Y18796000D03*
D26*
X-9144000Y-7030000D03*
X-9144000Y-3130000D03*
X-7874000Y-7030000D03*
X-7874000Y-3130000D03*
X-6604000Y-7030000D03*
X-6604000Y-3130000D03*
X-5334000Y-7030000D03*
X-5334000Y-3130000D03*
X-4064000Y-7030000D03*
X-4064000Y-3130000D03*
D13*
X10477000Y10160000D03*
X8827000Y10160000D03*
D20*
X-2095000Y14986000D03*
X-445000Y14986000D03*
D14*
X7620000Y-27940000D03*
D15*
X10160000Y-27940000D03*
X12700000Y-27940000D03*
X15240000Y-27940000D03*
X17780000Y-27940000D03*
X20320000Y-27940000D03*
X22860000Y-27940000D03*
D13*
X10477000Y15240000D03*
X8827000Y15240000D03*
D40*
X5588000Y13703000D03*
X5588000Y15253000D03*
D13*
X-16447000Y25400000D03*
X-18097000Y25400000D03*
D12*
X27500000Y-27500000D03*
D18*
X-12641000Y-2837000D03*
X-12641000Y1313000D03*
X-14791000Y1313000D03*
X-14791000Y-2812000D03*
D41*
X-2032000Y5954000D03*
D42*
X-2032000Y7254000D03*
D20*
X16075000Y18288000D03*
X17725000Y18288000D03*
D25*
X-7620000Y23901500D03*
X-7620000Y22326500D03*
D43*
X4540000Y17790000D03*
X3540000Y17790000D03*
X2540000Y17790000D03*
X1540000Y17790000D03*
X540000Y17790000D03*
X540000Y12690000D03*
X1540000Y12690000D03*
X2540000Y12690000D03*
X3540000Y12690000D03*
X4540000Y12690000D03*
D13*
X-6033000Y18415000D03*
X-7683000Y18415000D03*
D44*
X-4414000Y23422000D03*
X1366000Y23422000D03*
D45*
X1676000Y22357000D03*
X876000Y22357000D03*
D46*
X-274000Y22357000D03*
X-1274000Y22357000D03*
X-1774000Y22357000D03*
X-2774000Y22357000D03*
D45*
X-3924000Y22357000D03*
X-4724000Y22357000D03*
X-4724000Y22357000D03*
X-3924000Y22357000D03*
D46*
X-3274000Y22357000D03*
X-2274000Y22357000D03*
X-774000Y22357000D03*
X226000Y22357000D03*
D45*
X876000Y22357000D03*
X1676000Y22357000D03*
D47*
X2796000Y27102000D03*
D48*
X-5844000Y22922000D03*
X2796000Y22922000D03*
D47*
X-5844000Y27102000D03*
D21*
X1283000Y11176000D03*
X-267000Y11176000D03*
D49*
X-14900000Y6300000D03*
D50*
X-15445000Y3265000D03*
X-14175000Y3265000D03*
X-12905000Y3265000D03*
X-11635000Y3265000D03*
X-10365000Y3265000D03*
X-9095000Y3265000D03*
X-7825000Y3265000D03*
X-6555000Y3265000D03*
D51*
X-4265000Y5555000D03*
X-4265000Y6825000D03*
X-4265000Y8095000D03*
X-4265000Y9365000D03*
X-4265000Y10635000D03*
X-4265000Y11905000D03*
X-4265000Y13175000D03*
X-4265000Y14445000D03*
D50*
X-6555000Y16735000D03*
X-7825000Y16735000D03*
X-9095000Y16735000D03*
X-10365000Y16735000D03*
X-11635000Y16735000D03*
X-12905000Y16735000D03*
X-14175000Y16735000D03*
X-15445000Y16735000D03*
D51*
X-17735000Y14445000D03*
X-17735000Y13175000D03*
X-17735000Y11905000D03*
X-17735000Y10635000D03*
X-17735000Y9365000D03*
X-17735000Y8095000D03*
D52*
X-17835000Y6825000D03*
X-17835000Y5555000D03*
D20*
X-63000Y20828000D03*
X1587000Y20828000D03*
D14*
X-7620000Y27940000D03*
D15*
X-10160000Y27940000D03*
X-12700000Y27940000D03*
X-15240000Y27940000D03*
X-17780000Y27940000D03*
X-20320000Y27940000D03*
X-22860000Y27940000D03*
M02*
