G04 #@! TF.GenerationSoftware,KiCad,Pcbnew,(6.0.9)*
G04 #@! TF.CreationDate,2024-05-06T14:48:15+09:00*
G04 #@! TF.ProjectId,CommunicationBoard,436f6d6d-756e-4696-9361-74696f6e426f,rev?*
G04 #@! TF.SameCoordinates,PX8a48640PY5f5e100*
G04 #@! TF.FileFunction,Legend,Top*
G04 #@! TF.FilePolarity,Positive*
%FSLAX46Y46*%
G04 Gerber Fmt 4.6, Leading zero omitted, Abs format (unit mm)*
G04 Created by KiCad (PCBNEW (6.0.9)) date 2024-05-06 14:48:15*
%MOMM*%
%LPD*%
G01*
G04 APERTURE LIST*
G04 Aperture macros list*
%AMRoundRect*
0 Rectangle with rounded corners*
0 $1 Rounding radius*
0 $2 $3 $4 $5 $6 $7 $8 $9 X,Y pos of 4 corners*
0 Add a 4 corners polygon primitive as box body*
4,1,4,$2,$3,$4,$5,$6,$7,$8,$9,$2,$3,0*
0 Add four circle primitives for the rounded corners*
1,1,$1+$1,$2,$3*
1,1,$1+$1,$4,$5*
1,1,$1+$1,$6,$7*
1,1,$1+$1,$8,$9*
0 Add four rect primitives between the rounded corners*
20,1,$1+$1,$2,$3,$4,$5,0*
20,1,$1+$1,$4,$5,$6,$7,0*
20,1,$1+$1,$6,$7,$8,$9,0*
20,1,$1+$1,$8,$9,$2,$3,0*%
%AMHorizOval*
0 Thick line with rounded ends*
0 $1 width*
0 $2 $3 position (X,Y) of the first rounded end (center of the circle)*
0 $4 $5 position (X,Y) of the second rounded end (center of the circle)*
0 Add line between two ends*
20,1,$1,$2,$3,$4,$5,0*
0 Add two circle primitives to create the rounded ends*
1,1,$1,$2,$3*
1,1,$1,$4,$5*%
%AMRotRect*
0 Rectangle, with rotation*
0 The origin of the aperture is its center*
0 $1 length*
0 $2 width*
0 $3 Rotation angle, in degrees counterclockwise*
0 Add horizontal line*
21,1,$1,$2,0,0,$3*%
%AMFreePoly0*
4,1,22,0.500000,-0.750000,0.000000,-0.750000,0.000000,-0.745033,-0.079941,-0.743568,-0.215256,-0.701293,-0.333266,-0.622738,-0.424486,-0.514219,-0.481581,-0.384460,-0.499164,-0.250000,-0.500000,-0.250000,-0.500000,0.250000,-0.499164,0.250000,-0.499963,0.256109,-0.478152,0.396186,-0.417904,0.524511,-0.324060,0.630769,-0.204165,0.706417,-0.067858,0.745374,0.000000,0.744959,0.000000,0.750000,
0.500000,0.750000,0.500000,-0.750000,0.500000,-0.750000,$1*%
%AMFreePoly1*
4,1,20,0.000000,0.744959,0.073905,0.744508,0.209726,0.703889,0.328688,0.626782,0.421226,0.519385,0.479903,0.390333,0.500000,0.250000,0.500000,-0.250000,0.499851,-0.262216,0.476331,-0.402017,0.414519,-0.529596,0.319384,-0.634700,0.198574,-0.708877,0.061801,-0.746166,0.000000,-0.745033,0.000000,-0.750000,-0.500000,-0.750000,-0.500000,0.750000,0.000000,0.750000,0.000000,0.744959,
0.000000,0.744959,$1*%
G04 Aperture macros list end*
%ADD10C,0.150000*%
%ADD11C,0.120000*%
%ADD12C,0.100000*%
%ADD13C,0.127000*%
%ADD14FreePoly0,0.000000*%
%ADD15FreePoly1,0.000000*%
%ADD16C,2.200000*%
%ADD17RoundRect,0.200000X0.200000X0.275000X-0.200000X0.275000X-0.200000X-0.275000X0.200000X-0.275000X0*%
%ADD18R,1.700000X1.700000*%
%ADD19O,1.700000X1.700000*%
%ADD20RoundRect,0.100000X0.247487X-0.318198X0.318198X-0.247487X-0.247487X0.318198X-0.318198X0.247487X0*%
%ADD21RoundRect,0.100000X-0.212132X-0.141421X-0.141421X-0.212132X0.212132X0.141421X0.141421X0.212132X0*%
%ADD22R,0.650000X1.050000*%
%ADD23RoundRect,0.250000X0.250000X0.475000X-0.250000X0.475000X-0.250000X-0.475000X0.250000X-0.475000X0*%
%ADD24RoundRect,0.200000X-0.200000X-0.275000X0.200000X-0.275000X0.200000X0.275000X-0.200000X0.275000X0*%
%ADD25RoundRect,0.225000X0.225000X0.250000X-0.225000X0.250000X-0.225000X-0.250000X0.225000X-0.250000X0*%
%ADD26RoundRect,0.150000X0.512500X0.150000X-0.512500X0.150000X-0.512500X-0.150000X0.512500X-0.150000X0*%
%ADD27RoundRect,0.225000X-0.225000X-0.250000X0.225000X-0.250000X0.225000X0.250000X-0.225000X0.250000X0*%
%ADD28RoundRect,0.250000X-0.250000X-0.475000X0.250000X-0.475000X0.250000X0.475000X-0.250000X0.475000X0*%
%ADD29RoundRect,0.218750X-0.256250X0.218750X-0.256250X-0.218750X0.256250X-0.218750X0.256250X0.218750X0*%
%ADD30R,0.740000X2.400000*%
%ADD31C,1.000000*%
%ADD32RoundRect,0.225000X-0.017678X0.335876X-0.335876X0.017678X0.017678X-0.335876X0.335876X-0.017678X0*%
%ADD33RotRect,0.500000X0.375000X225.000000*%
%ADD34RotRect,0.650000X0.300000X225.000000*%
%ADD35R,2.000000X1.100000*%
%ADD36R,0.800000X1.100000*%
%ADD37RoundRect,0.112100X-0.339500X-0.339500X0.339500X-0.339500X0.339500X0.339500X-0.339500X0.339500X0*%
%ADD38RoundRect,0.106100X-0.320500X-0.145500X0.320500X-0.145500X0.320500X0.145500X-0.320500X0.145500X0*%
%ADD39RoundRect,0.106100X0.145500X-0.320500X0.145500X0.320500X-0.145500X0.320500X-0.145500X-0.320500X0*%
%ADD40RoundRect,0.112100X0.339500X0.339500X-0.339500X0.339500X-0.339500X-0.339500X0.339500X-0.339500X0*%
%ADD41RoundRect,0.106100X-0.145500X0.320500X-0.145500X-0.320500X0.145500X-0.320500X0.145500X0.320500X0*%
%ADD42RoundRect,0.106100X0.320500X0.145500X-0.320500X0.145500X-0.320500X-0.145500X0.320500X-0.145500X0*%
%ADD43RoundRect,0.113600X-0.413000X-0.388000X0.413000X-0.388000X0.413000X0.388000X-0.413000X0.388000X0*%
%ADD44RoundRect,0.225000X0.250000X-0.225000X0.250000X0.225000X-0.250000X0.225000X-0.250000X-0.225000X0*%
%ADD45FreePoly0,90.000000*%
%ADD46FreePoly1,90.000000*%
%ADD47R,0.510000X1.100000*%
%ADD48C,0.650000*%
%ADD49R,0.600000X1.160000*%
%ADD50R,0.300000X1.160000*%
%ADD51O,1.000000X1.800000*%
%ADD52O,1.000000X2.100000*%
%ADD53HorizOval,3.100000X0.424264X0.424264X-0.424264X-0.424264X0*%
%ADD54O,0.900000X1.400000*%
%ADD55O,1.400000X0.900000*%
%ADD56O,1.200000X0.900000*%
G04 APERTURE END LIST*
D10*
X14700285Y17216381D02*
X14747904Y17264000D01*
X14843142Y17311620D01*
X15081238Y17311620D01*
X15176476Y17264000D01*
X15224095Y17216381D01*
X15271714Y17121143D01*
X15271714Y17025905D01*
X15224095Y16883048D01*
X14652666Y16311620D01*
X15271714Y16311620D01*
X-8375524Y25947620D02*
X-8375524Y25138096D01*
X-8337429Y25042858D01*
X-8299334Y24995239D01*
X-8223143Y24947620D01*
X-8070762Y24947620D01*
X-7994572Y24995239D01*
X-7956477Y25042858D01*
X-7918381Y25138096D01*
X-7918381Y25947620D01*
X-7575524Y24995239D02*
X-7461239Y24947620D01*
X-7270762Y24947620D01*
X-7194572Y24995239D01*
X-7156477Y25042858D01*
X-7118381Y25138096D01*
X-7118381Y25233334D01*
X-7156477Y25328572D01*
X-7194572Y25376191D01*
X-7270762Y25423810D01*
X-7423143Y25471429D01*
X-7499334Y25519048D01*
X-7537429Y25566667D01*
X-7575524Y25661905D01*
X-7575524Y25757143D01*
X-7537429Y25852381D01*
X-7499334Y25900000D01*
X-7423143Y25947620D01*
X-7232667Y25947620D01*
X-7118381Y25900000D01*
X-6508858Y25471429D02*
X-6394572Y25423810D01*
X-6356477Y25376191D01*
X-6318381Y25280953D01*
X-6318381Y25138096D01*
X-6356477Y25042858D01*
X-6394572Y24995239D01*
X-6470762Y24947620D01*
X-6775524Y24947620D01*
X-6775524Y25947620D01*
X-6508858Y25947620D01*
X-6432667Y25900000D01*
X-6394572Y25852381D01*
X-6356477Y25757143D01*
X-6356477Y25661905D01*
X-6394572Y25566667D01*
X-6432667Y25519048D01*
X-6508858Y25471429D01*
X-6775524Y25471429D01*
X15271714Y17835620D02*
X14700285Y17835620D01*
X14986000Y17835620D02*
X14986000Y18835620D01*
X14890761Y18692762D01*
X14795523Y18597524D01*
X14700285Y18549905D01*
X13506571Y14787620D02*
X13506571Y15787620D01*
X13697047Y15787620D01*
X13811333Y15740000D01*
X13887523Y15644762D01*
X13925619Y15549524D01*
X13963714Y15359048D01*
X13963714Y15216191D01*
X13925619Y15025715D01*
X13887523Y14930477D01*
X13811333Y14835239D01*
X13697047Y14787620D01*
X13506571Y14787620D01*
X14573238Y15311429D02*
X14306571Y15311429D01*
X14306571Y14787620D02*
X14306571Y15787620D01*
X14687523Y15787620D01*
X14992285Y15787620D02*
X14992285Y14978096D01*
X15030380Y14882858D01*
X15068476Y14835239D01*
X15144666Y14787620D01*
X15297047Y14787620D01*
X15373238Y14835239D01*
X15411333Y14882858D01*
X15449428Y14978096D01*
X15449428Y15787620D01*
X-10755239Y23518858D02*
X-10802858Y23471239D01*
X-10945715Y23423620D01*
X-11040953Y23423620D01*
X-11183810Y23471239D01*
X-11279048Y23566477D01*
X-11326667Y23661715D01*
X-11374286Y23852191D01*
X-11374286Y23995048D01*
X-11326667Y24185524D01*
X-11279048Y24280762D01*
X-11183810Y24376000D01*
X-11040953Y24423620D01*
X-10945715Y24423620D01*
X-10802858Y24376000D01*
X-10755239Y24328381D01*
X-9850477Y23423620D02*
X-10326667Y23423620D01*
X-10326667Y24423620D01*
X-8945715Y23423620D02*
X-9279048Y23899810D01*
X-9517143Y23423620D02*
X-9517143Y24423620D01*
X-9136191Y24423620D01*
X-9040953Y24376000D01*
X-8993334Y24328381D01*
X-8945715Y24233143D01*
X-8945715Y24090286D01*
X-8993334Y23995048D01*
X-9040953Y23947429D01*
X-9136191Y23899810D01*
X-9517143Y23899810D01*
X11753904Y14787620D02*
X11487238Y15263810D01*
X11296761Y14787620D02*
X11296761Y15787620D01*
X11601523Y15787620D01*
X11677714Y15740000D01*
X11715809Y15692381D01*
X11753904Y15597143D01*
X11753904Y15454286D01*
X11715809Y15359048D01*
X11677714Y15311429D01*
X11601523Y15263810D01*
X11296761Y15263810D01*
X12058666Y14835239D02*
X12172952Y14787620D01*
X12363428Y14787620D01*
X12439619Y14835239D01*
X12477714Y14882858D01*
X12515809Y14978096D01*
X12515809Y15073334D01*
X12477714Y15168572D01*
X12439619Y15216191D01*
X12363428Y15263810D01*
X12211047Y15311429D01*
X12134857Y15359048D01*
X12096761Y15406667D01*
X12058666Y15501905D01*
X12058666Y15597143D01*
X12096761Y15692381D01*
X12134857Y15740000D01*
X12211047Y15787620D01*
X12401523Y15787620D01*
X12515809Y15740000D01*
X12744380Y15787620D02*
X13201523Y15787620D01*
X12972952Y14787620D02*
X12972952Y15787620D01*
X-19486572Y19700762D02*
X-19534191Y19557905D01*
X-19581810Y19510286D01*
X-19677048Y19462667D01*
X-19819905Y19462667D01*
X-19915143Y19510286D01*
X-19962762Y19557905D01*
X-20010381Y19653143D01*
X-20010381Y20034096D01*
X-19010381Y20034096D01*
X-19010381Y19700762D01*
X-19058000Y19605524D01*
X-19105620Y19557905D01*
X-19200858Y19510286D01*
X-19296096Y19510286D01*
X-19391334Y19557905D01*
X-19438953Y19605524D01*
X-19486572Y19700762D01*
X-19486572Y20034096D01*
X-20010381Y19034096D02*
X-19010381Y19034096D01*
X-19010381Y18653143D01*
X-19058000Y18557905D01*
X-19105620Y18510286D01*
X-19200858Y18462667D01*
X-19343715Y18462667D01*
X-19438953Y18510286D01*
X-19486572Y18557905D01*
X-19534191Y18653143D01*
X-19534191Y19034096D01*
X-19962762Y18081715D02*
X-20010381Y17938858D01*
X-20010381Y17700762D01*
X-19962762Y17605524D01*
X-19915143Y17557905D01*
X-19819905Y17510286D01*
X-19724667Y17510286D01*
X-19629429Y17557905D01*
X-19581810Y17605524D01*
X-19534191Y17700762D01*
X-19486572Y17891239D01*
X-19438953Y17986477D01*
X-19391334Y18034096D01*
X-19296096Y18081715D01*
X-19200858Y18081715D01*
X-19105620Y18034096D01*
X-19058000Y17986477D01*
X-19010381Y17891239D01*
X-19010381Y17653143D01*
X-19058000Y17510286D01*
X-4727381Y2119143D02*
X-3727381Y2119143D01*
X-4441667Y1785810D01*
X-3727381Y1452477D01*
X-4727381Y1452477D01*
X-4203572Y976286D02*
X-4203572Y642953D01*
X-4727381Y500096D02*
X-4727381Y976286D01*
X-3727381Y976286D01*
X-3727381Y500096D01*
X-4727381Y71524D02*
X-3727381Y71524D01*
X-4441667Y-261809D01*
X-3727381Y-595142D01*
X-4727381Y-595142D01*
X-6242143Y1357239D02*
X-6289762Y1404858D01*
X-6337381Y1547715D01*
X-6337381Y1642953D01*
X-6289762Y1785810D01*
X-6194524Y1881048D01*
X-6099286Y1928667D01*
X-5908810Y1976286D01*
X-5765953Y1976286D01*
X-5575477Y1928667D01*
X-5480239Y1881048D01*
X-5385000Y1785810D01*
X-5337381Y1642953D01*
X-5337381Y1547715D01*
X-5385000Y1404858D01*
X-5432620Y1357239D01*
X-6337381Y452477D02*
X-6337381Y928667D01*
X-5337381Y928667D01*
X-6337381Y-452285D02*
X-5861191Y-118952D01*
X-6337381Y119143D02*
X-5337381Y119143D01*
X-5337381Y-261809D01*
X-5385000Y-357047D01*
X-5432620Y-404666D01*
X-5527858Y-452285D01*
X-5670715Y-452285D01*
X-5765953Y-404666D01*
X-5813572Y-357047D01*
X-5861191Y-261809D01*
X-5861191Y119143D01*
X11485571Y26344715D02*
X11485571Y26011381D01*
X12009380Y26011381D02*
X11009380Y26011381D01*
X11009380Y26487572D01*
X12009380Y27439953D02*
X11533190Y27106620D01*
X12009380Y26868524D02*
X11009380Y26868524D01*
X11009380Y27249477D01*
X11057000Y27344715D01*
X11104619Y27392334D01*
X11199857Y27439953D01*
X11342714Y27439953D01*
X11437952Y27392334D01*
X11485571Y27344715D01*
X11533190Y27249477D01*
X11533190Y26868524D01*
X11961761Y27820905D02*
X12009380Y27963762D01*
X12009380Y28201858D01*
X11961761Y28297096D01*
X11914142Y28344715D01*
X11818904Y28392334D01*
X11723666Y28392334D01*
X11628428Y28344715D01*
X11580809Y28297096D01*
X11533190Y28201858D01*
X11485571Y28011381D01*
X11437952Y27916143D01*
X11390333Y27868524D01*
X11295095Y27820905D01*
X11199857Y27820905D01*
X11104619Y27868524D01*
X11057000Y27916143D01*
X11009380Y28011381D01*
X11009380Y28249477D01*
X11057000Y28392334D01*
X11009380Y28678048D02*
X11009380Y29249477D01*
X12009380Y28963762D02*
X11009380Y28963762D01*
X-19486572Y23010667D02*
X-19486572Y22677334D01*
X-20010381Y22534477D02*
X-20010381Y23010667D01*
X-19010381Y23010667D01*
X-19010381Y22534477D01*
X-19010381Y22201143D02*
X-20010381Y21534477D01*
X-19010381Y21534477D02*
X-20010381Y22201143D01*
X-20010381Y20629715D02*
X-20010381Y21201143D01*
X-20010381Y20915429D02*
X-19010381Y20915429D01*
X-19153239Y21010667D01*
X-19248477Y21105905D01*
X-19296096Y21201143D01*
X-14263620Y23423620D02*
X-14596953Y23899810D01*
X-14835048Y23423620D02*
X-14835048Y24423620D01*
X-14454096Y24423620D01*
X-14358858Y24376000D01*
X-14311239Y24328381D01*
X-14263620Y24233143D01*
X-14263620Y24090286D01*
X-14311239Y23995048D01*
X-14358858Y23947429D01*
X-14454096Y23899810D01*
X-14835048Y23899810D01*
X-13882667Y23471239D02*
X-13739810Y23423620D01*
X-13501715Y23423620D01*
X-13406477Y23471239D01*
X-13358858Y23518858D01*
X-13311239Y23614096D01*
X-13311239Y23709334D01*
X-13358858Y23804572D01*
X-13406477Y23852191D01*
X-13501715Y23899810D01*
X-13692191Y23947429D01*
X-13787429Y23995048D01*
X-13835048Y24042667D01*
X-13882667Y24137905D01*
X-13882667Y24233143D01*
X-13835048Y24328381D01*
X-13787429Y24376000D01*
X-13692191Y24423620D01*
X-13454096Y24423620D01*
X-13311239Y24376000D01*
X-13025524Y24423620D02*
X-12454096Y24423620D01*
X-12739810Y23423620D02*
X-12739810Y24423620D01*
X-19456381Y24947620D02*
X-19913524Y24947620D01*
X-19684953Y24947620D02*
X-19684953Y25947620D01*
X-19761143Y25804762D01*
X-19837334Y25709524D01*
X-19913524Y25661905D01*
X-18732572Y25947620D02*
X-19113524Y25947620D01*
X-19151620Y25471429D01*
X-19113524Y25519048D01*
X-19037334Y25566667D01*
X-18846858Y25566667D01*
X-18770667Y25519048D01*
X-18732572Y25471429D01*
X-18694477Y25376191D01*
X-18694477Y25138096D01*
X-18732572Y25042858D01*
X-18770667Y24995239D01*
X-18846858Y24947620D01*
X-19037334Y24947620D01*
X-19113524Y24995239D01*
X-19151620Y25042858D01*
X-2436762Y11025048D02*
X-2484381Y10882191D01*
X-2484381Y10644096D01*
X-2436762Y10548858D01*
X-2389143Y10501239D01*
X-2293905Y10453620D01*
X-2198667Y10453620D01*
X-2103429Y10501239D01*
X-2055810Y10548858D01*
X-2008191Y10644096D01*
X-1960572Y10834572D01*
X-1912953Y10929810D01*
X-1865334Y10977429D01*
X-1770096Y11025048D01*
X-1674858Y11025048D01*
X-1579620Y10977429D01*
X-1532000Y10929810D01*
X-1484381Y10834572D01*
X-1484381Y10596477D01*
X-1532000Y10453620D01*
X-1960572Y10025048D02*
X-1960572Y9691715D01*
X-2484381Y9548858D02*
X-2484381Y10025048D01*
X-1484381Y10025048D01*
X-1484381Y9548858D01*
X-1484381Y9263143D02*
X-1484381Y8691715D01*
X-2484381Y8977429D02*
X-1484381Y8977429D01*
X-11628381Y-770095D02*
X-10628381Y-770095D01*
X-10628381Y-1151047D01*
X-10676000Y-1246285D01*
X-10723620Y-1293904D01*
X-10818858Y-1341523D01*
X-10961715Y-1341523D01*
X-11056953Y-1293904D01*
X-11104572Y-1246285D01*
X-11152191Y-1151047D01*
X-11152191Y-770095D01*
X-11628381Y-2341523D02*
X-11152191Y-2008190D01*
X-11628381Y-1770095D02*
X-10628381Y-1770095D01*
X-10628381Y-2151047D01*
X-10676000Y-2246285D01*
X-10723620Y-2293904D01*
X-10818858Y-2341523D01*
X-10961715Y-2341523D01*
X-11056953Y-2293904D01*
X-11104572Y-2246285D01*
X-11152191Y-2151047D01*
X-11152191Y-1770095D01*
X-10676000Y-3293904D02*
X-10628381Y-3198666D01*
X-10628381Y-3055809D01*
X-10676000Y-2912952D01*
X-10771239Y-2817714D01*
X-10866477Y-2770095D01*
X-11056953Y-2722476D01*
X-11199810Y-2722476D01*
X-11390286Y-2770095D01*
X-11485524Y-2817714D01*
X-11580762Y-2912952D01*
X-11628381Y-3055809D01*
X-11628381Y-3151047D01*
X-11580762Y-3293904D01*
X-11533143Y-3341523D01*
X-11199810Y-3341523D01*
X-11199810Y-3151047D01*
X-19456381Y23677620D02*
X-19913524Y23677620D01*
X-19684953Y23677620D02*
X-19684953Y24677620D01*
X-19761143Y24534762D01*
X-19837334Y24439524D01*
X-19913524Y24391905D01*
X-18770667Y24344286D02*
X-18770667Y23677620D01*
X-18961143Y24725239D02*
X-19151620Y24010953D01*
X-18656381Y24010953D01*
X-4119620Y19137334D02*
X-4595810Y18804000D01*
X-4119620Y18565905D02*
X-5119620Y18565905D01*
X-5119620Y18946858D01*
X-5072000Y19042096D01*
X-5024381Y19089715D01*
X-4929143Y19137334D01*
X-4786286Y19137334D01*
X-4691048Y19089715D01*
X-4643429Y19042096D01*
X-4595810Y18946858D01*
X-4595810Y18565905D01*
X-4119620Y19613524D02*
X-4119620Y19804000D01*
X-4167239Y19899239D01*
X-4214858Y19946858D01*
X-4357715Y20042096D01*
X-4548191Y20089715D01*
X-4929143Y20089715D01*
X-5024381Y20042096D01*
X-5072000Y19994477D01*
X-5119620Y19899239D01*
X-5119620Y19708762D01*
X-5072000Y19613524D01*
X-5024381Y19565905D01*
X-4929143Y19518286D01*
X-4691048Y19518286D01*
X-4595810Y19565905D01*
X-4548191Y19613524D01*
X-4500572Y19708762D01*
X-4500572Y19899239D01*
X-4548191Y19994477D01*
X-4595810Y20042096D01*
X-4691048Y20089715D01*
X13358761Y10350667D02*
X13406380Y10493524D01*
X13406380Y10731620D01*
X13358761Y10826858D01*
X13311142Y10874477D01*
X13215904Y10922096D01*
X13120666Y10922096D01*
X13025428Y10874477D01*
X12977809Y10826858D01*
X12930190Y10731620D01*
X12882571Y10541143D01*
X12834952Y10445905D01*
X12787333Y10398286D01*
X12692095Y10350667D01*
X12596857Y10350667D01*
X12501619Y10398286D01*
X12454000Y10445905D01*
X12406380Y10541143D01*
X12406380Y10779239D01*
X12454000Y10922096D01*
X12406380Y11255429D02*
X13406380Y11493524D01*
X12692095Y11684000D01*
X13406380Y11874477D01*
X12406380Y12112572D01*
X13406380Y13017334D02*
X13406380Y12445905D01*
X13406380Y12731620D02*
X12406380Y12731620D01*
X12549238Y12636381D01*
X12644476Y12541143D01*
X12692095Y12445905D01*
X-1690667Y19962858D02*
X-1738286Y19915239D01*
X-1881143Y19867620D01*
X-1976381Y19867620D01*
X-2119239Y19915239D01*
X-2214477Y20010477D01*
X-2262096Y20105715D01*
X-2309715Y20296191D01*
X-2309715Y20439048D01*
X-2262096Y20629524D01*
X-2214477Y20724762D01*
X-2119239Y20820000D01*
X-1976381Y20867620D01*
X-1881143Y20867620D01*
X-1738286Y20820000D01*
X-1690667Y20772381D01*
X-1119239Y20439048D02*
X-1214477Y20486667D01*
X-1262096Y20534286D01*
X-1309715Y20629524D01*
X-1309715Y20677143D01*
X-1262096Y20772381D01*
X-1214477Y20820000D01*
X-1119239Y20867620D01*
X-928762Y20867620D01*
X-833524Y20820000D01*
X-785905Y20772381D01*
X-738286Y20677143D01*
X-738286Y20629524D01*
X-785905Y20534286D01*
X-833524Y20486667D01*
X-928762Y20439048D01*
X-1119239Y20439048D01*
X-1214477Y20391429D01*
X-1262096Y20343810D01*
X-1309715Y20248572D01*
X-1309715Y20058096D01*
X-1262096Y19962858D01*
X-1214477Y19915239D01*
X-1119239Y19867620D01*
X-928762Y19867620D01*
X-833524Y19915239D01*
X-785905Y19962858D01*
X-738286Y20058096D01*
X-738286Y20248572D01*
X-785905Y20343810D01*
X-833524Y20391429D01*
X-928762Y20439048D01*
X-9755239Y19494667D02*
X-9707620Y19637524D01*
X-9707620Y19875620D01*
X-9755239Y19970858D01*
X-9802858Y20018477D01*
X-9898096Y20066096D01*
X-9993334Y20066096D01*
X-10088572Y20018477D01*
X-10136191Y19970858D01*
X-10183810Y19875620D01*
X-10231429Y19685143D01*
X-10279048Y19589905D01*
X-10326667Y19542286D01*
X-10421905Y19494667D01*
X-10517143Y19494667D01*
X-10612381Y19542286D01*
X-10660000Y19589905D01*
X-10707620Y19685143D01*
X-10707620Y19923239D01*
X-10660000Y20066096D01*
X-10707620Y20399429D02*
X-9707620Y20637524D01*
X-10421905Y20828000D01*
X-9707620Y21018477D01*
X-10707620Y21256572D01*
X-10707620Y21542286D02*
X-10707620Y22161334D01*
X-10326667Y21828000D01*
X-10326667Y21970858D01*
X-10279048Y22066096D01*
X-10231429Y22113715D01*
X-10136191Y22161334D01*
X-9898096Y22161334D01*
X-9802858Y22113715D01*
X-9755239Y22066096D01*
X-9707620Y21970858D01*
X-9707620Y21685143D01*
X-9755239Y21589905D01*
X-9802858Y21542286D01*
X10755333Y17422858D02*
X10707714Y17375239D01*
X10564857Y17327620D01*
X10469619Y17327620D01*
X10326761Y17375239D01*
X10231523Y17470477D01*
X10183904Y17565715D01*
X10136285Y17756191D01*
X10136285Y17899048D01*
X10183904Y18089524D01*
X10231523Y18184762D01*
X10326761Y18280000D01*
X10469619Y18327620D01*
X10564857Y18327620D01*
X10707714Y18280000D01*
X10755333Y18232381D01*
X11660095Y18327620D02*
X11183904Y18327620D01*
X11136285Y17851429D01*
X11183904Y17899048D01*
X11279142Y17946667D01*
X11517238Y17946667D01*
X11612476Y17899048D01*
X11660095Y17851429D01*
X11707714Y17756191D01*
X11707714Y17518096D01*
X11660095Y17422858D01*
X11612476Y17375239D01*
X11517238Y17327620D01*
X11279142Y17327620D01*
X11183904Y17375239D01*
X11136285Y17422858D01*
X-3849620Y18542096D02*
X-3040096Y18542096D01*
X-2944858Y18589715D01*
X-2897239Y18637334D01*
X-2849620Y18732572D01*
X-2849620Y18923048D01*
X-2897239Y19018286D01*
X-2944858Y19065905D01*
X-3040096Y19113524D01*
X-3849620Y19113524D01*
X-3849620Y19494477D02*
X-3849620Y20161143D01*
X-2849620Y19732572D01*
X-13311239Y19494667D02*
X-13263620Y19637524D01*
X-13263620Y19875620D01*
X-13311239Y19970858D01*
X-13358858Y20018477D01*
X-13454096Y20066096D01*
X-13549334Y20066096D01*
X-13644572Y20018477D01*
X-13692191Y19970858D01*
X-13739810Y19875620D01*
X-13787429Y19685143D01*
X-13835048Y19589905D01*
X-13882667Y19542286D01*
X-13977905Y19494667D01*
X-14073143Y19494667D01*
X-14168381Y19542286D01*
X-14216000Y19589905D01*
X-14263620Y19685143D01*
X-14263620Y19923239D01*
X-14216000Y20066096D01*
X-14263620Y20399429D02*
X-13263620Y20637524D01*
X-13977905Y20828000D01*
X-13263620Y21018477D01*
X-14263620Y21256572D01*
X-13930286Y22066096D02*
X-13263620Y22066096D01*
X-14311239Y21828000D02*
X-13596953Y21589905D01*
X-13596953Y22208953D01*
X10755333Y16152858D02*
X10707714Y16105239D01*
X10564857Y16057620D01*
X10469619Y16057620D01*
X10326761Y16105239D01*
X10231523Y16200477D01*
X10183904Y16295715D01*
X10136285Y16486191D01*
X10136285Y16629048D01*
X10183904Y16819524D01*
X10231523Y16914762D01*
X10326761Y17010000D01*
X10469619Y17057620D01*
X10564857Y17057620D01*
X10707714Y17010000D01*
X10755333Y16962381D01*
X11612476Y16724286D02*
X11612476Y16057620D01*
X11374380Y17105239D02*
X11136285Y16390953D01*
X11755333Y16390953D01*
X4532333Y10945858D02*
X4484714Y10898239D01*
X4341857Y10850620D01*
X4246619Y10850620D01*
X4103761Y10898239D01*
X4008523Y10993477D01*
X3960904Y11088715D01*
X3913285Y11279191D01*
X3913285Y11422048D01*
X3960904Y11612524D01*
X4008523Y11707762D01*
X4103761Y11803000D01*
X4246619Y11850620D01*
X4341857Y11850620D01*
X4484714Y11803000D01*
X4532333Y11755381D01*
X5389476Y11850620D02*
X5199000Y11850620D01*
X5103761Y11803000D01*
X5056142Y11755381D01*
X4960904Y11612524D01*
X4913285Y11422048D01*
X4913285Y11041096D01*
X4960904Y10945858D01*
X5008523Y10898239D01*
X5103761Y10850620D01*
X5294238Y10850620D01*
X5389476Y10898239D01*
X5437095Y10945858D01*
X5484714Y11041096D01*
X5484714Y11279191D01*
X5437095Y11374429D01*
X5389476Y11422048D01*
X5294238Y11469667D01*
X5103761Y11469667D01*
X5008523Y11422048D01*
X4960904Y11374429D01*
X4913285Y11279191D01*
X17168761Y10350667D02*
X17216380Y10493524D01*
X17216380Y10731620D01*
X17168761Y10826858D01*
X17121142Y10874477D01*
X17025904Y10922096D01*
X16930666Y10922096D01*
X16835428Y10874477D01*
X16787809Y10826858D01*
X16740190Y10731620D01*
X16692571Y10541143D01*
X16644952Y10445905D01*
X16597333Y10398286D01*
X16502095Y10350667D01*
X16406857Y10350667D01*
X16311619Y10398286D01*
X16264000Y10445905D01*
X16216380Y10541143D01*
X16216380Y10779239D01*
X16264000Y10922096D01*
X16216380Y11255429D02*
X17216380Y11493524D01*
X16502095Y11684000D01*
X17216380Y11874477D01*
X16216380Y12112572D01*
X16311619Y12445905D02*
X16264000Y12493524D01*
X16216380Y12588762D01*
X16216380Y12826858D01*
X16264000Y12922096D01*
X16311619Y12969715D01*
X16406857Y13017334D01*
X16502095Y13017334D01*
X16644952Y12969715D01*
X17216380Y12398286D01*
X17216380Y13017334D01*
X2627333Y10850620D02*
X2294000Y11326810D01*
X2055904Y10850620D02*
X2055904Y11850620D01*
X2436857Y11850620D01*
X2532095Y11803000D01*
X2579714Y11755381D01*
X2627333Y11660143D01*
X2627333Y11517286D01*
X2579714Y11422048D01*
X2532095Y11374429D01*
X2436857Y11326810D01*
X2055904Y11326810D01*
X3484476Y11517286D02*
X3484476Y10850620D01*
X3246380Y11898239D02*
X3008285Y11183953D01*
X3627333Y11183953D01*
X5976687Y18933611D02*
X5976687Y18866268D01*
X5909343Y18731581D01*
X5842000Y18664237D01*
X5707312Y18596894D01*
X5572625Y18596894D01*
X5471610Y18630565D01*
X5303251Y18731581D01*
X5202236Y18832596D01*
X5101221Y19000955D01*
X5067549Y19101970D01*
X5067549Y19236657D01*
X5134893Y19371344D01*
X5202236Y19438688D01*
X5336923Y19506031D01*
X5404267Y19506031D01*
X6717465Y19539703D02*
X6313404Y19135642D01*
X6515435Y19337672D02*
X5808328Y20044779D01*
X5842000Y19876420D01*
X5842000Y19741733D01*
X5808328Y19640718D01*
X-9564667Y-1627142D02*
X-9612286Y-1674761D01*
X-9755143Y-1722380D01*
X-9850381Y-1722380D01*
X-9993239Y-1674761D01*
X-10088477Y-1579523D01*
X-10136096Y-1484285D01*
X-10183715Y-1293809D01*
X-10183715Y-1150952D01*
X-10136096Y-960476D01*
X-10088477Y-865238D01*
X-9993239Y-770000D01*
X-9850381Y-722380D01*
X-9755143Y-722380D01*
X-9612286Y-770000D01*
X-9564667Y-817619D01*
X-9231334Y-722380D02*
X-8564667Y-722380D01*
X-8993239Y-1722380D01*
X-7500858Y19105620D02*
X-7834191Y19581810D01*
X-8072286Y19105620D02*
X-8072286Y20105620D01*
X-7691334Y20105620D01*
X-7596096Y20058000D01*
X-7548477Y20010381D01*
X-7500858Y19915143D01*
X-7500858Y19772286D01*
X-7548477Y19677048D01*
X-7596096Y19629429D01*
X-7691334Y19581810D01*
X-8072286Y19581810D01*
X-6548477Y19105620D02*
X-7119905Y19105620D01*
X-6834191Y19105620D02*
X-6834191Y20105620D01*
X-6929429Y19962762D01*
X-7024667Y19867524D01*
X-7119905Y19819905D01*
X-5929429Y20105620D02*
X-5834191Y20105620D01*
X-5738953Y20058000D01*
X-5691334Y20010381D01*
X-5643715Y19915143D01*
X-5596096Y19724667D01*
X-5596096Y19486572D01*
X-5643715Y19296096D01*
X-5691334Y19200858D01*
X-5738953Y19153239D01*
X-5834191Y19105620D01*
X-5929429Y19105620D01*
X-6024667Y19153239D01*
X-6072286Y19200858D01*
X-6119905Y19296096D01*
X-6167524Y19486572D01*
X-6167524Y19724667D01*
X-6119905Y19915143D01*
X-6072286Y20010381D01*
X-6024667Y20058000D01*
X-5929429Y20105620D01*
X6945333Y13263620D02*
X6612000Y13739810D01*
X6373904Y13263620D02*
X6373904Y14263620D01*
X6754857Y14263620D01*
X6850095Y14216000D01*
X6897714Y14168381D01*
X6945333Y14073143D01*
X6945333Y13930286D01*
X6897714Y13835048D01*
X6850095Y13787429D01*
X6754857Y13739810D01*
X6373904Y13739810D01*
X7278666Y14263620D02*
X7945333Y14263620D01*
X7516761Y13263620D01*
X10501333Y20121620D02*
X10168000Y20597810D01*
X9929904Y20121620D02*
X9929904Y21121620D01*
X10310857Y21121620D01*
X10406095Y21074000D01*
X10453714Y21026381D01*
X10501333Y20931143D01*
X10501333Y20788286D01*
X10453714Y20693048D01*
X10406095Y20645429D01*
X10310857Y20597810D01*
X9929904Y20597810D01*
X10834666Y21121620D02*
X11453714Y21121620D01*
X11120380Y20740667D01*
X11263238Y20740667D01*
X11358476Y20693048D01*
X11406095Y20645429D01*
X11453714Y20550191D01*
X11453714Y20312096D01*
X11406095Y20216858D01*
X11358476Y20169239D01*
X11263238Y20121620D01*
X10977523Y20121620D01*
X10882285Y20169239D01*
X10834666Y20216858D01*
X-7500858Y-1722380D02*
X-7834191Y-1246190D01*
X-8072286Y-1722380D02*
X-8072286Y-722380D01*
X-7691334Y-722380D01*
X-7596096Y-770000D01*
X-7548477Y-817619D01*
X-7500858Y-912857D01*
X-7500858Y-1055714D01*
X-7548477Y-1150952D01*
X-7596096Y-1198571D01*
X-7691334Y-1246190D01*
X-8072286Y-1246190D01*
X-6548477Y-1722380D02*
X-7119905Y-1722380D01*
X-6834191Y-1722380D02*
X-6834191Y-722380D01*
X-6929429Y-865238D01*
X-7024667Y-960476D01*
X-7119905Y-1008095D01*
X-6167524Y-817619D02*
X-6119905Y-770000D01*
X-6024667Y-722380D01*
X-5786572Y-722380D01*
X-5691334Y-770000D01*
X-5643715Y-817619D01*
X-5596096Y-912857D01*
X-5596096Y-1008095D01*
X-5643715Y-1150952D01*
X-6215143Y-1722380D01*
X-5596096Y-1722380D01*
X23622095Y24939620D02*
X23622095Y24130096D01*
X23669714Y24034858D01*
X23717333Y23987239D01*
X23812571Y23939620D01*
X24003047Y23939620D01*
X24098285Y23987239D01*
X24145904Y24034858D01*
X24193523Y24130096D01*
X24193523Y24939620D01*
X24574476Y24939620D02*
X25193523Y24939620D01*
X24860190Y24558667D01*
X25003047Y24558667D01*
X25098285Y24511048D01*
X25145904Y24463429D01*
X25193523Y24368191D01*
X25193523Y24130096D01*
X25145904Y24034858D01*
X25098285Y23987239D01*
X25003047Y23939620D01*
X24717333Y23939620D01*
X24622095Y23987239D01*
X24574476Y24034858D01*
X6437333Y10850620D02*
X6104000Y11326810D01*
X5865904Y10850620D02*
X5865904Y11850620D01*
X6246857Y11850620D01*
X6342095Y11803000D01*
X6389714Y11755381D01*
X6437333Y11660143D01*
X6437333Y11517286D01*
X6389714Y11422048D01*
X6342095Y11374429D01*
X6246857Y11326810D01*
X5865904Y11326810D01*
X7342095Y11850620D02*
X6865904Y11850620D01*
X6818285Y11374429D01*
X6865904Y11422048D01*
X6961142Y11469667D01*
X7199238Y11469667D01*
X7294476Y11422048D01*
X7342095Y11374429D01*
X7389714Y11279191D01*
X7389714Y11041096D01*
X7342095Y10945858D01*
X7294476Y10898239D01*
X7199238Y10850620D01*
X6961142Y10850620D01*
X6865904Y10898239D01*
X6818285Y10945858D01*
X-2420858Y13263620D02*
X-2754191Y13739810D01*
X-2992286Y13263620D02*
X-2992286Y14263620D01*
X-2611334Y14263620D01*
X-2516096Y14216000D01*
X-2468477Y14168381D01*
X-2420858Y14073143D01*
X-2420858Y13930286D01*
X-2468477Y13835048D01*
X-2516096Y13787429D01*
X-2611334Y13739810D01*
X-2992286Y13739810D01*
X-1468477Y13263620D02*
X-2039905Y13263620D01*
X-1754191Y13263620D02*
X-1754191Y14263620D01*
X-1849429Y14120762D01*
X-1944667Y14025524D01*
X-2039905Y13977905D01*
X-1135143Y14263620D02*
X-516096Y14263620D01*
X-849429Y13882667D01*
X-706572Y13882667D01*
X-611334Y13835048D01*
X-563715Y13787429D01*
X-516096Y13692191D01*
X-516096Y13454096D01*
X-563715Y13358858D01*
X-611334Y13311239D01*
X-706572Y13263620D01*
X-992286Y13263620D01*
X-1087524Y13311239D01*
X-1135143Y13358858D01*
X6945333Y14787620D02*
X6612000Y15263810D01*
X6373904Y14787620D02*
X6373904Y15787620D01*
X6754857Y15787620D01*
X6850095Y15740000D01*
X6897714Y15692381D01*
X6945333Y15597143D01*
X6945333Y15454286D01*
X6897714Y15359048D01*
X6850095Y15311429D01*
X6754857Y15263810D01*
X6373904Y15263810D01*
X7802476Y15787620D02*
X7612000Y15787620D01*
X7516761Y15740000D01*
X7469142Y15692381D01*
X7373904Y15549524D01*
X7326285Y15359048D01*
X7326285Y14978096D01*
X7373904Y14882858D01*
X7421523Y14835239D01*
X7516761Y14787620D01*
X7707238Y14787620D01*
X7802476Y14835239D01*
X7850095Y14882858D01*
X7897714Y14978096D01*
X7897714Y15216191D01*
X7850095Y15311429D01*
X7802476Y15359048D01*
X7707238Y15406667D01*
X7516761Y15406667D01*
X7421523Y15359048D01*
X7373904Y15311429D01*
X7326285Y15216191D01*
X6199142Y16597334D02*
X6246761Y16549715D01*
X6294380Y16406858D01*
X6294380Y16311620D01*
X6246761Y16168762D01*
X6151523Y16073524D01*
X6056285Y16025905D01*
X5865809Y15978286D01*
X5722952Y15978286D01*
X5532476Y16025905D01*
X5437238Y16073524D01*
X5342000Y16168762D01*
X5294380Y16311620D01*
X5294380Y16406858D01*
X5342000Y16549715D01*
X5389619Y16597334D01*
X5389619Y16978286D02*
X5342000Y17025905D01*
X5294380Y17121143D01*
X5294380Y17359239D01*
X5342000Y17454477D01*
X5389619Y17502096D01*
X5484857Y17549715D01*
X5580095Y17549715D01*
X5722952Y17502096D01*
X6294380Y16930667D01*
X6294380Y17549715D01*
X-13311239Y-2095333D02*
X-13263620Y-1952476D01*
X-13263620Y-1714380D01*
X-13311239Y-1619142D01*
X-13358858Y-1571523D01*
X-13454096Y-1523904D01*
X-13549334Y-1523904D01*
X-13644572Y-1571523D01*
X-13692191Y-1619142D01*
X-13739810Y-1714380D01*
X-13787429Y-1904857D01*
X-13835048Y-2000095D01*
X-13882667Y-2047714D01*
X-13977905Y-2095333D01*
X-14073143Y-2095333D01*
X-14168381Y-2047714D01*
X-14216000Y-2000095D01*
X-14263620Y-1904857D01*
X-14263620Y-1666761D01*
X-14216000Y-1523904D01*
X-14263620Y-1190571D02*
X-13263620Y-952476D01*
X-13977905Y-762000D01*
X-13263620Y-571523D01*
X-14263620Y-333428D01*
X-14263620Y523715D02*
X-14263620Y47524D01*
X-13787429Y-95D01*
X-13835048Y47524D01*
X-13882667Y142762D01*
X-13882667Y380858D01*
X-13835048Y476096D01*
X-13787429Y523715D01*
X-13692191Y571334D01*
X-13454096Y571334D01*
X-13358858Y523715D01*
X-13311239Y476096D01*
X-13263620Y380858D01*
X-13263620Y142762D01*
X-13311239Y47524D01*
X-13358858Y-95D01*
X1778095Y15787620D02*
X1778095Y14978096D01*
X1825714Y14882858D01*
X1873333Y14835239D01*
X1968571Y14787620D01*
X2159047Y14787620D01*
X2254285Y14835239D01*
X2301904Y14882858D01*
X2349523Y14978096D01*
X2349523Y15787620D01*
X3349523Y14787620D02*
X2778095Y14787620D01*
X3063809Y14787620D02*
X3063809Y15787620D01*
X2968571Y15644762D01*
X2873333Y15549524D01*
X2778095Y15501905D01*
X341333Y9548858D02*
X293714Y9501239D01*
X150857Y9453620D01*
X55619Y9453620D01*
X-87239Y9501239D01*
X-182477Y9596477D01*
X-230096Y9691715D01*
X-277715Y9882191D01*
X-277715Y10025048D01*
X-230096Y10215524D01*
X-182477Y10310762D01*
X-87239Y10406000D01*
X55619Y10453620D01*
X150857Y10453620D01*
X293714Y10406000D01*
X341333Y10358381D01*
X674666Y10453620D02*
X1293714Y10453620D01*
X960380Y10072667D01*
X1103238Y10072667D01*
X1198476Y10025048D01*
X1246095Y9977429D01*
X1293714Y9882191D01*
X1293714Y9644096D01*
X1246095Y9548858D01*
X1198476Y9501239D01*
X1103238Y9453620D01*
X817523Y9453620D01*
X722285Y9501239D01*
X674666Y9548858D01*
X-11761905Y10547620D02*
X-11761905Y9738096D01*
X-11714286Y9642858D01*
X-11666667Y9595239D01*
X-11571429Y9547620D01*
X-11380953Y9547620D01*
X-11285715Y9595239D01*
X-11238096Y9642858D01*
X-11190477Y9738096D01*
X-11190477Y10547620D01*
X-10238096Y10547620D02*
X-10714286Y10547620D01*
X-10761905Y10071429D01*
X-10714286Y10119048D01*
X-10619048Y10166667D01*
X-10380953Y10166667D01*
X-10285715Y10119048D01*
X-10238096Y10071429D01*
X-10190477Y9976191D01*
X-10190477Y9738096D01*
X-10238096Y9642858D01*
X-10285715Y9595239D01*
X-10380953Y9547620D01*
X-10619048Y9547620D01*
X-10714286Y9595239D01*
X-10761905Y9642858D01*
X1214380Y19137334D02*
X738190Y18804000D01*
X1214380Y18565905D02*
X214380Y18565905D01*
X214380Y18946858D01*
X262000Y19042096D01*
X309619Y19089715D01*
X404857Y19137334D01*
X547714Y19137334D01*
X642952Y19089715D01*
X690571Y19042096D01*
X738190Y18946858D01*
X738190Y18565905D01*
X642952Y19708762D02*
X595333Y19613524D01*
X547714Y19565905D01*
X452476Y19518286D01*
X404857Y19518286D01*
X309619Y19565905D01*
X262000Y19613524D01*
X214380Y19708762D01*
X214380Y19899239D01*
X262000Y19994477D01*
X309619Y20042096D01*
X404857Y20089715D01*
X452476Y20089715D01*
X547714Y20042096D01*
X595333Y19994477D01*
X642952Y19899239D01*
X642952Y19708762D01*
X690571Y19613524D01*
X738190Y19565905D01*
X833428Y19518286D01*
X1023904Y19518286D01*
X1119142Y19565905D01*
X1166761Y19613524D01*
X1214380Y19708762D01*
X1214380Y19899239D01*
X1166761Y19994477D01*
X1119142Y20042096D01*
X1023904Y20089715D01*
X833428Y20089715D01*
X738190Y20042096D01*
X690571Y19994477D01*
X642952Y19899239D01*
G36*
X-19522271Y-26345194D02*
G01*
X-19451026Y-26409126D01*
X-19442651Y-26475216D01*
X-19471310Y-26576116D01*
X-19583189Y-26616828D01*
X-19698847Y-26621614D01*
X-19875423Y-26605237D01*
X-19946669Y-26541306D01*
X-19955043Y-26475216D01*
X-19926385Y-26374315D01*
X-19814505Y-26333604D01*
X-19698847Y-26328818D01*
X-19522271Y-26345194D01*
G37*
G36*
X-22740784Y-27086530D02*
G01*
X-22662201Y-26980813D01*
X-22630128Y-26947681D01*
X-22395948Y-26797275D01*
X-22149851Y-26772121D01*
X-21922634Y-26857439D01*
X-21745091Y-27038454D01*
X-21648017Y-27300387D01*
X-21638617Y-27423474D01*
X-21638617Y-27719596D01*
X-22297406Y-27719596D01*
X-22297406Y-28012392D01*
X-22281172Y-28195741D01*
X-22240616Y-28297721D01*
X-22224207Y-28305187D01*
X-22172812Y-28241580D01*
X-22151014Y-28088323D01*
X-22151008Y-28085590D01*
X-22136727Y-27938052D01*
X-22064285Y-27877538D01*
X-21894812Y-27865994D01*
X-21722481Y-27878553D01*
X-21651810Y-27940327D01*
X-21638617Y-28075719D01*
X-21699122Y-28348349D01*
X-21857403Y-28546162D01*
X-22078609Y-28654545D01*
X-22327890Y-28658883D01*
X-22570394Y-28544560D01*
X-22630128Y-28491511D01*
X-22720910Y-28385714D01*
X-22774836Y-28266220D01*
X-22801245Y-28092903D01*
X-22809477Y-27825640D01*
X-22809798Y-27719596D01*
X-22805243Y-27415798D01*
X-22791616Y-27280403D01*
X-22297406Y-27280403D01*
X-22266752Y-27399349D01*
X-22224207Y-27426801D01*
X-22164734Y-27365493D01*
X-22151008Y-27280403D01*
X-22181662Y-27161457D01*
X-22224207Y-27134005D01*
X-22283680Y-27195313D01*
X-22297406Y-27280403D01*
X-22791616Y-27280403D01*
X-22785351Y-27218151D01*
X-22740784Y-27086530D01*
G37*
G36*
X463251Y-27086530D02*
G01*
X541833Y-26980813D01*
X573906Y-26947681D01*
X808087Y-26797275D01*
X1054183Y-26772121D01*
X1281401Y-26857439D01*
X1458944Y-27038454D01*
X1556018Y-27300387D01*
X1565418Y-27423474D01*
X1565418Y-27719596D01*
X906628Y-27719596D01*
X906628Y-28012392D01*
X922863Y-28195741D01*
X963419Y-28297721D01*
X979827Y-28305187D01*
X1031223Y-28241580D01*
X1053021Y-28088323D01*
X1053026Y-28085590D01*
X1067308Y-27938052D01*
X1139749Y-27877538D01*
X1309222Y-27865994D01*
X1481553Y-27878553D01*
X1552225Y-27940327D01*
X1565418Y-28075719D01*
X1504913Y-28348349D01*
X1346632Y-28546162D01*
X1125426Y-28654545D01*
X876145Y-28658883D01*
X633640Y-28544560D01*
X573906Y-28491511D01*
X483125Y-28385714D01*
X429199Y-28266220D01*
X402790Y-28092903D01*
X394558Y-27825640D01*
X394237Y-27719596D01*
X398792Y-27415798D01*
X412418Y-27280403D01*
X906628Y-27280403D01*
X937282Y-27399349D01*
X979827Y-27426801D01*
X1039300Y-27365493D01*
X1053026Y-27280403D01*
X1022372Y-27161457D01*
X979827Y-27134005D01*
X920354Y-27195313D01*
X906628Y-27280403D01*
X412418Y-27280403D01*
X418683Y-27218151D01*
X463251Y-27086530D01*
G37*
G36*
X-19442651Y-28671181D02*
G01*
X-19955043Y-28671181D01*
X-19955043Y-26768011D01*
X-19442651Y-26768011D01*
X-19442651Y-28671181D01*
G37*
G36*
X-10587855Y-27408501D02*
G01*
X-10535729Y-27780934D01*
X-10497376Y-28014906D01*
X-10470860Y-28117508D01*
X-10454244Y-28095830D01*
X-10445592Y-27956964D01*
X-10444972Y-27931631D01*
X-10433879Y-27710231D01*
X-10411451Y-27419942D01*
X-10392166Y-27217942D01*
X-10345139Y-26768011D01*
X-10097976Y-26768011D01*
X-9932699Y-26780145D01*
X-9876367Y-26835524D01*
X-9885624Y-26932709D01*
X-9907796Y-27071427D01*
X-9940515Y-27317665D01*
X-9978910Y-27633357D01*
X-10008899Y-27896376D01*
X-10062958Y-28314986D01*
X-10126215Y-28608712D01*
X-10212460Y-28798995D01*
X-10335478Y-28907276D01*
X-10509057Y-28954996D01*
X-10695389Y-28963977D01*
X-10901234Y-28954398D01*
X-10998573Y-28914623D01*
X-11024658Y-28828096D01*
X-11024784Y-28817579D01*
X-10973024Y-28695241D01*
X-10878386Y-28671181D01*
X-10759239Y-28658249D01*
X-10731988Y-28640441D01*
X-10747880Y-28560409D01*
X-10790163Y-28372333D01*
X-10850751Y-28110451D01*
X-10921555Y-27808998D01*
X-10994488Y-27502213D01*
X-11061462Y-27224330D01*
X-11114390Y-27009587D01*
X-11144045Y-26896109D01*
X-11142700Y-26808815D01*
X-11048455Y-26772839D01*
X-10927479Y-26768011D01*
X-10673911Y-26768011D01*
X-10587855Y-27408501D01*
G37*
G36*
X3739661Y-26336888D02*
G01*
X3813300Y-26388578D01*
X3833653Y-26525110D01*
X3834582Y-26636253D01*
X3843384Y-26822951D01*
X3875124Y-26884019D01*
X3922421Y-26855850D01*
X4092917Y-26776349D01*
X4299094Y-26793284D01*
X4451544Y-26883038D01*
X4504068Y-26966621D01*
X4538578Y-27109431D01*
X4558192Y-27337277D01*
X4566030Y-27675966D01*
X4566571Y-27834623D01*
X4566571Y-28671181D01*
X4054179Y-28671181D01*
X4054179Y-27902593D01*
X4050813Y-27551614D01*
X4038463Y-27323292D01*
X4013755Y-27193995D01*
X3973311Y-27140089D01*
X3944381Y-27134005D01*
X3894241Y-27157569D01*
X3861623Y-27244013D01*
X3843152Y-27416972D01*
X3835451Y-27700078D01*
X3834582Y-27902593D01*
X3834582Y-28671181D01*
X3322190Y-28671181D01*
X3322190Y-26328818D01*
X3578386Y-26328818D01*
X3739661Y-26336888D01*
G37*
G36*
X-19116238Y-27094472D02*
G01*
X-19058616Y-26915322D01*
X-19034829Y-26883038D01*
X-18855239Y-26785549D01*
X-18649715Y-26781329D01*
X-18505706Y-26855850D01*
X-18433174Y-26906776D01*
X-18417867Y-26855850D01*
X-18352084Y-26794680D01*
X-18181364Y-26768222D01*
X-18161671Y-26768011D01*
X-17905475Y-26768011D01*
X-17905475Y-27750883D01*
X-17906354Y-28147033D01*
X-17912012Y-28423463D01*
X-17926986Y-28606847D01*
X-17955809Y-28723864D01*
X-18003017Y-28801188D01*
X-18073144Y-28865497D01*
X-18098344Y-28885465D01*
X-18343276Y-29005652D01*
X-18621500Y-29036269D01*
X-18876921Y-28976986D01*
X-19003458Y-28890778D01*
X-19134823Y-28716040D01*
X-19132215Y-28594190D01*
X-18997591Y-28531755D01*
X-18893660Y-28524784D01*
X-18724322Y-28543169D01*
X-18639677Y-28588376D01*
X-18637464Y-28597982D01*
X-18578176Y-28662923D01*
X-18527666Y-28671181D01*
X-18439834Y-28606791D01*
X-18417867Y-28473544D01*
X-18431152Y-28343787D01*
X-18480443Y-28341092D01*
X-18505706Y-28363746D01*
X-18676202Y-28443246D01*
X-18882379Y-28426312D01*
X-19034829Y-28336558D01*
X-19100380Y-28194144D01*
X-19141296Y-27953073D01*
X-19157578Y-27659002D01*
X-19156214Y-27609798D01*
X-18637464Y-27609798D01*
X-18630134Y-27876677D01*
X-18603941Y-28025010D01*
X-18552584Y-28082107D01*
X-18527666Y-28085590D01*
X-18466078Y-28053826D01*
X-18431847Y-27940326D01*
X-18418671Y-27717779D01*
X-18417867Y-27609798D01*
X-18425197Y-27342919D01*
X-18451390Y-27194586D01*
X-18502747Y-27137489D01*
X-18527666Y-27134005D01*
X-18589253Y-27165770D01*
X-18623484Y-27279270D01*
X-18636660Y-27501817D01*
X-18637464Y-27609798D01*
X-19156214Y-27609798D01*
X-19149225Y-27357583D01*
X-19116238Y-27094472D01*
G37*
G36*
X-23899801Y-26341701D02*
G01*
X-23627709Y-26362748D01*
X-23434026Y-26404883D01*
X-23305440Y-26490124D01*
X-23228640Y-26640486D01*
X-23190316Y-26877987D01*
X-23177158Y-27224642D01*
X-23175792Y-27539245D01*
X-23180071Y-27968474D01*
X-23202454Y-28272790D01*
X-23257257Y-28473629D01*
X-23358799Y-28592428D01*
X-23521397Y-28650622D01*
X-23759369Y-28669646D01*
X-23931844Y-28671181D01*
X-24420173Y-28671181D01*
X-24420173Y-27500000D01*
X-23907781Y-27500000D01*
X-23903730Y-27872236D01*
X-23890207Y-28115969D01*
X-23865151Y-28248905D01*
X-23826504Y-28288751D01*
X-23816282Y-28286887D01*
X-23770619Y-28219259D01*
X-23741422Y-28043095D01*
X-23727019Y-27744021D01*
X-23724784Y-27500000D01*
X-23731123Y-27120403D01*
X-23751256Y-26872328D01*
X-23786854Y-26741401D01*
X-23816282Y-26713112D01*
X-23858102Y-26735355D01*
X-23885890Y-26846904D01*
X-23901706Y-27065463D01*
X-23907608Y-27408741D01*
X-23907781Y-27500000D01*
X-24420173Y-27500000D01*
X-24420173Y-26312298D01*
X-23899801Y-26341701D01*
G37*
G36*
X-8259210Y-27798713D02*
G01*
X-8135637Y-27706292D01*
X-7987032Y-27630860D01*
X-7773130Y-27507040D01*
X-7673850Y-27389653D01*
X-7657637Y-27302417D01*
X-7698569Y-27166224D01*
X-7767435Y-27134005D01*
X-7855743Y-27197637D01*
X-7877233Y-27317003D01*
X-7900868Y-27447785D01*
X-8001336Y-27495629D01*
X-8096830Y-27500000D01*
X-8252504Y-27481693D01*
X-8309854Y-27396532D01*
X-8316426Y-27285716D01*
X-8252335Y-27064633D01*
X-8086680Y-26895598D01*
X-7859389Y-26793077D01*
X-7610391Y-26771540D01*
X-7379614Y-26845451D01*
X-7291642Y-26914409D01*
X-7226244Y-26996147D01*
X-7183577Y-27104959D01*
X-7158970Y-27271207D01*
X-7147754Y-27525253D01*
X-7145245Y-27865994D01*
X-7145245Y-28671181D01*
X-7401441Y-28671181D01*
X-7579852Y-28648627D01*
X-7657022Y-28590094D01*
X-7657637Y-28583343D01*
X-7679242Y-28532417D01*
X-7745475Y-28583343D01*
X-7918476Y-28665690D01*
X-8111980Y-28623851D01*
X-8201400Y-28556154D01*
X-8282953Y-28392368D01*
X-8316248Y-28137575D01*
X-8316426Y-28116010D01*
X-8315453Y-28093422D01*
X-7877233Y-28093422D01*
X-7843486Y-28261984D01*
X-7767435Y-28305187D01*
X-7685886Y-28249094D01*
X-7657775Y-28070611D01*
X-7657637Y-28051288D01*
X-7672269Y-27881713D01*
X-7725212Y-27830255D01*
X-7767435Y-27839523D01*
X-7849365Y-27938795D01*
X-7877233Y-28093422D01*
X-8315453Y-28093422D01*
X-8307906Y-27918249D01*
X-8259210Y-27798713D01*
G37*
G36*
X-3507025Y-26336888D02*
G01*
X-3433386Y-26388578D01*
X-3413033Y-26525110D01*
X-3412104Y-26636253D01*
X-3403302Y-26822951D01*
X-3371561Y-26884019D01*
X-3324265Y-26855850D01*
X-3153769Y-26776349D01*
X-2947592Y-26793284D01*
X-2795142Y-26883038D01*
X-2742617Y-26966621D01*
X-2708108Y-27109431D01*
X-2688494Y-27337277D01*
X-2680655Y-27675966D01*
X-2680115Y-27834623D01*
X-2680115Y-28671181D01*
X-3192507Y-28671181D01*
X-3192507Y-27902593D01*
X-3195873Y-27551614D01*
X-3208222Y-27323292D01*
X-3232931Y-27193995D01*
X-3273375Y-27140089D01*
X-3302305Y-27134005D01*
X-3352445Y-27157569D01*
X-3385063Y-27244013D01*
X-3403534Y-27416972D01*
X-3411235Y-27700078D01*
X-3412104Y-27902593D01*
X-3412104Y-28671181D01*
X-3924495Y-28671181D01*
X-3924495Y-26328818D01*
X-3668300Y-26328818D01*
X-3507025Y-26336888D01*
G37*
G36*
X-14597570Y-27253168D02*
G01*
X-14556347Y-27014970D01*
X-14496500Y-26883038D01*
X-14314061Y-26777645D01*
X-14098738Y-26807164D01*
X-14021124Y-26843785D01*
X-13931132Y-26877723D01*
X-13890335Y-26830428D01*
X-13879715Y-26672403D01*
X-13879539Y-26624189D01*
X-13871977Y-26435646D01*
X-13824989Y-26351442D01*
X-13702120Y-26329545D01*
X-13623343Y-26328818D01*
X-13367147Y-26328818D01*
X-13367147Y-28671181D01*
X-13623343Y-28671181D01*
X-13792671Y-28652152D01*
X-13877322Y-28605359D01*
X-13879539Y-28595407D01*
X-13924347Y-28557021D01*
X-14021124Y-28595407D01*
X-14251326Y-28666728D01*
X-14441639Y-28603714D01*
X-14496500Y-28556154D01*
X-14557673Y-28419192D01*
X-14598366Y-28178841D01*
X-14618580Y-27876674D01*
X-14618451Y-27719596D01*
X-14099135Y-27719596D01*
X-14093964Y-28020058D01*
X-14075200Y-28200376D01*
X-14037969Y-28286545D01*
X-13989337Y-28305187D01*
X-13933000Y-28277605D01*
X-13899191Y-28177531D01*
X-13883034Y-27978969D01*
X-13879539Y-27719596D01*
X-13884710Y-27419135D01*
X-13903474Y-27238816D01*
X-13940705Y-27152647D01*
X-13989337Y-27134005D01*
X-14045674Y-27161587D01*
X-14079483Y-27261661D01*
X-14095640Y-27460223D01*
X-14099135Y-27719596D01*
X-14618451Y-27719596D01*
X-14618315Y-27554259D01*
X-14597570Y-27253168D01*
G37*
G36*
X174640Y-26548415D02*
G01*
X154944Y-26705354D01*
X71221Y-26762767D01*
X-8357Y-26768011D01*
X-191354Y-26768011D01*
X-191354Y-28671181D01*
X-703746Y-28671181D01*
X-703746Y-26768011D01*
X-886743Y-26768011D01*
X-1017526Y-26744377D01*
X-1065370Y-26643909D01*
X-1069740Y-26548415D01*
X-1069740Y-26328818D01*
X174640Y-26328818D01*
X174640Y-26548415D01*
G37*
G36*
X-4949279Y-27536599D02*
G01*
X-4945913Y-27887578D01*
X-4933564Y-28115900D01*
X-4908856Y-28245198D01*
X-4868412Y-28299104D01*
X-4839481Y-28305187D01*
X-4789341Y-28281624D01*
X-4756724Y-28195179D01*
X-4738253Y-28022220D01*
X-4730552Y-27739114D01*
X-4729683Y-27536599D01*
X-4729683Y-26768011D01*
X-4217291Y-26768011D01*
X-4217291Y-28671181D01*
X-4473487Y-28671181D01*
X-4651898Y-28648627D01*
X-4729068Y-28590094D01*
X-4729683Y-28583343D01*
X-4751288Y-28532417D01*
X-4817521Y-28583343D01*
X-4988017Y-28662843D01*
X-5194195Y-28645908D01*
X-5346645Y-28556154D01*
X-5399169Y-28472572D01*
X-5433678Y-28329762D01*
X-5453292Y-28101916D01*
X-5461131Y-27763227D01*
X-5461671Y-27604569D01*
X-5461671Y-26768011D01*
X-4949279Y-26768011D01*
X-4949279Y-27536599D01*
G37*
G36*
X-17187156Y-26787041D02*
G01*
X-17102504Y-26833833D01*
X-17100288Y-26843785D01*
X-17055480Y-26882172D01*
X-16958702Y-26843785D01*
X-16728501Y-26772465D01*
X-16538187Y-26835478D01*
X-16483326Y-26883038D01*
X-16430802Y-26966621D01*
X-16396292Y-27109431D01*
X-16376678Y-27337277D01*
X-16368840Y-27675966D01*
X-16368300Y-27834623D01*
X-16368300Y-28671181D01*
X-16880691Y-28671181D01*
X-16880691Y-27902593D01*
X-16884058Y-27551614D01*
X-16896407Y-27323292D01*
X-16921115Y-27193995D01*
X-16961559Y-27140089D01*
X-16990490Y-27134005D01*
X-17040630Y-27157569D01*
X-17073247Y-27244013D01*
X-17091718Y-27416972D01*
X-17099419Y-27700078D01*
X-17100288Y-27902593D01*
X-17100288Y-28671181D01*
X-17612680Y-28671181D01*
X-17612680Y-26768011D01*
X-17356484Y-26768011D01*
X-17187156Y-26787041D01*
G37*
G36*
X-16006490Y-27086530D02*
G01*
X-15927907Y-26980813D01*
X-15895834Y-26947681D01*
X-15661654Y-26797275D01*
X-15415557Y-26772121D01*
X-15188340Y-26857439D01*
X-15010797Y-27038454D01*
X-14913723Y-27300387D01*
X-14904323Y-27423474D01*
X-14904323Y-27719596D01*
X-15563112Y-27719596D01*
X-15563112Y-28012392D01*
X-15546878Y-28195741D01*
X-15506322Y-28297721D01*
X-15489913Y-28305187D01*
X-15438518Y-28241580D01*
X-15416720Y-28088323D01*
X-15416715Y-28085590D01*
X-15402433Y-27938052D01*
X-15329992Y-27877538D01*
X-15160519Y-27865994D01*
X-14988188Y-27878553D01*
X-14917516Y-27940327D01*
X-14904323Y-28075719D01*
X-14964828Y-28348349D01*
X-15123109Y-28546162D01*
X-15344315Y-28654545D01*
X-15593596Y-28658883D01*
X-15836100Y-28544560D01*
X-15895834Y-28491511D01*
X-15986616Y-28385714D01*
X-16040542Y-28266220D01*
X-16066951Y-28092903D01*
X-16075183Y-27825640D01*
X-16075504Y-27719596D01*
X-16070949Y-27415798D01*
X-16057322Y-27280403D01*
X-15563112Y-27280403D01*
X-15532458Y-27399349D01*
X-15489913Y-27426801D01*
X-15430440Y-27365493D01*
X-15416715Y-27280403D01*
X-15447368Y-27161457D01*
X-15489913Y-27134005D01*
X-15549386Y-27195313D01*
X-15563112Y-27280403D01*
X-16057322Y-27280403D01*
X-16051057Y-27218151D01*
X-16006490Y-27086530D01*
G37*
G36*
X-2365792Y-27236471D02*
G01*
X-2326033Y-27101763D01*
X-2255522Y-26998195D01*
X-2207650Y-26947681D01*
X-1965777Y-26795723D01*
X-1702327Y-26778963D01*
X-1451881Y-26897402D01*
X-1395808Y-26947681D01*
X-1305026Y-27053478D01*
X-1251101Y-27172973D01*
X-1224691Y-27346290D01*
X-1216459Y-27613553D01*
X-1216138Y-27719596D01*
X-1220693Y-28023394D01*
X-1240585Y-28221042D01*
X-1285153Y-28352662D01*
X-1363735Y-28458379D01*
X-1395808Y-28491511D01*
X-1625655Y-28634302D01*
X-1890729Y-28671744D01*
X-2138660Y-28601776D01*
X-2240922Y-28524784D01*
X-2314629Y-28428708D01*
X-2359038Y-28297737D01*
X-2380981Y-28095857D01*
X-2387286Y-27787056D01*
X-2387320Y-27752868D01*
X-2386899Y-27719596D01*
X-1874928Y-27719596D01*
X-1866367Y-28009595D01*
X-1842995Y-28213383D01*
X-1808277Y-28303235D01*
X-1801729Y-28305187D01*
X-1765479Y-28236700D01*
X-1740006Y-28049724D01*
X-1728774Y-27771982D01*
X-1728530Y-27719596D01*
X-1737091Y-27429597D01*
X-1760463Y-27225809D01*
X-1795181Y-27135957D01*
X-1801729Y-27134005D01*
X-1837979Y-27202492D01*
X-1863452Y-27389469D01*
X-1874684Y-27667210D01*
X-1874928Y-27719596D01*
X-2386899Y-27719596D01*
X-2383366Y-27440710D01*
X-2365792Y-27236471D01*
G37*
G36*
X-8762041Y-26564791D02*
G01*
X-8690795Y-26628722D01*
X-8682421Y-26694812D01*
X-8636651Y-26814038D01*
X-8572622Y-26841210D01*
X-8483203Y-26902236D01*
X-8462824Y-26987608D01*
X-8508593Y-27106833D01*
X-8572622Y-27134005D01*
X-8627516Y-27160569D01*
X-8661112Y-27257262D01*
X-8677913Y-27449591D01*
X-8682421Y-27756196D01*
X-8677733Y-28067258D01*
X-8660669Y-28257639D01*
X-8626729Y-28352844D01*
X-8572622Y-28378386D01*
X-8483203Y-28439411D01*
X-8462824Y-28524784D01*
X-8488858Y-28622496D01*
X-8592751Y-28664286D01*
X-8740980Y-28671181D01*
X-8945925Y-28649330D01*
X-9092097Y-28595531D01*
X-9106974Y-28583343D01*
X-9153912Y-28458302D01*
X-9183785Y-28203441D01*
X-9194790Y-27834539D01*
X-9194812Y-27814755D01*
X-9202260Y-27491649D01*
X-9222947Y-27260200D01*
X-9254392Y-27143490D01*
X-9268011Y-27134005D01*
X-9327484Y-27072698D01*
X-9341210Y-26987608D01*
X-9310556Y-26868662D01*
X-9268011Y-26841210D01*
X-9208538Y-26779902D01*
X-9194812Y-26694812D01*
X-9166154Y-26593912D01*
X-9054274Y-26553200D01*
X-8938617Y-26548415D01*
X-8762041Y-26564791D01*
G37*
G36*
X2683384Y-26829920D02*
G01*
X2882534Y-26986296D01*
X3008267Y-27193108D01*
X3029395Y-27313675D01*
X3006405Y-27446677D01*
X2907659Y-27495394D01*
X2809798Y-27500000D01*
X2652859Y-27480304D01*
X2595446Y-27396581D01*
X2590202Y-27317003D01*
X2551173Y-27168693D01*
X2477325Y-27134005D01*
X2419973Y-27157317D01*
X2388839Y-27245749D01*
X2379400Y-27427051D01*
X2385826Y-27695422D01*
X2410735Y-28030296D01*
X2454218Y-28229733D01*
X2498703Y-28287113D01*
X2568373Y-28249130D01*
X2590202Y-28091690D01*
X2607122Y-27933307D01*
X2687960Y-27873736D01*
X2809798Y-27865994D01*
X2964549Y-27883718D01*
X3022229Y-27967910D01*
X3029395Y-28088918D01*
X2963062Y-28339291D01*
X2791234Y-28542631D01*
X2554672Y-28658410D01*
X2443804Y-28671181D01*
X2186894Y-28602754D01*
X2037883Y-28491511D01*
X1949011Y-28388686D01*
X1895343Y-28273180D01*
X1868198Y-28106339D01*
X1858894Y-27849511D01*
X1858213Y-27691637D01*
X1861332Y-27385783D01*
X1876818Y-27189486D01*
X1913869Y-27065943D01*
X1981679Y-26978346D01*
X2051082Y-26919722D01*
X2253352Y-26811287D01*
X2457003Y-26768011D01*
X2683384Y-26829920D01*
G37*
G36*
X-12305763Y-26328818D02*
G01*
X-12141850Y-26337647D01*
X-12068919Y-26392242D01*
X-12050154Y-26534768D01*
X-12049568Y-26622234D01*
X-12043440Y-26805107D01*
X-12011997Y-26869700D01*
X-11935653Y-26844018D01*
X-11906732Y-26826447D01*
X-11720404Y-26774752D01*
X-11559037Y-26809144D01*
X-11354178Y-26881043D01*
X-11333480Y-27658686D01*
X-11327823Y-28023390D01*
X-11335950Y-28270484D01*
X-11360927Y-28428368D01*
X-11405824Y-28525436D01*
X-11430207Y-28553755D01*
X-11624404Y-28660617D01*
X-11829813Y-28631967D01*
X-11934541Y-28556154D01*
X-12022262Y-28479917D01*
X-12048301Y-28512496D01*
X-12049568Y-28556154D01*
X-12098646Y-28639736D01*
X-12261171Y-28670467D01*
X-12305763Y-28671181D01*
X-12561959Y-28671181D01*
X-12561959Y-27719596D01*
X-12049568Y-27719596D01*
X-12044396Y-28020058D01*
X-12025632Y-28200376D01*
X-11988402Y-28286545D01*
X-11939769Y-28305187D01*
X-11883433Y-28277605D01*
X-11849623Y-28177531D01*
X-11833466Y-27978969D01*
X-11829971Y-27719596D01*
X-11835143Y-27419135D01*
X-11853906Y-27238816D01*
X-11891137Y-27152647D01*
X-11939769Y-27134005D01*
X-11996106Y-27161587D01*
X-12029915Y-27261661D01*
X-12046072Y-27460223D01*
X-12049568Y-27719596D01*
X-12561959Y-27719596D01*
X-12561959Y-26328818D01*
X-12305763Y-26328818D01*
G37*
G36*
X-6334667Y-26859510D02*
G01*
X-6329277Y-27390201D01*
X-6209742Y-27079106D01*
X-6123101Y-26885056D01*
X-6032505Y-26794147D01*
X-5894303Y-26768610D01*
X-5850206Y-26768011D01*
X-5610205Y-26768011D01*
X-5760725Y-27149884D01*
X-5821981Y-27309951D01*
X-5858745Y-27441923D01*
X-5868292Y-27575962D01*
X-5847896Y-27742229D01*
X-5794830Y-27970885D01*
X-5706368Y-28292091D01*
X-5634796Y-28543083D01*
X-5636880Y-28631245D01*
X-5733437Y-28666902D01*
X-5844885Y-28671181D01*
X-5984406Y-28662881D01*
X-6071308Y-28615623D01*
X-6134583Y-28495869D01*
X-6203225Y-28270081D01*
X-6208743Y-28250288D01*
X-6325920Y-27829394D01*
X-6332989Y-28250288D01*
X-6340057Y-28671181D01*
X-6852449Y-28671181D01*
X-6852449Y-26328818D01*
X-6340057Y-26328818D01*
X-6334667Y-26859510D01*
G37*
G36*
X-20685610Y-26780772D02*
G01*
X-20461013Y-26871237D01*
X-20302672Y-27036341D01*
X-20247838Y-27243804D01*
X-20278071Y-27383102D01*
X-20397112Y-27426028D01*
X-20430836Y-27426801D01*
X-20574335Y-27392489D01*
X-20613833Y-27280403D01*
X-20659602Y-27161178D01*
X-20723631Y-27134005D01*
X-20820467Y-27180058D01*
X-20824680Y-27294177D01*
X-20746559Y-27440307D01*
X-20596389Y-27582388D01*
X-20595533Y-27582987D01*
X-20396000Y-27734423D01*
X-20292295Y-27861729D01*
X-20253681Y-28014351D01*
X-20248959Y-28140490D01*
X-20310266Y-28406460D01*
X-20482819Y-28589637D01*
X-20745325Y-28669392D01*
X-20796830Y-28671181D01*
X-21057510Y-28618449D01*
X-21199423Y-28524784D01*
X-21310168Y-28350401D01*
X-21345821Y-28195389D01*
X-21315588Y-28056090D01*
X-21196548Y-28013164D01*
X-21162824Y-28012392D01*
X-21019325Y-28046703D01*
X-20979827Y-28158789D01*
X-20934058Y-28278015D01*
X-20870029Y-28305187D01*
X-20771066Y-28260620D01*
X-20770400Y-28145624D01*
X-20858010Y-27988257D01*
X-21023877Y-27816576D01*
X-21053026Y-27792795D01*
X-21233720Y-27632450D01*
X-21320608Y-27491491D01*
X-21345474Y-27314078D01*
X-21345821Y-27278403D01*
X-21315066Y-27047615D01*
X-21208675Y-26901091D01*
X-21183136Y-26881960D01*
X-20938854Y-26779496D01*
X-20685610Y-26780772D01*
G37*
D11*
X-17972000Y22336000D02*
X-16572000Y22336000D01*
X-18672000Y21036000D02*
X-18672000Y21636000D01*
X-15872000Y21636000D02*
X-15872000Y21036000D01*
X-16572000Y20336000D02*
X-17972000Y20336000D01*
X-17972000Y22336000D02*
G75*
G03*
X-18672000Y21636000I-1J-699999D01*
G01*
X-15872000Y21636000D02*
G75*
G03*
X-16572000Y22336000I-700000J0D01*
G01*
X-16572000Y20336000D02*
G75*
G03*
X-15872000Y21036000I0J700000D01*
G01*
X-18672000Y21036000D02*
G75*
G03*
X-17972000Y20336000I699999J-1D01*
G01*
X-3572742Y21350500D02*
X-4047258Y21350500D01*
X-3572742Y20305500D02*
X-4047258Y20305500D01*
X-27940000Y-6290000D02*
X-26610000Y-6290000D01*
X-29270000Y-8890000D02*
X-26610000Y-8890000D01*
X-26610000Y-6290000D02*
X-26610000Y-7620000D01*
X-29270000Y-8890000D02*
X-29270000Y-24190000D01*
X-29270000Y-24190000D02*
X-26610000Y-24190000D01*
X-26610000Y-8890000D02*
X-26610000Y-24190000D01*
X9299843Y17791629D02*
X9017000Y17508786D01*
X7885629Y19205843D02*
X7602786Y18923000D01*
X10431214Y18923000D02*
X10148371Y18640157D01*
X11204000Y13884000D02*
X11204000Y9484000D01*
X14704000Y9484000D02*
X14704000Y13884000D01*
X13004000Y13884000D02*
X12904000Y13884000D01*
X13004000Y9484000D02*
X12904000Y9484000D01*
X-13388748Y24665000D02*
X-13911252Y24665000D01*
X-13388748Y26135000D02*
X-13911252Y26135000D01*
X16662742Y16241500D02*
X17137258Y16241500D01*
X16662742Y17286500D02*
X17137258Y17286500D01*
X-1116420Y19560000D02*
X-1397580Y19560000D01*
X-1116420Y18540000D02*
X-1397580Y18540000D01*
X-17034742Y23353500D02*
X-17509258Y23353500D01*
X-17034742Y24398500D02*
X-17509258Y24398500D01*
X-10110000Y18628000D02*
X-10210000Y18628000D01*
X-8410000Y18628000D02*
X-8410000Y23028000D01*
X-11910000Y23028000D02*
X-11910000Y18628000D01*
X-10110000Y23028000D02*
X-10210000Y23028000D01*
X13348580Y18798000D02*
X13067420Y18798000D01*
X13348580Y17778000D02*
X13067420Y17778000D01*
X-2032000Y15458000D02*
X-232000Y15458000D01*
X-2032000Y18578000D02*
X-1232000Y18578000D01*
X-2032000Y18578000D02*
X-2832000Y18578000D01*
X-2032000Y15458000D02*
X-2832000Y15458000D01*
X-13766000Y23028000D02*
X-13666000Y23028000D01*
X-15466000Y23028000D02*
X-15466000Y18628000D01*
X-11966000Y18628000D02*
X-11966000Y23028000D01*
X-13766000Y18628000D02*
X-13666000Y18628000D01*
X13348580Y17274000D02*
X13067420Y17274000D01*
X13348580Y16254000D02*
X13067420Y16254000D01*
X6463420Y10670000D02*
X6744580Y10670000D01*
X6463420Y9650000D02*
X6744580Y9650000D01*
X18514000Y9484000D02*
X18514000Y13884000D01*
X16814000Y13884000D02*
X16714000Y13884000D01*
X16814000Y9484000D02*
X16714000Y9484000D01*
X15014000Y13884000D02*
X15014000Y9484000D01*
X-10421252Y24665000D02*
X-9898748Y24665000D01*
X-10421252Y26135000D02*
X-9898748Y26135000D01*
X3318742Y9637500D02*
X3793258Y9637500D01*
X3318742Y10682500D02*
X3793258Y10682500D01*
X-6631000Y2247000D02*
X-8101000Y2247000D01*
X-6631000Y-38000D02*
X-6631000Y2247000D01*
X-8101000Y2247000D02*
X-8101000Y-38000D01*
X10790000Y27673000D02*
X10855000Y27673000D01*
X4385000Y27673000D02*
X4450000Y27673000D01*
X4450000Y22818000D02*
X4450000Y24143000D01*
X10855000Y24143000D02*
X10855000Y27673000D01*
X10790000Y24143000D02*
X10855000Y24143000D01*
X4385000Y24143000D02*
X4450000Y24143000D01*
X4385000Y24143000D02*
X4385000Y27673000D01*
X12257000Y25075000D02*
G75*
G03*
X12257000Y25075000I-700000J0D01*
G01*
X6763789Y21709038D02*
X6564978Y21510227D01*
X7485038Y20987789D02*
X7286227Y20788978D01*
X2977289Y21268082D02*
X1845918Y20136711D01*
X3118711Y18863918D02*
X4462214Y20207421D01*
X-9511420Y1014000D02*
X-9792580Y1014000D01*
X-9511420Y2034000D02*
X-9792580Y2034000D01*
D12*
X10861000Y11238000D02*
X7956000Y11238000D01*
X9856000Y12638000D02*
X8056000Y12638000D01*
D11*
X-6620742Y20305500D02*
X-7095258Y20305500D01*
X-6620742Y21350500D02*
X-7095258Y21350500D01*
X9889258Y14238500D02*
X9414742Y14238500D01*
X9889258Y13193500D02*
X9414742Y13193500D01*
X10430742Y21321500D02*
X10905258Y21321500D01*
X10430742Y22366500D02*
X10905258Y22366500D01*
X-9889258Y522500D02*
X-9414742Y522500D01*
X-9889258Y-522500D02*
X-9414742Y-522500D01*
X29600000Y29100000D02*
X29600000Y19100000D01*
X29600000Y19100000D02*
X12200000Y19100000D01*
X12200000Y19100000D02*
X12200000Y29100000D01*
X12200000Y29100000D02*
X29600000Y29100000D01*
X16662742Y14717500D02*
X17137258Y14717500D01*
X16662742Y15762500D02*
X17137258Y15762500D01*
X-17972000Y19796000D02*
X-16572000Y19796000D01*
X-18672000Y18496000D02*
X-18672000Y19096000D01*
X-15872000Y19096000D02*
X-15872000Y18496000D01*
X-16572000Y17796000D02*
X-17972000Y17796000D01*
X-16572000Y17796000D02*
G75*
G03*
X-15872000Y18496000I0J700000D01*
G01*
X-18672000Y18496000D02*
G75*
G03*
X-17972000Y17796000I699999J-1D01*
G01*
X-17972000Y19796000D02*
G75*
G03*
X-18672000Y19096000I-1J-699999D01*
G01*
X-15872000Y19096000D02*
G75*
G03*
X-16572000Y19796000I-700000J0D01*
G01*
X-9839000Y-6845000D02*
X-9774000Y-6845000D01*
X-9839000Y-3315000D02*
X-9774000Y-3315000D01*
X-3434000Y-3315000D02*
X-3369000Y-3315000D01*
X-3369000Y-6845000D02*
X-3369000Y-3315000D01*
X-9839000Y-6845000D02*
X-9839000Y-3315000D01*
X-9774000Y-8170000D02*
X-9774000Y-6845000D01*
X-3434000Y-6845000D02*
X-3369000Y-6845000D01*
X9889258Y9637500D02*
X9414742Y9637500D01*
X9889258Y10682500D02*
X9414742Y10682500D01*
X-1507258Y15508500D02*
X-1032742Y15508500D01*
X-1507258Y14463500D02*
X-1032742Y14463500D01*
X6290000Y-26610000D02*
X7620000Y-26610000D01*
X8890000Y-29270000D02*
X24190000Y-29270000D01*
X24190000Y-29270000D02*
X24190000Y-26610000D01*
X8890000Y-29270000D02*
X8890000Y-26610000D01*
X6290000Y-27940000D02*
X6290000Y-26610000D01*
X8890000Y-26610000D02*
X24190000Y-26610000D01*
X9889258Y15762500D02*
X9414742Y15762500D01*
X9889258Y14717500D02*
X9414742Y14717500D01*
X6098000Y14337420D02*
X6098000Y14618580D01*
X5078000Y14337420D02*
X5078000Y14618580D01*
X-17034742Y25922500D02*
X-17509258Y25922500D01*
X-17034742Y24877500D02*
X-17509258Y24877500D01*
X-15466000Y1438000D02*
X-15466000Y-2962000D01*
X-13766000Y-2962000D02*
X-13666000Y-2962000D01*
X-11966000Y-2962000D02*
X-11966000Y1438000D01*
X-13766000Y1438000D02*
X-13666000Y1438000D01*
X-1732000Y5204000D02*
X-2332000Y5204000D01*
X-2332000Y8004000D02*
X-1732000Y8004000D01*
X-1032000Y7304000D02*
X-1032000Y5904000D01*
X-3032000Y5904000D02*
X-3032000Y7304000D01*
X-3032000Y5904000D02*
G75*
G03*
X-2332000Y5204000I699999J-1D01*
G01*
X-1732000Y5204000D02*
G75*
G03*
X-1032000Y5904000I1J699999D01*
G01*
X-1032000Y7304000D02*
G75*
G03*
X-1732000Y8004000I-700000J0D01*
G01*
X-2332000Y8004000D02*
G75*
G03*
X-3032000Y7304000I0J-700000D01*
G01*
X16662742Y17765500D02*
X17137258Y17765500D01*
X16662742Y18810500D02*
X17137258Y18810500D01*
X-6885000Y22314000D02*
X-6885000Y24599000D01*
X-8355000Y24599000D02*
X-8355000Y22314000D01*
X-6885000Y24599000D02*
X-8355000Y24599000D01*
D10*
X5110000Y18240000D02*
X5110000Y13170000D01*
X-30000Y17310000D02*
X-30000Y13170000D01*
D11*
X-6620742Y18937500D02*
X-7095258Y18937500D01*
X-6620742Y17892500D02*
X-7095258Y17892500D01*
D13*
X2946000Y25882000D02*
X2946000Y24292000D01*
X2946000Y29702000D02*
X2946000Y28322000D01*
X-5994000Y29702000D02*
X2946000Y29702000D01*
X-5994000Y29702000D02*
X-5994000Y28322000D01*
X-5994000Y25882000D02*
X-5994000Y24292000D01*
D11*
X648580Y10666000D02*
X367420Y10666000D01*
X648580Y11686000D02*
X367420Y11686000D01*
X-18100000Y2900000D02*
X-16200000Y2900000D01*
X-5800000Y2900000D02*
X-3900000Y2900000D01*
X-18100000Y4800000D02*
X-18100000Y2900000D01*
X-18100000Y15200000D02*
X-18100000Y17100000D01*
X-3900000Y15200000D02*
X-3900000Y17100000D01*
X-16200000Y2900000D02*
X-16200000Y2400000D01*
X-18100000Y17100000D02*
X-16200000Y17100000D01*
X-3900000Y17100000D02*
X-5800000Y17100000D01*
X-3900000Y2900000D02*
X-3900000Y4800000D01*
X524742Y21350500D02*
X999258Y21350500D01*
X524742Y20305500D02*
X999258Y20305500D01*
X-6290000Y27940000D02*
X-6290000Y26610000D01*
X-8890000Y29270000D02*
X-24190000Y29270000D01*
X-6290000Y26610000D02*
X-7620000Y26610000D01*
X-8890000Y29270000D02*
X-8890000Y26610000D01*
X-24190000Y29270000D02*
X-24190000Y26610000D01*
X-8890000Y26610000D02*
X-24190000Y26610000D01*
%LPC*%
D14*
X-17922000Y21336000D03*
D15*
X-16622000Y21336000D03*
D16*
X-27500000Y27500000D03*
D17*
X-2985000Y20828000D03*
X-4635000Y20828000D03*
D18*
X-27940000Y-7620000D03*
D19*
X-27940000Y-10160000D03*
X-27940000Y-12700000D03*
X-27940000Y-15240000D03*
X-27940000Y-17780000D03*
X-27940000Y-20320000D03*
X-27940000Y-22860000D03*
D20*
X8698802Y19524041D03*
X8415959Y19241198D03*
D21*
X8027051Y18781579D03*
X8309893Y18498736D03*
X8592736Y18215893D03*
X8875579Y17933051D03*
D20*
X9335198Y18321959D03*
X9618041Y18604802D03*
D21*
X10006949Y19064421D03*
X9724107Y19347264D03*
X9441264Y19630107D03*
X9158421Y19912949D03*
D22*
X11879000Y9609000D03*
X11879000Y13759000D03*
X14029000Y9609000D03*
X14029000Y13734000D03*
D23*
X-12700000Y25400000D03*
X-14600000Y25400000D03*
D24*
X16075000Y16764000D03*
X17725000Y16764000D03*
D25*
X-482000Y19050000D03*
X-2032000Y19050000D03*
D17*
X-16447000Y23876000D03*
X-18097000Y23876000D03*
D22*
X-11235000Y22903000D03*
X-11235000Y18753000D03*
X-9085000Y18753000D03*
X-9085000Y22878000D03*
D25*
X13983000Y18288000D03*
X12433000Y18288000D03*
D26*
X-894500Y16068000D03*
X-894500Y17018000D03*
X-894500Y17968000D03*
X-3169500Y17968000D03*
X-3169500Y16068000D03*
D22*
X-12641000Y22903000D03*
X-12641000Y18753000D03*
X-14791000Y22903000D03*
X-14791000Y18778000D03*
D25*
X13983000Y16764000D03*
X12433000Y16764000D03*
D27*
X5829000Y10160000D03*
X7379000Y10160000D03*
D22*
X15689000Y13759000D03*
X15689000Y9609000D03*
X17839000Y9609000D03*
X17839000Y13734000D03*
D28*
X-11110000Y25400000D03*
X-9210000Y25400000D03*
D24*
X2731000Y10160000D03*
X4381000Y10160000D03*
D29*
X-7366000Y1549500D03*
X-7366000Y-25500D03*
D30*
X5080000Y23958000D03*
X5080000Y27858000D03*
X6350000Y23958000D03*
X6350000Y27858000D03*
X7620000Y23958000D03*
X7620000Y27858000D03*
X8890000Y23958000D03*
X8890000Y27858000D03*
X10160000Y23958000D03*
X10160000Y27858000D03*
D31*
X11557000Y25075000D03*
D32*
X7573016Y21797016D03*
X6477000Y20701000D03*
D33*
X4029111Y20286971D03*
D34*
X3702074Y20720074D03*
D33*
X3268971Y21047111D03*
X2066889Y19845029D03*
D34*
X2393926Y19411926D03*
D33*
X2827029Y19084889D03*
D25*
X-8877000Y1524000D03*
X-10427000Y1524000D03*
D35*
X9906000Y11938000D03*
D36*
X8006000Y11938000D03*
D17*
X-6033000Y20828000D03*
X-7683000Y20828000D03*
D16*
X-27500000Y-27500000D03*
D17*
X10477000Y13716000D03*
X8827000Y13716000D03*
D24*
X9843000Y21844000D03*
X11493000Y21844000D03*
X-10477000Y0D03*
X-8827000Y0D03*
D37*
X12800000Y28500000D03*
D38*
X12775000Y27675000D03*
X12775000Y27025000D03*
X12775000Y26375000D03*
X12775000Y25725000D03*
X12775000Y25075000D03*
X12775000Y24425000D03*
X12775000Y23775000D03*
X12775000Y23125000D03*
X12775000Y22475000D03*
X12775000Y21825000D03*
X12775000Y21175000D03*
X12775000Y20525000D03*
D37*
X12800000Y19700000D03*
D39*
X13650000Y19675000D03*
X14300000Y19675000D03*
X14950000Y19675000D03*
X15600000Y19675000D03*
X16250000Y19675000D03*
X16900000Y19675000D03*
X17550000Y19675000D03*
X18200000Y19675000D03*
D40*
X19050000Y19700000D03*
D38*
X19075000Y20525000D03*
X19075000Y21175000D03*
X19075000Y21825000D03*
X19075000Y22475000D03*
X19075000Y23125000D03*
X19075000Y23775000D03*
X19075000Y24425000D03*
X19075000Y25075000D03*
X19075000Y25725000D03*
X19075000Y26375000D03*
X19075000Y27025000D03*
X19075000Y27675000D03*
D40*
X19050000Y28500000D03*
D39*
X18200000Y28525000D03*
X17550000Y28525000D03*
X16900000Y28525000D03*
X16250000Y28525000D03*
X15600000Y28525000D03*
X14950000Y28525000D03*
X14300000Y28525000D03*
X13650000Y28525000D03*
X20825000Y19675000D03*
X21625000Y19675000D03*
X22425000Y19675000D03*
X23225000Y19675000D03*
X24025000Y19675000D03*
X24825000Y19675000D03*
X25625000Y19675000D03*
X26425000Y19675000D03*
D41*
X27225000Y19675000D03*
D40*
X29000000Y19700000D03*
D42*
X29030000Y20900000D03*
X29030000Y21700000D03*
X29030000Y22500000D03*
X29030000Y23300000D03*
X29030000Y24100000D03*
X29030000Y24900000D03*
X29030000Y25700000D03*
X29030000Y26500000D03*
D38*
X29030000Y27300000D03*
D37*
X29000000Y28500000D03*
D41*
X27225000Y28525000D03*
X26425000Y28525000D03*
X25625000Y28525000D03*
X24825000Y28525000D03*
X24025000Y28525000D03*
X23225000Y28525000D03*
X22425000Y28525000D03*
X21625000Y28525000D03*
D39*
X20825000Y28525000D03*
D43*
X14180000Y22275000D03*
X14180000Y25025000D03*
X17675000Y25025000D03*
X16725000Y25025000D03*
X15130000Y23175000D03*
X16725000Y26825000D03*
X14180000Y23175000D03*
X15130000Y26825000D03*
X16725000Y23175000D03*
X17675000Y22275000D03*
X17675000Y26825000D03*
X17675000Y21375000D03*
X15130000Y21375000D03*
X16725000Y21375000D03*
X16725000Y22275000D03*
X14180000Y25925000D03*
X15130000Y25025000D03*
X16725000Y25925000D03*
X14180000Y21375000D03*
X17675000Y25925000D03*
X15130000Y22275000D03*
X14180000Y26825000D03*
X15130000Y25925000D03*
X17675000Y23175000D03*
D24*
X16075000Y15240000D03*
X17725000Y15240000D03*
D14*
X-17922000Y18796000D03*
D15*
X-16622000Y18796000D03*
D30*
X-9144000Y-7030000D03*
X-9144000Y-3130000D03*
X-7874000Y-7030000D03*
X-7874000Y-3130000D03*
X-6604000Y-7030000D03*
X-6604000Y-3130000D03*
X-5334000Y-7030000D03*
X-5334000Y-3130000D03*
X-4064000Y-7030000D03*
X-4064000Y-3130000D03*
D17*
X10477000Y10160000D03*
X8827000Y10160000D03*
D24*
X-2095000Y14986000D03*
X-445000Y14986000D03*
D18*
X7620000Y-27940000D03*
D19*
X10160000Y-27940000D03*
X12700000Y-27940000D03*
X15240000Y-27940000D03*
X17780000Y-27940000D03*
X20320000Y-27940000D03*
X22860000Y-27940000D03*
D17*
X10477000Y15240000D03*
X8827000Y15240000D03*
D44*
X5588000Y13703000D03*
X5588000Y15253000D03*
D17*
X-16447000Y25400000D03*
X-18097000Y25400000D03*
D16*
X27500000Y-27500000D03*
D22*
X-12641000Y-2837000D03*
X-12641000Y1313000D03*
X-14791000Y1313000D03*
X-14791000Y-2812000D03*
D45*
X-2032000Y5954000D03*
D46*
X-2032000Y7254000D03*
D24*
X16075000Y18288000D03*
X17725000Y18288000D03*
D29*
X-7620000Y23901500D03*
X-7620000Y22326500D03*
D47*
X4540000Y17790000D03*
X3540000Y17790000D03*
X2540000Y17790000D03*
X1540000Y17790000D03*
X540000Y17790000D03*
X540000Y12690000D03*
X1540000Y12690000D03*
X2540000Y12690000D03*
X3540000Y12690000D03*
X4540000Y12690000D03*
D17*
X-6033000Y18415000D03*
X-7683000Y18415000D03*
D48*
X-4414000Y23422000D03*
X1366000Y23422000D03*
D49*
X1676000Y22357000D03*
X876000Y22357000D03*
D50*
X-274000Y22357000D03*
X-1274000Y22357000D03*
X-1774000Y22357000D03*
X-2774000Y22357000D03*
D49*
X-3924000Y22357000D03*
X-4724000Y22357000D03*
X-4724000Y22357000D03*
X-3924000Y22357000D03*
D50*
X-3274000Y22357000D03*
X-2274000Y22357000D03*
X-774000Y22357000D03*
X226000Y22357000D03*
D49*
X876000Y22357000D03*
X1676000Y22357000D03*
D51*
X2796000Y27102000D03*
D52*
X-5844000Y22922000D03*
X2796000Y22922000D03*
D51*
X-5844000Y27102000D03*
D25*
X1283000Y11176000D03*
X-267000Y11176000D03*
D53*
X-14900000Y6300000D03*
D54*
X-15445000Y3265000D03*
X-14175000Y3265000D03*
X-12905000Y3265000D03*
X-11635000Y3265000D03*
X-10365000Y3265000D03*
X-9095000Y3265000D03*
X-7825000Y3265000D03*
X-6555000Y3265000D03*
D55*
X-4265000Y5555000D03*
X-4265000Y6825000D03*
X-4265000Y8095000D03*
X-4265000Y9365000D03*
X-4265000Y10635000D03*
X-4265000Y11905000D03*
X-4265000Y13175000D03*
X-4265000Y14445000D03*
D54*
X-6555000Y16735000D03*
X-7825000Y16735000D03*
X-9095000Y16735000D03*
X-10365000Y16735000D03*
X-11635000Y16735000D03*
X-12905000Y16735000D03*
X-14175000Y16735000D03*
X-15445000Y16735000D03*
D55*
X-17735000Y14445000D03*
X-17735000Y13175000D03*
X-17735000Y11905000D03*
X-17735000Y10635000D03*
X-17735000Y9365000D03*
X-17735000Y8095000D03*
D56*
X-17835000Y6825000D03*
X-17835000Y5555000D03*
D24*
X-63000Y20828000D03*
X1587000Y20828000D03*
D18*
X-7620000Y27940000D03*
D19*
X-10160000Y27940000D03*
X-12700000Y27940000D03*
X-15240000Y27940000D03*
X-17780000Y27940000D03*
X-20320000Y27940000D03*
X-22860000Y27940000D03*
M02*
