M48
; DRILL file {KiCad (6.0.9)} date Mon May  6 14:49:57 2024
; FORMAT={2:4/ absolute / inch / suppress leading zeros}
; #@! TF.CreationDate,2024-05-06T14:49:57+09:00
; #@! TF.GenerationSoftware,Kicad,Pcbnew,(6.0.9)
; #@! TF.FileFunction,MixedPlating,1,4
FMAT,2
INCH,TZ
; #@! TA.AperFunction,Plated,PTH,ViaDrill
T1C0.0118
; #@! TA.AperFunction,Plated,PTH,ComponentDrill
T2C0.0236
; #@! TA.AperFunction,Plated,PTH,ComponentDrill
T3C0.0394
; #@! TA.AperFunction,NonPlated,NPTH,ComponentDrill
T4C0.0256
; #@! TA.AperFunction,NonPlated,NPTH,ComponentDrill
T5C0.0866
; #@! TA.AperFunction,NonPlated,NPTH,ComponentDrill
T6C0.1220
%
G90
G05
T1
X-7750Y9500
X-7750Y8500
X-7750Y7500
X-7750Y6500
X-7750Y5500
X-7750Y4500
X-7750Y3500
X-7750Y2500
X-7750Y1500
X-7750Y500
X-7750Y-500
X-7750Y-1500
X-7750Y-2500
X-7750Y-3500
X-7500Y11500
X-7000Y8900
X-7000Y7900
X-6800Y10400
X-6500Y11500
X-6500Y500
X-6500Y-1500
X-6500Y-3500
X-6299Y5512
X-6100Y9700
X-5900Y10400
X-5830Y6100
X-5800Y7700
X-5512Y3937
X-5500Y11500
X-5500Y-500
X-5500Y-3500
X-5400Y9000
X-4977Y7700
X-4950Y9450
X-4700Y8300
X-4500Y-500
X-4500Y-1500
X-4500Y-3500
X-4400Y600
X-4331Y5512
X-4331Y3937
X-4331Y1969
X-4200Y6950
X-4100Y6100
X-3800Y7400
X-3600Y-2200
X-3500Y-3500
X-3400Y8800
X-3300Y10300
X-3300Y10000
X-3300Y9700
X-3200Y700
X-3200Y400
X-3000Y10300
X-3000Y10000
X-3000Y9700
X-3000Y-500
X-2500Y-3500
X-2362Y5512
X-2362Y3937
X-2362Y2362
X-2200Y200
X-2100Y6600
X-2100Y1000
X-1600Y-600
X-1500Y11500
X-1500Y-3500
X-1200Y3400
X-1200Y1400
X-1200Y500
X-1200Y-1500
X-800Y9500
X-800Y5100
X-800Y4400
X-750Y8150
X-600Y3300
X-500Y11500
X-500Y-3500
X-400Y1400
X-400Y500
X-400Y-1500
X-100Y4700
X-100Y4100
X100Y10300
X100Y9500
X200Y7500
X200Y6400
X250Y5950
X450Y3050
X500Y11500
X500Y-3500
X505Y4000
X750Y5700
X900Y8300
X1000Y6400
X1000Y2500
X1400Y3600
X1500Y11500
X1500Y500
X1500Y-1500
X1500Y-3500
X1600Y10200
X1720Y8500
X1900Y7900
X1900Y7500
X2000Y10400
X2000Y2500
X2050Y3400
X2200Y6400
X2270Y8440
X2500Y10400
X2500Y10000
X2500Y-3500
X2600Y4400
X2750Y3400
X2950Y7900
X2950Y7550
X3200Y6000
X3200Y5400
X3400Y8600
X3400Y6800
X3500Y500
X3500Y-1500
X3500Y-3500
X4000Y10400
X4050Y6600
X4125Y3600
X4250Y7650
X4300Y9400
X4300Y3050
X4300Y2500
X4430Y4310
X4500Y8200
X4500Y7100
X4500Y-3500
X4600Y5850
X4650Y10400
X4677Y5100
X4700Y11100
X4750Y7650
X4900Y6900
X4900Y6300
X5300Y5500
X5300Y4800
X5300Y3500
X5453Y9488
X5500Y500
X5500Y-1500
X5500Y-3500
X5505Y6200
X6054Y7200
X6054Y6600
X6177Y5100
X6270Y10394
X6270Y9488
X6270Y8583
X6500Y4800
X6500Y-3500
X6654Y10950
X6850Y11500
X7087Y9488
X7100Y7500
X7165Y11500
X7500Y11500
X7500Y7500
X7500Y6500
X7500Y5500
X7500Y4500
X7500Y3500
X7500Y2500
X7500Y1500
X7500Y500
X7500Y-500
X7500Y-1500
X7500Y-2500
X7500Y-3500
T3
X-11000Y-3000
X-11000Y-4000
X-11000Y-5000
X-11000Y-6000
X-11000Y-7000
X-11000Y-8000
X-11000Y-9000
X-9000Y11000
X-8000Y11000
X-7000Y11000
X-6000Y11000
X-5000Y11000
X-4000Y11000
X-3000Y11000
X3000Y-11000
X4000Y-11000
X5000Y-11000
X6000Y-11000
X7000Y-11000
X8000Y-11000
X9000Y-11000
T4
X-1738Y9221
X538Y9221
T5
X-10827Y10827
X-10827Y-10827
X10827Y-10827
T2
G00X-2301Y10513
M15
G01X-2301Y10828
M16
G05
G00X-2301Y8808
M15
G01X-2301Y9241
M16
G05
G00X1101Y10513
M15
G01X1101Y10828
M16
G05
G00X1101Y8808
M15
G01X1101Y9241
M16
G05
T6
G00X-6033Y2313
M15
G01X-5699Y2647
M16
G05
T0
M30
