G04 #@! TF.GenerationSoftware,KiCad,Pcbnew,(6.0.9)*
G04 #@! TF.CreationDate,2024-05-06T14:48:15+09:00*
G04 #@! TF.ProjectId,CommunicationBoard,436f6d6d-756e-4696-9361-74696f6e426f,rev?*
G04 #@! TF.SameCoordinates,PX8a48640PY5f5e100*
G04 #@! TF.FileFunction,Copper,L2,Inr*
G04 #@! TF.FilePolarity,Positive*
%FSLAX46Y46*%
G04 Gerber Fmt 4.6, Leading zero omitted, Abs format (unit mm)*
G04 Created by KiCad (PCBNEW (6.0.9)) date 2024-05-06 14:48:15*
%MOMM*%
%LPD*%
G01*
G04 APERTURE LIST*
G04 #@! TA.AperFunction,ComponentPad*
%ADD10R,1.700000X1.700000*%
G04 #@! TD*
G04 #@! TA.AperFunction,ComponentPad*
%ADD11O,1.700000X1.700000*%
G04 #@! TD*
G04 #@! TA.AperFunction,ComponentPad*
%ADD12O,1.000000X1.800000*%
G04 #@! TD*
G04 #@! TA.AperFunction,ComponentPad*
%ADD13O,1.000000X2.100000*%
G04 #@! TD*
G04 #@! TA.AperFunction,ViaPad*
%ADD14C,0.600000*%
G04 #@! TD*
G04 APERTURE END LIST*
D10*
X-27940000Y-7620000D03*
D11*
X-27940000Y-10160000D03*
X-27940000Y-12700000D03*
X-27940000Y-15240000D03*
X-27940000Y-17780000D03*
X-27940000Y-20320000D03*
X-27940000Y-22860000D03*
D10*
X7620000Y-27940000D03*
D11*
X10160000Y-27940000D03*
X12700000Y-27940000D03*
X15240000Y-27940000D03*
X17780000Y-27940000D03*
X20320000Y-27940000D03*
X22860000Y-27940000D03*
D12*
X2796000Y27102000D03*
D13*
X-5844000Y22922000D03*
X2796000Y22922000D03*
D12*
X-5844000Y27102000D03*
D10*
X-7620000Y27940000D03*
D11*
X-10160000Y27940000D03*
X-12700000Y27940000D03*
X-15240000Y27940000D03*
X-17780000Y27940000D03*
X-20320000Y27940000D03*
X-22860000Y27940000D03*
D14*
X10795000Y19431000D03*
X19050000Y11430000D03*
X-10668000Y17653000D03*
X-19050000Y29210000D03*
X-2032000Y11176000D03*
X1270000Y-8890000D03*
X19050000Y19050000D03*
X-11430000Y-3810000D03*
X-7620000Y25400000D03*
X13970000Y-3810000D03*
X5765800Y21437600D03*
X1270000Y29210000D03*
X1905000Y14478000D03*
X3810000Y-8890000D03*
X13970000Y1270000D03*
X18000000Y24100000D03*
X11811000Y26416000D03*
X19050000Y-3810000D03*
X13850000Y24100000D03*
X16510000Y-8890000D03*
X3810000Y29210000D03*
X3810000Y1270000D03*
X11430000Y20828000D03*
X6350000Y-8890000D03*
X3810000Y-3810000D03*
X-14000000Y10000000D03*
X5080000Y6350000D03*
X-14808200Y15494000D03*
X-16000000Y14000000D03*
X-8636000Y22352000D03*
X-10414000Y15494000D03*
X254000Y26162000D03*
X-11000000Y10000000D03*
X15925000Y21800000D03*
X-19685000Y1270000D03*
X10287000Y16764000D03*
X-19685000Y-3810000D03*
X-8128000Y1778000D03*
X-254000Y11938000D03*
X508000Y19050000D03*
X19050000Y-8890000D03*
X19050000Y29210000D03*
X-14986000Y26416000D03*
X8890000Y-8890000D03*
X6350000Y25400000D03*
X13462000Y13970000D03*
X-1905000Y20701000D03*
X-1270000Y-8890000D03*
X19050000Y8890000D03*
X-19685000Y16510000D03*
X-13716000Y22860000D03*
X-12573000Y24003000D03*
X-13970000Y-1270000D03*
X-3048000Y1270000D03*
X-14732000Y19558000D03*
X4826000Y19050000D03*
X10922000Y7747000D03*
X19050000Y3810000D03*
X12446000Y17526000D03*
X19050000Y16510000D03*
X6985000Y8636000D03*
X-19685000Y8890000D03*
X-7620000Y-1270000D03*
X-6350000Y-8890000D03*
X-17272000Y26416000D03*
X8890000Y-3810000D03*
X18034000Y19050000D03*
X5207000Y8636000D03*
X-11000000Y14000000D03*
X-19685000Y-6350000D03*
X-5334000Y16764000D03*
X-16510000Y-3810000D03*
X2286000Y21082000D03*
X-8382000Y26162000D03*
X11430000Y-8890000D03*
X11252200Y10947400D03*
X13462000Y8890000D03*
X-7620000Y26162000D03*
X-16510000Y-8890000D03*
X15925000Y24100000D03*
X13462000Y12192000D03*
X19050000Y-1270000D03*
X12446000Y16002000D03*
X-7620000Y24638000D03*
X-19685000Y11430000D03*
X-3810000Y29210000D03*
X-8382000Y24638000D03*
X15925000Y26400000D03*
X-13970000Y-8890000D03*
X-3810000Y-8890000D03*
X-1524000Y8382000D03*
X4368800Y21590000D03*
X-254000Y10414000D03*
X13970000Y-8890000D03*
X-15494000Y24638000D03*
X-6000000Y6000000D03*
X19050000Y13970000D03*
X19050000Y-6350000D03*
X-19685000Y24130000D03*
X-1270000Y29210000D03*
X-9652000Y18796000D03*
X-5588000Y508000D03*
X254000Y24130000D03*
X-16510000Y1270000D03*
X8890000Y1270000D03*
X16510000Y12192000D03*
X-8128000Y1016000D03*
X-13970000Y29210000D03*
X12065000Y19431000D03*
X10922000Y23876000D03*
X2540000Y16256000D03*
X-19685000Y13970000D03*
X-17780000Y22606000D03*
X-19685000Y21590000D03*
X4064000Y25908000D03*
X-11000000Y5000000D03*
X10922000Y6350000D03*
X-17780000Y20066000D03*
X-2032000Y12954000D03*
X-3048000Y8636000D03*
X11684000Y14859000D03*
X-19685000Y-1270000D03*
X-19685000Y3810000D03*
X11938000Y28194000D03*
X-8890000Y-8890000D03*
X3556000Y9144000D03*
X19050000Y1270000D03*
X635000Y15113000D03*
X-8382000Y25400000D03*
X-11430000Y-1270000D03*
X-1016000Y1270000D03*
X-3048000Y3556000D03*
X4826000Y20066000D03*
X5588000Y16256000D03*
X-1016000Y-3810000D03*
X-11938000Y21082000D03*
X8636000Y21844000D03*
X-19685000Y-8890000D03*
X-1016000Y3556000D03*
X-2032000Y24130000D03*
X-19685000Y19050000D03*
X19050000Y6350000D03*
X2540000Y6350000D03*
X-19685000Y6350000D03*
X-6000000Y10000000D03*
X6604000Y11176000D03*
X1143000Y7747000D03*
X-6000000Y14000000D03*
X-11430000Y-8890000D03*
X-16510000Y29210000D03*
X-3048000Y-3810000D03*
X13983000Y15748000D03*
X10477000Y9144000D03*
X-11176000Y1524000D03*
X1283000Y10160000D03*
X-9144000Y-5588000D03*
X10160000Y26416000D03*
X11879000Y12954000D03*
X5080000Y26416000D03*
X17399000Y29210000D03*
X18200000Y29210000D03*
X6350000Y26416000D03*
X8636000Y17272000D03*
X8128000Y13716000D03*
X7493000Y20066000D03*
X15376000Y18288000D03*
X15376000Y16764000D03*
X7493000Y19177000D03*
X508000Y16256000D03*
X8128000Y15240000D03*
X15689000Y12954000D03*
X16900000Y27813000D03*
X-12641000Y19558000D03*
X-4064000Y-1524000D03*
X11430000Y18034000D03*
X-5334000Y2540000D03*
G04 #@! TA.AperFunction,Conductor*
G36*
X17111040Y29780593D02*
G01*
X17147004Y29731093D01*
X17147004Y29669907D01*
X17111040Y29620407D01*
X17105677Y29616773D01*
X17071280Y29595070D01*
X17066613Y29589786D01*
X17066611Y29589784D01*
X16981044Y29492897D01*
X16981042Y29492895D01*
X16976377Y29487612D01*
X16915447Y29357837D01*
X16893391Y29216177D01*
X16894306Y29209180D01*
X16894306Y29209179D01*
X16895814Y29197646D01*
X16911980Y29074021D01*
X16914821Y29067565D01*
X16914821Y29067564D01*
X16955758Y28974529D01*
X16969720Y28942797D01*
X16996614Y28910803D01*
X17057431Y28838451D01*
X17057434Y28838449D01*
X17061970Y28833052D01*
X17067841Y28829144D01*
X17067842Y28829143D01*
X17073291Y28825516D01*
X17181313Y28753610D01*
X17281920Y28722179D01*
X17311425Y28712961D01*
X17311426Y28712961D01*
X17318157Y28710858D01*
X17389828Y28709544D01*
X17454445Y28708359D01*
X17454447Y28708359D01*
X17461499Y28708230D01*
X17468302Y28710085D01*
X17468304Y28710085D01*
X17543503Y28730587D01*
X17599817Y28745940D01*
X17721991Y28820955D01*
X17726726Y28826186D01*
X17732151Y28830690D01*
X17733227Y28829394D01*
X17778811Y28855553D01*
X17839644Y28848998D01*
X17861468Y28834839D01*
X17862970Y28833052D01*
X17982313Y28753610D01*
X18082920Y28722179D01*
X18112425Y28712961D01*
X18112426Y28712961D01*
X18119157Y28710858D01*
X18190828Y28709544D01*
X18255445Y28708359D01*
X18255447Y28708359D01*
X18262499Y28708230D01*
X18269302Y28710085D01*
X18269304Y28710085D01*
X18344503Y28730587D01*
X18400817Y28745940D01*
X18522991Y28820955D01*
X18530403Y28829143D01*
X18614468Y28922018D01*
X18619200Y28927246D01*
X18681710Y29056267D01*
X18685875Y29081018D01*
X18704862Y29193876D01*
X18704862Y29193880D01*
X18705496Y29197646D01*
X18705647Y29210000D01*
X18685323Y29351918D01*
X18625984Y29482428D01*
X18532400Y29591037D01*
X18491686Y29617427D01*
X18453142Y29664941D01*
X18449886Y29726039D01*
X18483165Y29777383D01*
X18545535Y29799500D01*
X19301000Y29799500D01*
X19359191Y29780593D01*
X19395155Y29731093D01*
X19400000Y29700500D01*
X19400000Y-9700500D01*
X19381093Y-9758691D01*
X19331593Y-9794655D01*
X19301000Y-9799500D01*
X-19901000Y-9799500D01*
X-19959191Y-9780593D01*
X-19995155Y-9731093D01*
X-20000000Y-9700500D01*
X-20000000Y-5581823D01*
X-9649609Y-5581823D01*
X-9648694Y-5588820D01*
X-9648694Y-5588821D01*
X-9647186Y-5600354D01*
X-9631020Y-5723979D01*
X-9628179Y-5730435D01*
X-9628179Y-5730436D01*
X-9620414Y-5748082D01*
X-9573280Y-5855203D01*
X-9560208Y-5870754D01*
X-9485569Y-5959549D01*
X-9485566Y-5959551D01*
X-9481030Y-5964948D01*
X-9475159Y-5968856D01*
X-9475158Y-5968857D01*
X-9462857Y-5977045D01*
X-9361687Y-6044390D01*
X-9261080Y-6075821D01*
X-9231575Y-6085039D01*
X-9231574Y-6085039D01*
X-9224843Y-6087142D01*
X-9153172Y-6088456D01*
X-9088555Y-6089641D01*
X-9088553Y-6089641D01*
X-9081501Y-6089770D01*
X-9074698Y-6087915D01*
X-9074696Y-6087915D01*
X-8999497Y-6067413D01*
X-8943183Y-6052060D01*
X-8821009Y-5977045D01*
X-8813597Y-5968857D01*
X-8729532Y-5875982D01*
X-8724800Y-5870754D01*
X-8662290Y-5741733D01*
X-8658125Y-5716982D01*
X-8639138Y-5604124D01*
X-8639138Y-5604120D01*
X-8638504Y-5600354D01*
X-8638353Y-5588000D01*
X-8658677Y-5446082D01*
X-8718016Y-5315572D01*
X-8811600Y-5206963D01*
X-8931905Y-5128985D01*
X-9069261Y-5087907D01*
X-9152503Y-5087398D01*
X-9205573Y-5087074D01*
X-9205574Y-5087074D01*
X-9212624Y-5087031D01*
X-9219401Y-5088968D01*
X-9219402Y-5088968D01*
X-9343691Y-5124490D01*
X-9343693Y-5124491D01*
X-9350471Y-5126428D01*
X-9471720Y-5202930D01*
X-9476387Y-5208214D01*
X-9476389Y-5208216D01*
X-9561956Y-5305103D01*
X-9561958Y-5305105D01*
X-9566623Y-5310388D01*
X-9627553Y-5440163D01*
X-9649609Y-5581823D01*
X-20000000Y-5581823D01*
X-20000000Y-1517823D01*
X-4569609Y-1517823D01*
X-4568694Y-1524820D01*
X-4568694Y-1524821D01*
X-4567186Y-1536354D01*
X-4551020Y-1659979D01*
X-4548179Y-1666435D01*
X-4548179Y-1666436D01*
X-4540414Y-1684082D01*
X-4493280Y-1791203D01*
X-4480208Y-1806754D01*
X-4405569Y-1895549D01*
X-4405566Y-1895551D01*
X-4401030Y-1900948D01*
X-4395159Y-1904856D01*
X-4395158Y-1904857D01*
X-4382857Y-1913045D01*
X-4281687Y-1980390D01*
X-4181080Y-2011821D01*
X-4151575Y-2021039D01*
X-4151574Y-2021039D01*
X-4144843Y-2023142D01*
X-4073172Y-2024456D01*
X-4008555Y-2025641D01*
X-4008553Y-2025641D01*
X-4001501Y-2025770D01*
X-3994698Y-2023915D01*
X-3994696Y-2023915D01*
X-3919497Y-2003413D01*
X-3863183Y-1988060D01*
X-3741009Y-1913045D01*
X-3733597Y-1904857D01*
X-3649532Y-1811982D01*
X-3644800Y-1806754D01*
X-3582290Y-1677733D01*
X-3578125Y-1652982D01*
X-3559138Y-1540124D01*
X-3559138Y-1540120D01*
X-3558504Y-1536354D01*
X-3558353Y-1524000D01*
X-3578677Y-1382082D01*
X-3638016Y-1251572D01*
X-3731600Y-1142963D01*
X-3851905Y-1064985D01*
X-3989261Y-1023907D01*
X-4072503Y-1023398D01*
X-4125573Y-1023074D01*
X-4125574Y-1023074D01*
X-4132624Y-1023031D01*
X-4139401Y-1024968D01*
X-4139402Y-1024968D01*
X-4263691Y-1060490D01*
X-4263693Y-1060491D01*
X-4270471Y-1062428D01*
X-4391720Y-1138930D01*
X-4396387Y-1144214D01*
X-4396389Y-1144216D01*
X-4481956Y-1241103D01*
X-4481958Y-1241105D01*
X-4486623Y-1246388D01*
X-4547553Y-1376163D01*
X-4569609Y-1517823D01*
X-20000000Y-1517823D01*
X-20000000Y1530177D01*
X-11681609Y1530177D01*
X-11680694Y1523180D01*
X-11680694Y1523179D01*
X-11679186Y1511646D01*
X-11663020Y1388021D01*
X-11660179Y1381565D01*
X-11660179Y1381564D01*
X-11652414Y1363918D01*
X-11605280Y1256797D01*
X-11592208Y1241246D01*
X-11517569Y1152451D01*
X-11517566Y1152449D01*
X-11513030Y1147052D01*
X-11507159Y1143144D01*
X-11507158Y1143143D01*
X-11494857Y1134955D01*
X-11393687Y1067610D01*
X-11293080Y1036179D01*
X-11263575Y1026961D01*
X-11263574Y1026961D01*
X-11256843Y1024858D01*
X-11185172Y1023544D01*
X-11120555Y1022359D01*
X-11120553Y1022359D01*
X-11113501Y1022230D01*
X-11106698Y1024085D01*
X-11106696Y1024085D01*
X-11031497Y1044587D01*
X-10975183Y1059940D01*
X-10853009Y1134955D01*
X-10845597Y1143143D01*
X-10761532Y1236018D01*
X-10756800Y1241246D01*
X-10694290Y1370267D01*
X-10690125Y1395018D01*
X-10671138Y1507876D01*
X-10671138Y1507880D01*
X-10670504Y1511646D01*
X-10670353Y1524000D01*
X-10690677Y1665918D01*
X-10750016Y1796428D01*
X-10843600Y1905037D01*
X-10963905Y1983015D01*
X-11101261Y2024093D01*
X-11184503Y2024602D01*
X-11237573Y2024926D01*
X-11237574Y2024926D01*
X-11244624Y2024969D01*
X-11251401Y2023032D01*
X-11251402Y2023032D01*
X-11375691Y1987510D01*
X-11375693Y1987509D01*
X-11382471Y1985572D01*
X-11503720Y1909070D01*
X-11508387Y1903786D01*
X-11508389Y1903784D01*
X-11593956Y1806897D01*
X-11593958Y1806895D01*
X-11598623Y1801612D01*
X-11659553Y1671837D01*
X-11681609Y1530177D01*
X-20000000Y1530177D01*
X-20000000Y2546177D01*
X-5839609Y2546177D01*
X-5838694Y2539180D01*
X-5838694Y2539179D01*
X-5837186Y2527646D01*
X-5821020Y2404021D01*
X-5818179Y2397565D01*
X-5818179Y2397564D01*
X-5810414Y2379918D01*
X-5763280Y2272797D01*
X-5750208Y2257246D01*
X-5675569Y2168451D01*
X-5675566Y2168449D01*
X-5671030Y2163052D01*
X-5665159Y2159144D01*
X-5665158Y2159143D01*
X-5652857Y2150955D01*
X-5551687Y2083610D01*
X-5451080Y2052179D01*
X-5421575Y2042961D01*
X-5421574Y2042961D01*
X-5414843Y2040858D01*
X-5343172Y2039544D01*
X-5278555Y2038359D01*
X-5278553Y2038359D01*
X-5271501Y2038230D01*
X-5264698Y2040085D01*
X-5264696Y2040085D01*
X-5189497Y2060587D01*
X-5133183Y2075940D01*
X-5011009Y2150955D01*
X-5003597Y2159143D01*
X-4919532Y2252018D01*
X-4914800Y2257246D01*
X-4852290Y2386267D01*
X-4848125Y2411018D01*
X-4829138Y2523876D01*
X-4829138Y2523880D01*
X-4828504Y2527646D01*
X-4828353Y2540000D01*
X-4848677Y2681918D01*
X-4908016Y2812428D01*
X-5001600Y2921037D01*
X-5121905Y2999015D01*
X-5259261Y3040093D01*
X-5342503Y3040602D01*
X-5395573Y3040926D01*
X-5395574Y3040926D01*
X-5402624Y3040969D01*
X-5409401Y3039032D01*
X-5409402Y3039032D01*
X-5533691Y3003510D01*
X-5533693Y3003509D01*
X-5540471Y3001572D01*
X-5661720Y2925070D01*
X-5666387Y2919786D01*
X-5666389Y2919784D01*
X-5751956Y2822897D01*
X-5751958Y2822895D01*
X-5756623Y2817612D01*
X-5817553Y2687837D01*
X-5839609Y2546177D01*
X-20000000Y2546177D01*
X-20000000Y5954668D01*
X-17132102Y5954668D01*
X-17131990Y5950999D01*
X-17131990Y5950996D01*
X-17129565Y5871622D01*
X-17123911Y5686586D01*
X-17076185Y5422658D01*
X-17075008Y5419190D01*
X-17075006Y5419183D01*
X-16991155Y5172165D01*
X-16989973Y5168684D01*
X-16867167Y4930243D01*
X-16710468Y4712574D01*
X-16523315Y4520456D01*
X-16309821Y4358111D01*
X-16074677Y4229106D01*
X-16071238Y4227837D01*
X-16071233Y4227835D01*
X-15826495Y4137547D01*
X-15823047Y4136275D01*
X-15560459Y4081658D01*
X-15556799Y4081450D01*
X-15556798Y4081450D01*
X-15296347Y4066659D01*
X-15296345Y4066659D01*
X-15292682Y4066451D01*
X-15209671Y4074079D01*
X-15029253Y4090657D01*
X-15029249Y4090658D01*
X-15025600Y4090993D01*
X-15022040Y4091864D01*
X-15022035Y4091865D01*
X-14768642Y4153870D01*
X-14768640Y4153871D01*
X-14765079Y4154742D01*
X-14516842Y4256298D01*
X-14286343Y4393431D01*
X-14112964Y4535088D01*
X-13151613Y5496438D01*
X-13021108Y5647896D01*
X-13019155Y5650991D01*
X-13019150Y5650998D01*
X-12879948Y5871622D01*
X-12879947Y5871623D01*
X-12877989Y5874727D01*
X-12769969Y6120221D01*
X-12769004Y6123759D01*
X-12769002Y6123766D01*
X-12700389Y6375440D01*
X-12700389Y6375442D01*
X-12699423Y6378984D01*
X-12687912Y6476233D01*
X-12668330Y6641684D01*
X-12667898Y6645332D01*
X-12670340Y6725273D01*
X-12675977Y6909737D01*
X-12676089Y6913414D01*
X-12683588Y6954884D01*
X-12723160Y7173727D01*
X-12723161Y7173731D01*
X-12723814Y7177342D01*
X-12810027Y7431316D01*
X-12932832Y7669757D01*
X-13089532Y7887427D01*
X-13276685Y8079545D01*
X-13490179Y8241889D01*
X-13725323Y8370894D01*
X-13728762Y8372163D01*
X-13728767Y8372165D01*
X-13973505Y8462453D01*
X-13976953Y8463725D01*
X-14239541Y8518343D01*
X-14243201Y8518551D01*
X-14243202Y8518551D01*
X-14503652Y8533341D01*
X-14503654Y8533341D01*
X-14507317Y8533549D01*
X-14590328Y8525921D01*
X-14770746Y8509343D01*
X-14770750Y8509342D01*
X-14774399Y8509007D01*
X-14777960Y8508136D01*
X-14777964Y8508135D01*
X-15031358Y8446130D01*
X-15031360Y8446129D01*
X-15034921Y8445258D01*
X-15283158Y8343702D01*
X-15513657Y8206569D01*
X-15687036Y8064912D01*
X-16648387Y7103562D01*
X-16778892Y6952104D01*
X-16780845Y6949009D01*
X-16780850Y6949002D01*
X-16920052Y6728378D01*
X-16922011Y6725273D01*
X-17030030Y6479779D01*
X-17100577Y6221016D01*
X-17132102Y5954668D01*
X-20000000Y5954668D01*
X-20000000Y9150177D01*
X9971391Y9150177D01*
X9972306Y9143180D01*
X9972306Y9143179D01*
X9973814Y9131646D01*
X9989980Y9008021D01*
X9992821Y9001565D01*
X9992821Y9001564D01*
X10000586Y8983918D01*
X10047720Y8876797D01*
X10060792Y8861246D01*
X10135431Y8772451D01*
X10135434Y8772449D01*
X10139970Y8767052D01*
X10145841Y8763144D01*
X10145842Y8763143D01*
X10158143Y8754955D01*
X10259313Y8687610D01*
X10359920Y8656179D01*
X10389425Y8646961D01*
X10389426Y8646961D01*
X10396157Y8644858D01*
X10467828Y8643544D01*
X10532445Y8642359D01*
X10532447Y8642359D01*
X10539499Y8642230D01*
X10546302Y8644085D01*
X10546304Y8644085D01*
X10621503Y8664587D01*
X10677817Y8679940D01*
X10799991Y8754955D01*
X10807403Y8763143D01*
X10891468Y8856018D01*
X10896200Y8861246D01*
X10958710Y8990267D01*
X10962875Y9015018D01*
X10981862Y9127876D01*
X10981862Y9127880D01*
X10982496Y9131646D01*
X10982647Y9144000D01*
X10962323Y9285918D01*
X10902984Y9416428D01*
X10809400Y9525037D01*
X10689095Y9603015D01*
X10551739Y9644093D01*
X10468497Y9644602D01*
X10415427Y9644926D01*
X10415426Y9644926D01*
X10408376Y9644969D01*
X10401599Y9643032D01*
X10401598Y9643032D01*
X10277309Y9607510D01*
X10277307Y9607509D01*
X10270529Y9605572D01*
X10149280Y9529070D01*
X10144613Y9523786D01*
X10144611Y9523784D01*
X10059044Y9426897D01*
X10059042Y9426895D01*
X10054377Y9421612D01*
X9993447Y9291837D01*
X9971391Y9150177D01*
X-20000000Y9150177D01*
X-20000000Y10166177D01*
X777391Y10166177D01*
X778306Y10159180D01*
X778306Y10159179D01*
X779814Y10147646D01*
X795980Y10024021D01*
X798821Y10017565D01*
X798821Y10017564D01*
X806586Y9999918D01*
X853720Y9892797D01*
X866792Y9877246D01*
X941431Y9788451D01*
X941434Y9788449D01*
X945970Y9783052D01*
X951841Y9779144D01*
X951842Y9779143D01*
X964143Y9770955D01*
X1065313Y9703610D01*
X1165920Y9672179D01*
X1195425Y9662961D01*
X1195426Y9662961D01*
X1202157Y9660858D01*
X1273828Y9659544D01*
X1338445Y9658359D01*
X1338447Y9658359D01*
X1345499Y9658230D01*
X1352302Y9660085D01*
X1352304Y9660085D01*
X1427503Y9680587D01*
X1483817Y9695940D01*
X1605991Y9770955D01*
X1613403Y9779143D01*
X1697468Y9872018D01*
X1702200Y9877246D01*
X1764710Y10006267D01*
X1768875Y10031018D01*
X1787862Y10143876D01*
X1787862Y10143880D01*
X1788496Y10147646D01*
X1788647Y10160000D01*
X1768323Y10301918D01*
X1708984Y10432428D01*
X1615400Y10541037D01*
X1495095Y10619015D01*
X1357739Y10660093D01*
X1274497Y10660602D01*
X1221427Y10660926D01*
X1221426Y10660926D01*
X1214376Y10660969D01*
X1207599Y10659032D01*
X1207598Y10659032D01*
X1083309Y10623510D01*
X1083307Y10623509D01*
X1076529Y10621572D01*
X955280Y10545070D01*
X950613Y10539786D01*
X950611Y10539784D01*
X865044Y10442897D01*
X865042Y10442895D01*
X860377Y10437612D01*
X799447Y10307837D01*
X777391Y10166177D01*
X-20000000Y10166177D01*
X-20000000Y12960177D01*
X11373391Y12960177D01*
X11374306Y12953180D01*
X11374306Y12953179D01*
X11375814Y12941646D01*
X11391980Y12818021D01*
X11394821Y12811565D01*
X11394821Y12811564D01*
X11402586Y12793918D01*
X11449720Y12686797D01*
X11462792Y12671246D01*
X11537431Y12582451D01*
X11537434Y12582449D01*
X11541970Y12577052D01*
X11547841Y12573144D01*
X11547842Y12573143D01*
X11560143Y12564955D01*
X11661313Y12497610D01*
X11761920Y12466179D01*
X11791425Y12456961D01*
X11791426Y12456961D01*
X11798157Y12454858D01*
X11869828Y12453544D01*
X11934445Y12452359D01*
X11934447Y12452359D01*
X11941499Y12452230D01*
X11948302Y12454085D01*
X11948304Y12454085D01*
X12023503Y12474587D01*
X12079817Y12489940D01*
X12201991Y12564955D01*
X12209403Y12573143D01*
X12293468Y12666018D01*
X12298200Y12671246D01*
X12360710Y12800267D01*
X12364875Y12825018D01*
X12383862Y12937876D01*
X12383862Y12937880D01*
X12384496Y12941646D01*
X12384647Y12954000D01*
X12383762Y12960177D01*
X15183391Y12960177D01*
X15184306Y12953180D01*
X15184306Y12953179D01*
X15185814Y12941646D01*
X15201980Y12818021D01*
X15204821Y12811565D01*
X15204821Y12811564D01*
X15212586Y12793918D01*
X15259720Y12686797D01*
X15272792Y12671246D01*
X15347431Y12582451D01*
X15347434Y12582449D01*
X15351970Y12577052D01*
X15357841Y12573144D01*
X15357842Y12573143D01*
X15370143Y12564955D01*
X15471313Y12497610D01*
X15571920Y12466179D01*
X15601425Y12456961D01*
X15601426Y12456961D01*
X15608157Y12454858D01*
X15679828Y12453544D01*
X15744445Y12452359D01*
X15744447Y12452359D01*
X15751499Y12452230D01*
X15758302Y12454085D01*
X15758304Y12454085D01*
X15833503Y12474587D01*
X15889817Y12489940D01*
X16011991Y12564955D01*
X16019403Y12573143D01*
X16103468Y12666018D01*
X16108200Y12671246D01*
X16170710Y12800267D01*
X16174875Y12825018D01*
X16193862Y12937876D01*
X16193862Y12937880D01*
X16194496Y12941646D01*
X16194647Y12954000D01*
X16174323Y13095918D01*
X16120530Y13214230D01*
X16117905Y13220004D01*
X16117904Y13220005D01*
X16114984Y13226428D01*
X16021400Y13335037D01*
X15901095Y13413015D01*
X15763739Y13454093D01*
X15680497Y13454602D01*
X15627427Y13454926D01*
X15627426Y13454926D01*
X15620376Y13454969D01*
X15613599Y13453032D01*
X15613598Y13453032D01*
X15489309Y13417510D01*
X15489307Y13417509D01*
X15482529Y13415572D01*
X15361280Y13339070D01*
X15356613Y13333786D01*
X15356611Y13333784D01*
X15271044Y13236897D01*
X15271042Y13236895D01*
X15266377Y13231612D01*
X15205447Y13101837D01*
X15183391Y12960177D01*
X12383762Y12960177D01*
X12364323Y13095918D01*
X12310530Y13214230D01*
X12307905Y13220004D01*
X12307904Y13220005D01*
X12304984Y13226428D01*
X12211400Y13335037D01*
X12091095Y13413015D01*
X11953739Y13454093D01*
X11870497Y13454602D01*
X11817427Y13454926D01*
X11817426Y13454926D01*
X11810376Y13454969D01*
X11803599Y13453032D01*
X11803598Y13453032D01*
X11679309Y13417510D01*
X11679307Y13417509D01*
X11672529Y13415572D01*
X11551280Y13339070D01*
X11546613Y13333786D01*
X11546611Y13333784D01*
X11461044Y13236897D01*
X11461042Y13236895D01*
X11456377Y13231612D01*
X11395447Y13101837D01*
X11373391Y12960177D01*
X-20000000Y12960177D01*
X-20000000Y13722177D01*
X7622391Y13722177D01*
X7623306Y13715180D01*
X7623306Y13715179D01*
X7624814Y13703646D01*
X7640980Y13580021D01*
X7643821Y13573565D01*
X7643821Y13573564D01*
X7651586Y13555918D01*
X7698720Y13448797D01*
X7727099Y13415036D01*
X7786431Y13344451D01*
X7786434Y13344449D01*
X7790970Y13339052D01*
X7796841Y13335144D01*
X7796842Y13335143D01*
X7809143Y13326955D01*
X7910313Y13259610D01*
X7983015Y13236897D01*
X8040425Y13218961D01*
X8040426Y13218961D01*
X8047157Y13216858D01*
X8118828Y13215544D01*
X8183445Y13214359D01*
X8183447Y13214359D01*
X8190499Y13214230D01*
X8197302Y13216085D01*
X8197304Y13216085D01*
X8273640Y13236897D01*
X8328817Y13251940D01*
X8450991Y13326955D01*
X8458307Y13335037D01*
X8542468Y13428018D01*
X8547200Y13433246D01*
X8609710Y13562267D01*
X8613875Y13587018D01*
X8632862Y13699876D01*
X8632862Y13699880D01*
X8633496Y13703646D01*
X8633647Y13716000D01*
X8613323Y13857918D01*
X8553984Y13988428D01*
X8460400Y14097037D01*
X8340095Y14175015D01*
X8202739Y14216093D01*
X8119497Y14216602D01*
X8066427Y14216926D01*
X8066426Y14216926D01*
X8059376Y14216969D01*
X8052599Y14215032D01*
X8052598Y14215032D01*
X7928309Y14179510D01*
X7928307Y14179509D01*
X7921529Y14177572D01*
X7800280Y14101070D01*
X7795613Y14095786D01*
X7795611Y14095784D01*
X7710044Y13998897D01*
X7710042Y13998895D01*
X7705377Y13993612D01*
X7644447Y13863837D01*
X7622391Y13722177D01*
X-20000000Y13722177D01*
X-20000000Y15246177D01*
X7622391Y15246177D01*
X7623306Y15239180D01*
X7623306Y15239179D01*
X7624814Y15227646D01*
X7640980Y15104021D01*
X7643821Y15097565D01*
X7643821Y15097564D01*
X7651586Y15079918D01*
X7698720Y14972797D01*
X7711792Y14957246D01*
X7786431Y14868451D01*
X7786434Y14868449D01*
X7790970Y14863052D01*
X7796841Y14859144D01*
X7796842Y14859143D01*
X7809143Y14850955D01*
X7910313Y14783610D01*
X8010920Y14752179D01*
X8040425Y14742961D01*
X8040426Y14742961D01*
X8047157Y14740858D01*
X8118828Y14739544D01*
X8183445Y14738359D01*
X8183447Y14738359D01*
X8190499Y14738230D01*
X8197302Y14740085D01*
X8197304Y14740085D01*
X8272503Y14760587D01*
X8328817Y14775940D01*
X8450991Y14850955D01*
X8458403Y14859143D01*
X8542468Y14952018D01*
X8547200Y14957246D01*
X8609710Y15086267D01*
X8613875Y15111018D01*
X8632862Y15223876D01*
X8632862Y15223880D01*
X8633496Y15227646D01*
X8633647Y15240000D01*
X8613323Y15381918D01*
X8572551Y15471591D01*
X8556905Y15506004D01*
X8556904Y15506005D01*
X8553984Y15512428D01*
X8477471Y15601225D01*
X8465005Y15615693D01*
X8465004Y15615694D01*
X8460400Y15621037D01*
X8340095Y15699015D01*
X8202739Y15740093D01*
X8119497Y15740602D01*
X8066427Y15740926D01*
X8066426Y15740926D01*
X8059376Y15740969D01*
X8052599Y15739032D01*
X8052598Y15739032D01*
X7928309Y15703510D01*
X7928307Y15703509D01*
X7921529Y15701572D01*
X7800280Y15625070D01*
X7795613Y15619786D01*
X7795611Y15619784D01*
X7710044Y15522897D01*
X7710042Y15522895D01*
X7705377Y15517612D01*
X7644447Y15387837D01*
X7643362Y15380868D01*
X7643361Y15380865D01*
X7639950Y15358955D01*
X7622391Y15246177D01*
X-20000000Y15246177D01*
X-20000000Y15754177D01*
X13477391Y15754177D01*
X13478306Y15747180D01*
X13478306Y15747179D01*
X13479371Y15739032D01*
X13495980Y15612021D01*
X13498821Y15605565D01*
X13498821Y15605564D01*
X13542629Y15506004D01*
X13553720Y15480797D01*
X13566792Y15465246D01*
X13641431Y15376451D01*
X13641434Y15376449D01*
X13645970Y15371052D01*
X13651841Y15367144D01*
X13651842Y15367143D01*
X13664143Y15358955D01*
X13765313Y15291610D01*
X13865920Y15260179D01*
X13895425Y15250961D01*
X13895426Y15250961D01*
X13902157Y15248858D01*
X13973828Y15247544D01*
X14038445Y15246359D01*
X14038447Y15246359D01*
X14045499Y15246230D01*
X14052302Y15248085D01*
X14052304Y15248085D01*
X14127503Y15268587D01*
X14183817Y15283940D01*
X14305991Y15358955D01*
X14313403Y15367143D01*
X14397468Y15460018D01*
X14402200Y15465246D01*
X14464710Y15594267D01*
X14468875Y15619018D01*
X14487862Y15731876D01*
X14487862Y15731880D01*
X14488496Y15735646D01*
X14488551Y15740093D01*
X14488600Y15744174D01*
X14488647Y15748000D01*
X14468323Y15889918D01*
X14427551Y15979591D01*
X14411905Y16014004D01*
X14411904Y16014005D01*
X14408984Y16020428D01*
X14332471Y16109225D01*
X14320005Y16123693D01*
X14320004Y16123694D01*
X14315400Y16129037D01*
X14195095Y16207015D01*
X14057739Y16248093D01*
X13974497Y16248602D01*
X13921427Y16248926D01*
X13921426Y16248926D01*
X13914376Y16248969D01*
X13907599Y16247032D01*
X13907598Y16247032D01*
X13783309Y16211510D01*
X13783307Y16211509D01*
X13776529Y16209572D01*
X13655280Y16133070D01*
X13650613Y16127786D01*
X13650611Y16127784D01*
X13565044Y16030897D01*
X13565042Y16030895D01*
X13560377Y16025612D01*
X13499447Y15895837D01*
X13498362Y15888868D01*
X13498361Y15888865D01*
X13494950Y15866955D01*
X13477391Y15754177D01*
X-20000000Y15754177D01*
X-20000000Y16262177D01*
X2391Y16262177D01*
X3306Y16255180D01*
X3306Y16255179D01*
X4371Y16247032D01*
X20980Y16120021D01*
X23821Y16113565D01*
X23821Y16113564D01*
X67629Y16014004D01*
X78720Y15988797D01*
X91792Y15973246D01*
X166431Y15884451D01*
X166434Y15884449D01*
X170970Y15879052D01*
X176841Y15875144D01*
X176842Y15875143D01*
X189143Y15866955D01*
X290313Y15799610D01*
X390920Y15768179D01*
X420425Y15758961D01*
X420426Y15758961D01*
X427157Y15756858D01*
X498828Y15755544D01*
X563445Y15754359D01*
X563447Y15754359D01*
X570499Y15754230D01*
X577302Y15756085D01*
X577304Y15756085D01*
X652503Y15776587D01*
X708817Y15791940D01*
X830991Y15866955D01*
X838403Y15875143D01*
X922468Y15968018D01*
X927200Y15973246D01*
X989710Y16102267D01*
X993875Y16127018D01*
X1012862Y16239876D01*
X1012862Y16239880D01*
X1013496Y16243646D01*
X1013551Y16248093D01*
X1013600Y16252174D01*
X1013647Y16256000D01*
X993323Y16397918D01*
X952551Y16487591D01*
X936905Y16522004D01*
X936904Y16522005D01*
X933984Y16528428D01*
X857471Y16617225D01*
X845005Y16631693D01*
X845004Y16631694D01*
X840400Y16637037D01*
X720095Y16715015D01*
X582739Y16756093D01*
X499497Y16756602D01*
X446427Y16756926D01*
X446426Y16756926D01*
X439376Y16756969D01*
X432599Y16755032D01*
X432598Y16755032D01*
X308309Y16719510D01*
X308307Y16719509D01*
X301529Y16717572D01*
X180280Y16641070D01*
X175613Y16635786D01*
X175611Y16635784D01*
X90044Y16538897D01*
X90042Y16538895D01*
X85377Y16533612D01*
X24447Y16403837D01*
X23362Y16396868D01*
X23361Y16396865D01*
X19950Y16374955D01*
X2391Y16262177D01*
X-20000000Y16262177D01*
X-20000000Y16770177D01*
X14870391Y16770177D01*
X14871306Y16763180D01*
X14871306Y16763179D01*
X14872371Y16755032D01*
X14888980Y16628021D01*
X14891821Y16621565D01*
X14891821Y16621564D01*
X14935629Y16522004D01*
X14946720Y16496797D01*
X14959792Y16481246D01*
X15034431Y16392451D01*
X15034434Y16392449D01*
X15038970Y16387052D01*
X15044841Y16383144D01*
X15044842Y16383143D01*
X15057143Y16374955D01*
X15158313Y16307610D01*
X15258920Y16276179D01*
X15288425Y16266961D01*
X15288426Y16266961D01*
X15295157Y16264858D01*
X15366828Y16263544D01*
X15431445Y16262359D01*
X15431447Y16262359D01*
X15438499Y16262230D01*
X15445302Y16264085D01*
X15445304Y16264085D01*
X15520503Y16284587D01*
X15576817Y16299940D01*
X15698991Y16374955D01*
X15706403Y16383143D01*
X15790468Y16476018D01*
X15795200Y16481246D01*
X15857710Y16610267D01*
X15861875Y16635018D01*
X15880862Y16747876D01*
X15880862Y16747880D01*
X15881496Y16751646D01*
X15881551Y16756093D01*
X15881600Y16760174D01*
X15881647Y16764000D01*
X15861323Y16905918D01*
X15820551Y16995591D01*
X15804905Y17030004D01*
X15804904Y17030005D01*
X15801984Y17036428D01*
X15725471Y17125225D01*
X15713005Y17139693D01*
X15713004Y17139694D01*
X15708400Y17145037D01*
X15588095Y17223015D01*
X15450739Y17264093D01*
X15367497Y17264602D01*
X15314427Y17264926D01*
X15314426Y17264926D01*
X15307376Y17264969D01*
X15300599Y17263032D01*
X15300598Y17263032D01*
X15176309Y17227510D01*
X15176307Y17227509D01*
X15169529Y17225572D01*
X15048280Y17149070D01*
X15043613Y17143786D01*
X15043611Y17143784D01*
X14958044Y17046897D01*
X14958042Y17046895D01*
X14953377Y17041612D01*
X14892447Y16911837D01*
X14891362Y16904868D01*
X14891361Y16904865D01*
X14887950Y16882955D01*
X14870391Y16770177D01*
X-20000000Y16770177D01*
X-20000000Y17278177D01*
X8130391Y17278177D01*
X8131306Y17271180D01*
X8131306Y17271179D01*
X8132371Y17263032D01*
X8148980Y17136021D01*
X8151821Y17129565D01*
X8151821Y17129564D01*
X8195629Y17030004D01*
X8206720Y17004797D01*
X8219792Y16989246D01*
X8294431Y16900451D01*
X8294434Y16900449D01*
X8298970Y16895052D01*
X8304841Y16891144D01*
X8304842Y16891143D01*
X8317143Y16882955D01*
X8418313Y16815610D01*
X8518920Y16784179D01*
X8548425Y16774961D01*
X8548426Y16774961D01*
X8555157Y16772858D01*
X8626828Y16771544D01*
X8691445Y16770359D01*
X8691447Y16770359D01*
X8698499Y16770230D01*
X8705302Y16772085D01*
X8705304Y16772085D01*
X8780503Y16792587D01*
X8836817Y16807940D01*
X8958991Y16882955D01*
X8966403Y16891143D01*
X9050468Y16984018D01*
X9055200Y16989246D01*
X9117710Y17118267D01*
X9121875Y17143018D01*
X9140862Y17255876D01*
X9140862Y17255880D01*
X9141496Y17259646D01*
X9141551Y17264093D01*
X9141600Y17268174D01*
X9141647Y17272000D01*
X9121323Y17413918D01*
X9067530Y17532230D01*
X9064905Y17538004D01*
X9064904Y17538005D01*
X9061984Y17544428D01*
X8968400Y17653037D01*
X8848095Y17731015D01*
X8710739Y17772093D01*
X8627497Y17772602D01*
X8574427Y17772926D01*
X8574426Y17772926D01*
X8567376Y17772969D01*
X8560599Y17771032D01*
X8560598Y17771032D01*
X8436309Y17735510D01*
X8436307Y17735509D01*
X8429529Y17733572D01*
X8308280Y17657070D01*
X8303613Y17651786D01*
X8303611Y17651784D01*
X8218044Y17554897D01*
X8218042Y17554895D01*
X8213377Y17549612D01*
X8152447Y17419837D01*
X8130391Y17278177D01*
X-20000000Y17278177D01*
X-20000000Y18040177D01*
X10924391Y18040177D01*
X10925306Y18033180D01*
X10925306Y18033179D01*
X10926814Y18021646D01*
X10942980Y17898021D01*
X10945821Y17891565D01*
X10945821Y17891564D01*
X10992113Y17786359D01*
X11000720Y17766797D01*
X11029099Y17733036D01*
X11088431Y17662451D01*
X11088434Y17662449D01*
X11092970Y17657052D01*
X11098841Y17653144D01*
X11098842Y17653143D01*
X11111143Y17644955D01*
X11212313Y17577610D01*
X11285015Y17554897D01*
X11342425Y17536961D01*
X11342426Y17536961D01*
X11349157Y17534858D01*
X11420828Y17533544D01*
X11485445Y17532359D01*
X11485447Y17532359D01*
X11492499Y17532230D01*
X11499302Y17534085D01*
X11499304Y17534085D01*
X11575640Y17554897D01*
X11630817Y17569940D01*
X11752991Y17644955D01*
X11760307Y17653037D01*
X11844468Y17746018D01*
X11849200Y17751246D01*
X11911710Y17880267D01*
X11915735Y17904186D01*
X11934862Y18017876D01*
X11934862Y18017880D01*
X11935496Y18021646D01*
X11935647Y18034000D01*
X11915323Y18175918D01*
X11869980Y18275646D01*
X11861554Y18294177D01*
X14870391Y18294177D01*
X14871306Y18287180D01*
X14871306Y18287179D01*
X14872814Y18275646D01*
X14888980Y18152021D01*
X14891821Y18145565D01*
X14891821Y18145564D01*
X14940911Y18034000D01*
X14946720Y18020797D01*
X14959792Y18005246D01*
X15034431Y17916451D01*
X15034434Y17916449D01*
X15038970Y17911052D01*
X15044841Y17907144D01*
X15044842Y17907143D01*
X15057143Y17898955D01*
X15158313Y17831610D01*
X15258920Y17800179D01*
X15288425Y17790961D01*
X15288426Y17790961D01*
X15295157Y17788858D01*
X15366828Y17787544D01*
X15431445Y17786359D01*
X15431447Y17786359D01*
X15438499Y17786230D01*
X15445302Y17788085D01*
X15445304Y17788085D01*
X15520503Y17808587D01*
X15576817Y17823940D01*
X15698991Y17898955D01*
X15706403Y17907143D01*
X15790468Y18000018D01*
X15795200Y18005246D01*
X15857710Y18134267D01*
X15861875Y18159018D01*
X15880862Y18271876D01*
X15880862Y18271880D01*
X15881496Y18275646D01*
X15881647Y18288000D01*
X15861323Y18429918D01*
X15813579Y18534926D01*
X15804905Y18554004D01*
X15804904Y18554005D01*
X15801984Y18560428D01*
X15708400Y18669037D01*
X15588095Y18747015D01*
X15450739Y18788093D01*
X15367497Y18788602D01*
X15314427Y18788926D01*
X15314426Y18788926D01*
X15307376Y18788969D01*
X15300599Y18787032D01*
X15300598Y18787032D01*
X15176309Y18751510D01*
X15176307Y18751509D01*
X15169529Y18749572D01*
X15048280Y18673070D01*
X15043613Y18667786D01*
X15043611Y18667784D01*
X14958044Y18570897D01*
X14958042Y18570895D01*
X14953377Y18565612D01*
X14950381Y18559230D01*
X14950380Y18559229D01*
X14937629Y18532071D01*
X14892447Y18435837D01*
X14891362Y18428868D01*
X14891361Y18428865D01*
X14889013Y18413784D01*
X14870391Y18294177D01*
X11861554Y18294177D01*
X11858905Y18300004D01*
X11858904Y18300005D01*
X11855984Y18306428D01*
X11762400Y18415037D01*
X11642095Y18493015D01*
X11504739Y18534093D01*
X11421497Y18534602D01*
X11368427Y18534926D01*
X11368426Y18534926D01*
X11361376Y18534969D01*
X11354599Y18533032D01*
X11354598Y18533032D01*
X11230309Y18497510D01*
X11230307Y18497509D01*
X11223529Y18495572D01*
X11102280Y18419070D01*
X11097613Y18413786D01*
X11097611Y18413784D01*
X11012044Y18316897D01*
X11012042Y18316895D01*
X11007377Y18311612D01*
X11004381Y18305230D01*
X11004380Y18305229D01*
X11001927Y18300004D01*
X10946447Y18181837D01*
X10945362Y18174868D01*
X10945361Y18174865D01*
X10938052Y18127918D01*
X10924391Y18040177D01*
X-20000000Y18040177D01*
X-20000000Y19564177D01*
X-13146609Y19564177D01*
X-13145694Y19557180D01*
X-13145694Y19557179D01*
X-13144186Y19545646D01*
X-13128020Y19422021D01*
X-13125179Y19415565D01*
X-13125179Y19415564D01*
X-13085479Y19325340D01*
X-13070280Y19290797D01*
X-13057208Y19275246D01*
X-12982569Y19186451D01*
X-12982566Y19186449D01*
X-12978030Y19181052D01*
X-12972159Y19177144D01*
X-12972158Y19177143D01*
X-12966195Y19173174D01*
X-12858687Y19101610D01*
X-12758080Y19070179D01*
X-12728575Y19060961D01*
X-12728574Y19060961D01*
X-12721843Y19058858D01*
X-12650172Y19057544D01*
X-12585555Y19056359D01*
X-12585553Y19056359D01*
X-12578501Y19056230D01*
X-12571698Y19058085D01*
X-12571696Y19058085D01*
X-12496497Y19078587D01*
X-12440183Y19093940D01*
X-12318009Y19168955D01*
X-12310597Y19177143D01*
X-12305135Y19183177D01*
X6987391Y19183177D01*
X6988306Y19176180D01*
X6988306Y19176179D01*
X6989814Y19164646D01*
X7005980Y19041021D01*
X7008821Y19034565D01*
X7008821Y19034564D01*
X7016586Y19016918D01*
X7063720Y18909797D01*
X7076792Y18894246D01*
X7151431Y18805451D01*
X7151434Y18805449D01*
X7155970Y18800052D01*
X7161841Y18796144D01*
X7161842Y18796143D01*
X7176973Y18786071D01*
X7275313Y18720610D01*
X7375920Y18689179D01*
X7405425Y18679961D01*
X7405426Y18679961D01*
X7412157Y18677858D01*
X7483828Y18676544D01*
X7548445Y18675359D01*
X7548447Y18675359D01*
X7555499Y18675230D01*
X7562302Y18677085D01*
X7562304Y18677085D01*
X7637503Y18697587D01*
X7693817Y18712940D01*
X7815991Y18787955D01*
X7823403Y18796143D01*
X7907468Y18889018D01*
X7912200Y18894246D01*
X7974710Y19023267D01*
X7978875Y19048018D01*
X7997862Y19160876D01*
X7997862Y19160880D01*
X7998496Y19164646D01*
X7998647Y19177000D01*
X7978323Y19318918D01*
X7918984Y19449428D01*
X7825400Y19558037D01*
X7828264Y19560505D01*
X7804410Y19598394D01*
X7808470Y19659444D01*
X7826989Y19689106D01*
X7835823Y19698865D01*
X7912200Y19783246D01*
X7974710Y19912267D01*
X7978875Y19937018D01*
X7997862Y20049876D01*
X7997862Y20049880D01*
X7998496Y20053646D01*
X7998551Y20058093D01*
X7998600Y20062174D01*
X7998647Y20066000D01*
X7978323Y20207918D01*
X7918984Y20338428D01*
X7825400Y20447037D01*
X7705095Y20525015D01*
X7567739Y20566093D01*
X7484497Y20566602D01*
X7431427Y20566926D01*
X7431426Y20566926D01*
X7424376Y20566969D01*
X7417599Y20565032D01*
X7417598Y20565032D01*
X7293309Y20529510D01*
X7293307Y20529509D01*
X7286529Y20527572D01*
X7165280Y20451070D01*
X7160613Y20445786D01*
X7160611Y20445784D01*
X7075044Y20348897D01*
X7075042Y20348895D01*
X7070377Y20343612D01*
X7009447Y20213837D01*
X6987391Y20072177D01*
X6988306Y20065180D01*
X6988306Y20065179D01*
X6989371Y20057032D01*
X7005980Y19930021D01*
X7008821Y19923565D01*
X7008821Y19923564D01*
X7052629Y19824004D01*
X7063720Y19798797D01*
X7081187Y19778018D01*
X7155970Y19689052D01*
X7154941Y19688187D01*
X7181924Y19641820D01*
X7175738Y19580948D01*
X7159364Y19555371D01*
X7150775Y19545646D01*
X7075044Y19459897D01*
X7075042Y19459895D01*
X7070377Y19454612D01*
X7009447Y19324837D01*
X7008362Y19317868D01*
X7008361Y19317865D01*
X7001726Y19275246D01*
X6987391Y19183177D01*
X-12305135Y19183177D01*
X-12226532Y19270018D01*
X-12221800Y19275246D01*
X-12159290Y19404267D01*
X-12155125Y19429018D01*
X-12136138Y19541876D01*
X-12136138Y19541880D01*
X-12135504Y19545646D01*
X-12135353Y19558000D01*
X-12155677Y19699918D01*
X-12196449Y19789591D01*
X-12212095Y19824004D01*
X-12212096Y19824005D01*
X-12215016Y19830428D01*
X-12291529Y19919225D01*
X-12303995Y19933693D01*
X-12303996Y19933694D01*
X-12308600Y19939037D01*
X-12428905Y20017015D01*
X-12566261Y20058093D01*
X-12649503Y20058602D01*
X-12702573Y20058926D01*
X-12702574Y20058926D01*
X-12709624Y20058969D01*
X-12716401Y20057032D01*
X-12716402Y20057032D01*
X-12840691Y20021510D01*
X-12840693Y20021509D01*
X-12847471Y20019572D01*
X-12968720Y19943070D01*
X-12973387Y19937786D01*
X-12973389Y19937784D01*
X-13058956Y19840897D01*
X-13058958Y19840895D01*
X-13063623Y19835612D01*
X-13124553Y19705837D01*
X-13125638Y19698868D01*
X-13125639Y19698865D01*
X-13134520Y19641820D01*
X-13146609Y19564177D01*
X-20000000Y19564177D01*
X-20000000Y23422000D01*
X-4998500Y23422000D01*
X-4978584Y23270720D01*
X-4920192Y23129750D01*
X-4827304Y23008696D01*
X-4706250Y22915808D01*
X-4565280Y22857416D01*
X-4451980Y22842500D01*
X-4376020Y22842500D01*
X-4262720Y22857416D01*
X-4121750Y22915808D01*
X-4000696Y23008696D01*
X-3907808Y23129750D01*
X-3849416Y23270720D01*
X-3829500Y23422000D01*
X781500Y23422000D01*
X801416Y23270720D01*
X859808Y23129750D01*
X952696Y23008696D01*
X1073750Y22915808D01*
X1214720Y22857416D01*
X1328020Y22842500D01*
X1403980Y22842500D01*
X1517280Y22857416D01*
X1658250Y22915808D01*
X1779304Y23008696D01*
X1872192Y23129750D01*
X1930584Y23270720D01*
X1950500Y23422000D01*
X1930584Y23573280D01*
X1872192Y23714250D01*
X1779304Y23835304D01*
X1658250Y23928192D01*
X1517280Y23986584D01*
X1403980Y24001500D01*
X1328020Y24001500D01*
X1214720Y23986584D01*
X1073750Y23928192D01*
X952696Y23835304D01*
X859808Y23714250D01*
X801416Y23573280D01*
X781500Y23422000D01*
X-3829500Y23422000D01*
X-3849416Y23573280D01*
X-3907808Y23714250D01*
X-4000696Y23835304D01*
X-4121750Y23928192D01*
X-4262720Y23986584D01*
X-4376020Y24001500D01*
X-4451980Y24001500D01*
X-4565280Y23986584D01*
X-4706250Y23928192D01*
X-4827304Y23835304D01*
X-4920192Y23714250D01*
X-4978584Y23573280D01*
X-4998500Y23422000D01*
X-20000000Y23422000D01*
X-20000000Y26422177D01*
X4574391Y26422177D01*
X4575306Y26415180D01*
X4575306Y26415179D01*
X4576814Y26403646D01*
X4592980Y26280021D01*
X4595821Y26273565D01*
X4595821Y26273564D01*
X4603586Y26255918D01*
X4650720Y26148797D01*
X4663792Y26133246D01*
X4738431Y26044451D01*
X4738434Y26044449D01*
X4742970Y26039052D01*
X4748841Y26035144D01*
X4748842Y26035143D01*
X4761143Y26026955D01*
X4862313Y25959610D01*
X4962920Y25928179D01*
X4992425Y25918961D01*
X4992426Y25918961D01*
X4999157Y25916858D01*
X5070828Y25915544D01*
X5135445Y25914359D01*
X5135447Y25914359D01*
X5142499Y25914230D01*
X5149302Y25916085D01*
X5149304Y25916085D01*
X5224503Y25936587D01*
X5280817Y25951940D01*
X5402991Y26026955D01*
X5410403Y26035143D01*
X5494468Y26128018D01*
X5499200Y26133246D01*
X5561710Y26262267D01*
X5565875Y26287018D01*
X5584862Y26399876D01*
X5584862Y26399880D01*
X5585496Y26403646D01*
X5585647Y26416000D01*
X5584762Y26422177D01*
X5844391Y26422177D01*
X5845306Y26415180D01*
X5845306Y26415179D01*
X5846814Y26403646D01*
X5862980Y26280021D01*
X5865821Y26273565D01*
X5865821Y26273564D01*
X5873586Y26255918D01*
X5920720Y26148797D01*
X5933792Y26133246D01*
X6008431Y26044451D01*
X6008434Y26044449D01*
X6012970Y26039052D01*
X6018841Y26035144D01*
X6018842Y26035143D01*
X6031143Y26026955D01*
X6132313Y25959610D01*
X6232920Y25928179D01*
X6262425Y25918961D01*
X6262426Y25918961D01*
X6269157Y25916858D01*
X6340828Y25915544D01*
X6405445Y25914359D01*
X6405447Y25914359D01*
X6412499Y25914230D01*
X6419302Y25916085D01*
X6419304Y25916085D01*
X6494503Y25936587D01*
X6550817Y25951940D01*
X6672991Y26026955D01*
X6680403Y26035143D01*
X6764468Y26128018D01*
X6769200Y26133246D01*
X6831710Y26262267D01*
X6835875Y26287018D01*
X6854862Y26399876D01*
X6854862Y26399880D01*
X6855496Y26403646D01*
X6855647Y26416000D01*
X6854762Y26422177D01*
X9654391Y26422177D01*
X9655306Y26415180D01*
X9655306Y26415179D01*
X9656814Y26403646D01*
X9672980Y26280021D01*
X9675821Y26273565D01*
X9675821Y26273564D01*
X9683586Y26255918D01*
X9730720Y26148797D01*
X9743792Y26133246D01*
X9818431Y26044451D01*
X9818434Y26044449D01*
X9822970Y26039052D01*
X9828841Y26035144D01*
X9828842Y26035143D01*
X9841143Y26026955D01*
X9942313Y25959610D01*
X10042920Y25928179D01*
X10072425Y25918961D01*
X10072426Y25918961D01*
X10079157Y25916858D01*
X10150828Y25915544D01*
X10215445Y25914359D01*
X10215447Y25914359D01*
X10222499Y25914230D01*
X10229302Y25916085D01*
X10229304Y25916085D01*
X10304503Y25936587D01*
X10360817Y25951940D01*
X10482991Y26026955D01*
X10490403Y26035143D01*
X10574468Y26128018D01*
X10579200Y26133246D01*
X10641710Y26262267D01*
X10645875Y26287018D01*
X10664862Y26399876D01*
X10664862Y26399880D01*
X10665496Y26403646D01*
X10665647Y26416000D01*
X10645323Y26557918D01*
X10585984Y26688428D01*
X10492400Y26797037D01*
X10372095Y26875015D01*
X10234739Y26916093D01*
X10151497Y26916602D01*
X10098427Y26916926D01*
X10098426Y26916926D01*
X10091376Y26916969D01*
X10084599Y26915032D01*
X10084598Y26915032D01*
X9960309Y26879510D01*
X9960307Y26879509D01*
X9953529Y26877572D01*
X9832280Y26801070D01*
X9827613Y26795786D01*
X9827611Y26795784D01*
X9742044Y26698897D01*
X9742042Y26698895D01*
X9737377Y26693612D01*
X9676447Y26563837D01*
X9654391Y26422177D01*
X6854762Y26422177D01*
X6835323Y26557918D01*
X6775984Y26688428D01*
X6682400Y26797037D01*
X6562095Y26875015D01*
X6424739Y26916093D01*
X6341497Y26916602D01*
X6288427Y26916926D01*
X6288426Y26916926D01*
X6281376Y26916969D01*
X6274599Y26915032D01*
X6274598Y26915032D01*
X6150309Y26879510D01*
X6150307Y26879509D01*
X6143529Y26877572D01*
X6022280Y26801070D01*
X6017613Y26795786D01*
X6017611Y26795784D01*
X5932044Y26698897D01*
X5932042Y26698895D01*
X5927377Y26693612D01*
X5866447Y26563837D01*
X5844391Y26422177D01*
X5584762Y26422177D01*
X5565323Y26557918D01*
X5505984Y26688428D01*
X5412400Y26797037D01*
X5292095Y26875015D01*
X5154739Y26916093D01*
X5071497Y26916602D01*
X5018427Y26916926D01*
X5018426Y26916926D01*
X5011376Y26916969D01*
X5004599Y26915032D01*
X5004598Y26915032D01*
X4880309Y26879510D01*
X4880307Y26879509D01*
X4873529Y26877572D01*
X4752280Y26801070D01*
X4747613Y26795786D01*
X4747611Y26795784D01*
X4662044Y26698897D01*
X4662042Y26698895D01*
X4657377Y26693612D01*
X4596447Y26563837D01*
X4574391Y26422177D01*
X-20000000Y26422177D01*
X-20000000Y26864634D01*
X-19981093Y26922825D01*
X-19938254Y26955813D01*
X-19938275Y26955855D01*
X-19827584Y27011769D01*
X-19758711Y27046559D01*
X-19758709Y27046560D01*
X-19754390Y27048742D01*
X-19719057Y27076347D01*
X-19595865Y27172594D01*
X-19595861Y27172598D01*
X-19592049Y27175576D01*
X-19457436Y27331528D01*
X-19448598Y27347086D01*
X-19358066Y27506450D01*
X-19358065Y27506453D01*
X-19355677Y27510656D01*
X-19347049Y27536591D01*
X-19292176Y27701546D01*
X-19292176Y27701548D01*
X-19290649Y27706137D01*
X-19277632Y27809174D01*
X-19265177Y27907772D01*
X-19264829Y27910526D01*
X-19264417Y27940000D01*
X-19265862Y27954738D01*
X-18835480Y27954738D01*
X-18834474Y27942756D01*
X-18822540Y27800646D01*
X-18818241Y27749447D01*
X-18816908Y27744799D01*
X-18816908Y27744798D01*
X-18792382Y27659267D01*
X-18761456Y27551414D01*
X-18667288Y27368182D01*
X-18539323Y27206730D01*
X-18535643Y27203598D01*
X-18535641Y27203596D01*
X-18422983Y27107717D01*
X-18382436Y27073209D01*
X-18378213Y27070849D01*
X-18378209Y27070846D01*
X-18338658Y27048742D01*
X-18202602Y26972703D01*
X-18198004Y26971209D01*
X-18011276Y26910537D01*
X-18011274Y26910536D01*
X-18006671Y26909041D01*
X-17802106Y26884649D01*
X-17797284Y26885020D01*
X-17797281Y26885020D01*
X-17726741Y26890448D01*
X-17596700Y26900454D01*
X-17398275Y26955855D01*
X-17393962Y26958034D01*
X-17393956Y26958036D01*
X-17218711Y27046559D01*
X-17218709Y27046560D01*
X-17214390Y27048742D01*
X-17179057Y27076347D01*
X-17055865Y27172594D01*
X-17055861Y27172598D01*
X-17052049Y27175576D01*
X-16917436Y27331528D01*
X-16908598Y27347086D01*
X-16818066Y27506450D01*
X-16818065Y27506453D01*
X-16815677Y27510656D01*
X-16807049Y27536591D01*
X-16752176Y27701546D01*
X-16752176Y27701548D01*
X-16750649Y27706137D01*
X-16737632Y27809174D01*
X-16725177Y27907772D01*
X-16724829Y27910526D01*
X-16724417Y27940000D01*
X-16725862Y27954738D01*
X-16295480Y27954738D01*
X-16294474Y27942756D01*
X-16282540Y27800646D01*
X-16278241Y27749447D01*
X-16276908Y27744799D01*
X-16276908Y27744798D01*
X-16252382Y27659267D01*
X-16221456Y27551414D01*
X-16127288Y27368182D01*
X-15999323Y27206730D01*
X-15995643Y27203598D01*
X-15995641Y27203596D01*
X-15882983Y27107717D01*
X-15842436Y27073209D01*
X-15838213Y27070849D01*
X-15838209Y27070846D01*
X-15798658Y27048742D01*
X-15662602Y26972703D01*
X-15658004Y26971209D01*
X-15471276Y26910537D01*
X-15471274Y26910536D01*
X-15466671Y26909041D01*
X-15262106Y26884649D01*
X-15257284Y26885020D01*
X-15257281Y26885020D01*
X-15186741Y26890448D01*
X-15056700Y26900454D01*
X-14858275Y26955855D01*
X-14853962Y26958034D01*
X-14853956Y26958036D01*
X-14678711Y27046559D01*
X-14678709Y27046560D01*
X-14674390Y27048742D01*
X-14639057Y27076347D01*
X-14515865Y27172594D01*
X-14515861Y27172598D01*
X-14512049Y27175576D01*
X-14377436Y27331528D01*
X-14368598Y27347086D01*
X-14278066Y27506450D01*
X-14278065Y27506453D01*
X-14275677Y27510656D01*
X-14267049Y27536591D01*
X-14212176Y27701546D01*
X-14212176Y27701548D01*
X-14210649Y27706137D01*
X-14197632Y27809174D01*
X-14185177Y27907772D01*
X-14184829Y27910526D01*
X-14184417Y27940000D01*
X-14185862Y27954738D01*
X-13755480Y27954738D01*
X-13754474Y27942756D01*
X-13742540Y27800646D01*
X-13738241Y27749447D01*
X-13736908Y27744799D01*
X-13736908Y27744798D01*
X-13712382Y27659267D01*
X-13681456Y27551414D01*
X-13587288Y27368182D01*
X-13459323Y27206730D01*
X-13455643Y27203598D01*
X-13455641Y27203596D01*
X-13342983Y27107717D01*
X-13302436Y27073209D01*
X-13298213Y27070849D01*
X-13298209Y27070846D01*
X-13258658Y27048742D01*
X-13122602Y26972703D01*
X-13118004Y26971209D01*
X-12931276Y26910537D01*
X-12931274Y26910536D01*
X-12926671Y26909041D01*
X-12722106Y26884649D01*
X-12717284Y26885020D01*
X-12717281Y26885020D01*
X-12646741Y26890448D01*
X-12516700Y26900454D01*
X-12318275Y26955855D01*
X-12313962Y26958034D01*
X-12313956Y26958036D01*
X-12138711Y27046559D01*
X-12138709Y27046560D01*
X-12134390Y27048742D01*
X-12106858Y27070252D01*
X-8670500Y27070252D01*
X-8658867Y27011769D01*
X-8614552Y26945448D01*
X-8548231Y26901133D01*
X-8538668Y26899231D01*
X-8538666Y26899230D01*
X-8515995Y26894721D01*
X-8489748Y26889500D01*
X-6750252Y26889500D01*
X-6724005Y26894721D01*
X-6701334Y26899230D01*
X-6701332Y26899231D01*
X-6691769Y26901133D01*
X-6625448Y26945448D01*
X-6581133Y27011769D01*
X-6569500Y27070252D01*
X-6569500Y27819177D01*
X16394391Y27819177D01*
X16395306Y27812180D01*
X16395306Y27812179D01*
X16396528Y27802836D01*
X16412980Y27677021D01*
X16415821Y27670565D01*
X16415821Y27670564D01*
X16423586Y27652918D01*
X16470720Y27545797D01*
X16508915Y27500359D01*
X16558431Y27441451D01*
X16558434Y27441449D01*
X16562970Y27436052D01*
X16568841Y27432144D01*
X16568842Y27432143D01*
X16581143Y27423955D01*
X16682313Y27356610D01*
X16774332Y27327862D01*
X16812425Y27315961D01*
X16812426Y27315961D01*
X16819157Y27313858D01*
X16890828Y27312544D01*
X16955445Y27311359D01*
X16955447Y27311359D01*
X16962499Y27311230D01*
X16969302Y27313085D01*
X16969304Y27313085D01*
X17052400Y27335740D01*
X17100817Y27348940D01*
X17222991Y27423955D01*
X17230403Y27432143D01*
X17314468Y27525018D01*
X17319200Y27530246D01*
X17381710Y27659267D01*
X17385875Y27684018D01*
X17404862Y27796876D01*
X17404862Y27796880D01*
X17405496Y27800646D01*
X17405647Y27813000D01*
X17385323Y27954918D01*
X17325984Y28085428D01*
X17232400Y28194037D01*
X17112095Y28272015D01*
X16974739Y28313093D01*
X16891497Y28313602D01*
X16838427Y28313926D01*
X16838426Y28313926D01*
X16831376Y28313969D01*
X16824599Y28312032D01*
X16824598Y28312032D01*
X16700309Y28276510D01*
X16700307Y28276509D01*
X16693529Y28274572D01*
X16572280Y28198070D01*
X16567613Y28192786D01*
X16567611Y28192784D01*
X16482044Y28095897D01*
X16482042Y28095895D01*
X16477377Y28090612D01*
X16416447Y27960837D01*
X16415362Y27953868D01*
X16415361Y27953865D01*
X16408185Y27907772D01*
X16394391Y27819177D01*
X-6569500Y27819177D01*
X-6569500Y28809748D01*
X-6581133Y28868231D01*
X-6625448Y28934552D01*
X-6691769Y28978867D01*
X-6701332Y28980769D01*
X-6701334Y28980770D01*
X-6724005Y28985279D01*
X-6750252Y28990500D01*
X-8489748Y28990500D01*
X-8515995Y28985279D01*
X-8538666Y28980770D01*
X-8538668Y28980769D01*
X-8548231Y28978867D01*
X-8614552Y28934552D01*
X-8658867Y28868231D01*
X-8670500Y28809748D01*
X-8670500Y27070252D01*
X-12106858Y27070252D01*
X-12099057Y27076347D01*
X-11975865Y27172594D01*
X-11975861Y27172598D01*
X-11972049Y27175576D01*
X-11837436Y27331528D01*
X-11828598Y27347086D01*
X-11738066Y27506450D01*
X-11738065Y27506453D01*
X-11735677Y27510656D01*
X-11727049Y27536591D01*
X-11672176Y27701546D01*
X-11672176Y27701548D01*
X-11670649Y27706137D01*
X-11657632Y27809174D01*
X-11645177Y27907772D01*
X-11644829Y27910526D01*
X-11644417Y27940000D01*
X-11645862Y27954738D01*
X-11664048Y28140220D01*
X-11664049Y28140224D01*
X-11664520Y28145030D01*
X-11724065Y28342251D01*
X-11820782Y28524151D01*
X-11950989Y28683800D01*
X-11982762Y28710085D01*
X-12105998Y28812035D01*
X-12106000Y28812036D01*
X-12109725Y28815118D01*
X-12290945Y28913103D01*
X-12360236Y28934552D01*
X-12483125Y28972593D01*
X-12483129Y28972594D01*
X-12487746Y28974023D01*
X-12492554Y28974528D01*
X-12492557Y28974529D01*
X-12687815Y28995051D01*
X-12687817Y28995051D01*
X-12692631Y28995557D01*
X-12748200Y28990500D01*
X-12892978Y28977325D01*
X-12892983Y28977324D01*
X-12897797Y28976886D01*
X-13095428Y28918720D01*
X-13099712Y28916481D01*
X-13099713Y28916480D01*
X-13110572Y28910803D01*
X-13277998Y28823274D01*
X-13281769Y28820242D01*
X-13434780Y28697219D01*
X-13434783Y28697217D01*
X-13438553Y28694185D01*
X-13441667Y28690474D01*
X-13441668Y28690473D01*
X-13450415Y28680048D01*
X-13570976Y28536370D01*
X-13573311Y28532122D01*
X-13573312Y28532121D01*
X-13579309Y28521212D01*
X-13670224Y28355838D01*
X-13671687Y28351225D01*
X-13671689Y28351221D01*
X-13684120Y28312032D01*
X-13732516Y28159468D01*
X-13733056Y28154656D01*
X-13733056Y28154655D01*
X-13754739Y27961340D01*
X-13755480Y27954738D01*
X-14185862Y27954738D01*
X-14204048Y28140220D01*
X-14204049Y28140224D01*
X-14204520Y28145030D01*
X-14264065Y28342251D01*
X-14360782Y28524151D01*
X-14490989Y28683800D01*
X-14522762Y28710085D01*
X-14645998Y28812035D01*
X-14646000Y28812036D01*
X-14649725Y28815118D01*
X-14830945Y28913103D01*
X-14900236Y28934552D01*
X-15023125Y28972593D01*
X-15023129Y28972594D01*
X-15027746Y28974023D01*
X-15032554Y28974528D01*
X-15032557Y28974529D01*
X-15227815Y28995051D01*
X-15227817Y28995051D01*
X-15232631Y28995557D01*
X-15288200Y28990500D01*
X-15432978Y28977325D01*
X-15432983Y28977324D01*
X-15437797Y28976886D01*
X-15635428Y28918720D01*
X-15639712Y28916481D01*
X-15639713Y28916480D01*
X-15650572Y28910803D01*
X-15817998Y28823274D01*
X-15821769Y28820242D01*
X-15974780Y28697219D01*
X-15974783Y28697217D01*
X-15978553Y28694185D01*
X-15981667Y28690474D01*
X-15981668Y28690473D01*
X-15990415Y28680048D01*
X-16110976Y28536370D01*
X-16113311Y28532122D01*
X-16113312Y28532121D01*
X-16119309Y28521212D01*
X-16210224Y28355838D01*
X-16211687Y28351225D01*
X-16211689Y28351221D01*
X-16224120Y28312032D01*
X-16272516Y28159468D01*
X-16273056Y28154656D01*
X-16273056Y28154655D01*
X-16294739Y27961340D01*
X-16295480Y27954738D01*
X-16725862Y27954738D01*
X-16744048Y28140220D01*
X-16744049Y28140224D01*
X-16744520Y28145030D01*
X-16804065Y28342251D01*
X-16900782Y28524151D01*
X-17030989Y28683800D01*
X-17062762Y28710085D01*
X-17185998Y28812035D01*
X-17186000Y28812036D01*
X-17189725Y28815118D01*
X-17370945Y28913103D01*
X-17440236Y28934552D01*
X-17563125Y28972593D01*
X-17563129Y28972594D01*
X-17567746Y28974023D01*
X-17572554Y28974528D01*
X-17572557Y28974529D01*
X-17767815Y28995051D01*
X-17767817Y28995051D01*
X-17772631Y28995557D01*
X-17828200Y28990500D01*
X-17972978Y28977325D01*
X-17972983Y28977324D01*
X-17977797Y28976886D01*
X-18175428Y28918720D01*
X-18179712Y28916481D01*
X-18179713Y28916480D01*
X-18190572Y28910803D01*
X-18357998Y28823274D01*
X-18361769Y28820242D01*
X-18514780Y28697219D01*
X-18514783Y28697217D01*
X-18518553Y28694185D01*
X-18521667Y28690474D01*
X-18521668Y28690473D01*
X-18530415Y28680048D01*
X-18650976Y28536370D01*
X-18653311Y28532122D01*
X-18653312Y28532121D01*
X-18659309Y28521212D01*
X-18750224Y28355838D01*
X-18751687Y28351225D01*
X-18751689Y28351221D01*
X-18764120Y28312032D01*
X-18812516Y28159468D01*
X-18813056Y28154656D01*
X-18813056Y28154655D01*
X-18834739Y27961340D01*
X-18835480Y27954738D01*
X-19265862Y27954738D01*
X-19284048Y28140220D01*
X-19284049Y28140224D01*
X-19284520Y28145030D01*
X-19344065Y28342251D01*
X-19440782Y28524151D01*
X-19570989Y28683800D01*
X-19602762Y28710085D01*
X-19725998Y28812035D01*
X-19726000Y28812036D01*
X-19729725Y28815118D01*
X-19910945Y28913103D01*
X-19915561Y28914532D01*
X-19915566Y28914534D01*
X-19930277Y28919088D01*
X-19980273Y28954358D01*
X-20000000Y29013660D01*
X-20000000Y29700500D01*
X-19981093Y29758691D01*
X-19931593Y29794655D01*
X-19901000Y29799500D01*
X17052849Y29799500D01*
X17111040Y29780593D01*
G37*
G04 #@! TD.AperFunction*
M02*
