G04 #@! TF.GenerationSoftware,KiCad,Pcbnew,(6.0.9)*
G04 #@! TF.CreationDate,2024-01-10T20:12:20+09:00*
G04 #@! TF.ProjectId,BatteryBoard,42617474-6572-4794-926f-6172642e6b69,rev?*
G04 #@! TF.SameCoordinates,Original*
G04 #@! TF.FileFunction,Soldermask,Bot*
G04 #@! TF.FilePolarity,Negative*
%FSLAX46Y46*%
G04 Gerber Fmt 4.6, Leading zero omitted, Abs format (unit mm)*
G04 Created by KiCad (PCBNEW (6.0.9)) date 2024-01-10 20:12:20*
%MOMM*%
%LPD*%
G01*
G04 APERTURE LIST*
G04 Aperture macros list*
%AMRoundRect*
0 Rectangle with rounded corners*
0 $1 Rounding radius*
0 $2 $3 $4 $5 $6 $7 $8 $9 X,Y pos of 4 corners*
0 Add a 4 corners polygon primitive as box body*
4,1,4,$2,$3,$4,$5,$6,$7,$8,$9,$2,$3,0*
0 Add four circle primitives for the rounded corners*
1,1,$1+$1,$2,$3*
1,1,$1+$1,$4,$5*
1,1,$1+$1,$6,$7*
1,1,$1+$1,$8,$9*
0 Add four rect primitives between the rounded corners*
20,1,$1+$1,$2,$3,$4,$5,0*
20,1,$1+$1,$4,$5,$6,$7,0*
20,1,$1+$1,$6,$7,$8,$9,0*
20,1,$1+$1,$8,$9,$2,$3,0*%
G04 Aperture macros list end*
%ADD10R,1.500000X2.500000*%
%ADD11O,1.500000X2.500000*%
%ADD12C,3.000000*%
%ADD13R,1.700000X1.700000*%
%ADD14O,1.700000X1.700000*%
%ADD15O,1.000000X1.700000*%
%ADD16C,0.700000*%
%ADD17C,4.400000*%
%ADD18RoundRect,0.250000X0.625000X-0.350000X0.625000X0.350000X-0.625000X0.350000X-0.625000X-0.350000X0*%
%ADD19O,1.750000X1.200000*%
G04 APERTURE END LIST*
D10*
X142380000Y-127432000D03*
D11*
X139840000Y-127432000D03*
X137300000Y-127432000D03*
D12*
X164810000Y-80950000D03*
X164810000Y-86030000D03*
X172430000Y-83490000D03*
X122490000Y-83490000D03*
X130110000Y-80950000D03*
X130110000Y-86030000D03*
D13*
X122060000Y-107620000D03*
D14*
X122060000Y-110160000D03*
X122060000Y-112700000D03*
X122060000Y-115240000D03*
X122060000Y-117780000D03*
X122060000Y-120320000D03*
X122060000Y-122860000D03*
D15*
X145680000Y-123641000D03*
X154320000Y-123641000D03*
X145680000Y-127441000D03*
X154320000Y-127441000D03*
D16*
X175850000Y-127500000D03*
X178666726Y-128666726D03*
X178666726Y-126333274D03*
X179150000Y-127500000D03*
D17*
X177500000Y-127500000D03*
D16*
X177500000Y-129150000D03*
X177500000Y-125850000D03*
X176333274Y-126333274D03*
X176333274Y-128666726D03*
D12*
X127570000Y-103810000D03*
X135190000Y-106350000D03*
X135190000Y-101270000D03*
X169890000Y-101270000D03*
X177510000Y-103810000D03*
X169890000Y-106350000D03*
D13*
X142380000Y-72060000D03*
D14*
X139840000Y-72060000D03*
X137300000Y-72060000D03*
X134760000Y-72060000D03*
X132220000Y-72060000D03*
X129680000Y-72060000D03*
X127140000Y-72060000D03*
D18*
X173834000Y-122082000D03*
D19*
X173834000Y-120082000D03*
D13*
X122060000Y-105080000D03*
D14*
X122060000Y-102540000D03*
X122060000Y-100000000D03*
X122060000Y-97460000D03*
D13*
X177940000Y-92380000D03*
D14*
X177940000Y-89840000D03*
X177940000Y-87300000D03*
X177940000Y-84760000D03*
X177940000Y-82220000D03*
X177940000Y-79680000D03*
X177940000Y-77140000D03*
D13*
X157620000Y-127940000D03*
D14*
X160160000Y-127940000D03*
X162700000Y-127940000D03*
X165240000Y-127940000D03*
X167780000Y-127940000D03*
X170320000Y-127940000D03*
X172860000Y-127940000D03*
D16*
X122500000Y-129150000D03*
X123666726Y-128666726D03*
X121333274Y-128666726D03*
X121333274Y-126333274D03*
X122500000Y-125850000D03*
X124150000Y-127500000D03*
X120850000Y-127500000D03*
D17*
X122500000Y-127500000D03*
D16*
X123666726Y-126333274D03*
X123666726Y-73666726D03*
X121333274Y-71333274D03*
D17*
X122500000Y-72500000D03*
D16*
X121333274Y-73666726D03*
X123666726Y-71333274D03*
X120850000Y-72500000D03*
X122500000Y-70850000D03*
X124150000Y-72500000D03*
X122500000Y-74150000D03*
X178666726Y-71333274D03*
X175850000Y-72500000D03*
X176333274Y-71333274D03*
X176333274Y-73666726D03*
X177500000Y-70850000D03*
X179150000Y-72500000D03*
X177500000Y-74150000D03*
X178666726Y-73666726D03*
D17*
X177500000Y-72500000D03*
M02*
