M48
; DRILL file {KiCad (6.0.9)} date Wed Jan 10 20:14:05 2024
; FORMAT={2:4/ absolute / inch / suppress leading zeros}
; #@! TF.CreationDate,2024-01-10T20:14:05+09:00
; #@! TF.GenerationSoftware,Kicad,Pcbnew,(6.0.9)
; #@! TF.FileFunction,MixedPlating,1,4
FMAT,2
INCH,TZ
; #@! TA.AperFunction,Plated,PTH,ViaDrill
T1C0.0079
; #@! TA.AperFunction,Plated,PTH,ComponentDrill
T2C0.0079
; #@! TA.AperFunction,Plated,PTH,ViaDrill
T3C0.0118
; #@! TA.AperFunction,Plated,PTH,ComponentDrill
T4C0.0157
; #@! TA.AperFunction,Plated,PTH,ViaDrill
T5C0.0187
; #@! TA.AperFunction,Plated,PTH,ComponentDrill
T6C0.0197
; #@! TA.AperFunction,Plated,PTH,ComponentDrill
T7C0.0295
; #@! TA.AperFunction,Plated,PTH,ComponentDrill
T8C0.0315
; #@! TA.AperFunction,Plated,PTH,ComponentDrill
T9C0.0394
; #@! TA.AperFunction,Plated,PTH,ComponentDrill
T10C0.0720
; #@! TA.AperFunction,Plated,PTH,ComponentDrill
T11C0.0866
%
G90
G05
T1
X51455Y-44950
X51455Y-48550
T2
X65712Y-46770
X65984Y-46499
X65984Y-47042
X66255Y-46227
X66255Y-46770
X66255Y-47313
X66527Y-46499
X66527Y-47042
X66798Y-46770
T3
X47555Y-29870
X47555Y-30870
X47555Y-31870
X47555Y-33870
X47555Y-34870
X47555Y-35870
X47555Y-36870
X47555Y-37870
X47555Y-38870
X47555Y-39870
X47555Y-43870
X47555Y-44870
X47555Y-45870
X47555Y-46870
X47555Y-47870
X47555Y-48870
X48755Y-48470
X49355Y-46070
X49355Y-50070
X49455Y-43970
X49455Y-47570
X49555Y-27870
X49555Y-29870
X49555Y-35870
X49555Y-37870
X49555Y-50870
X49655Y-46070
X49655Y-50070
X49755Y-43970
X49755Y-44270
X49755Y-47570
X49755Y-47870
X49955Y-43370
X49955Y-43670
X49955Y-46970
X49955Y-47270
X50055Y-45770
X50055Y-46070
X50055Y-46370
X50055Y-46670
X50055Y-49370
X50055Y-49670
X50055Y-49970
X50055Y-50270
X50355Y-45770
X50355Y-46070
X50355Y-46370
X50355Y-46670
X50355Y-49370
X50355Y-49670
X50355Y-49970
X50355Y-50270
X50555Y-27870
X50555Y-50870
X50575Y-44930
X50575Y-48530
X50755Y-47270
X50955Y-44370
X50955Y-47970
X51455Y-45970
X51455Y-46270
X51455Y-46570
X51455Y-46870
X51455Y-49570
X51455Y-49870
X51455Y-50170
X51455Y-50470
X51555Y-27870
X51555Y-29870
X51555Y-35870
X51555Y-37870
X51555Y-50870
X51655Y-43470
X52155Y-44570
X52155Y-48170
X52355Y-45670
X52355Y-49270
X52555Y-27870
X52555Y-46270
X52555Y-46570
X52555Y-46870
X52555Y-47170
X52555Y-49770
X52555Y-50070
X52555Y-50870
X52855Y-46270
X52855Y-46570
X52855Y-46870
X52855Y-47170
X52855Y-49770
X52855Y-50070
X53055Y-31370
X53055Y-34370
X53155Y-43970
X53555Y-27870
X53555Y-37870
X53555Y-49370
X53555Y-50870
X54155Y-43470
X54155Y-44270
X54555Y-27870
X54555Y-50870
X54955Y-48420
X54955Y-48720
X54955Y-49020
X54955Y-49320
X55455Y-45470
X55555Y-50870
X56555Y-50870
X56955Y-43670
X57055Y-40120
X57055Y-41620
X57055Y-42870
X57555Y-27870
X57555Y-50870
X57905Y-46420
X58055Y-30370
X58055Y-32870
X58055Y-35370
X58055Y-37870
X58405Y-44820
X58455Y-44370
X58455Y-45220
X58455Y-48170
X58555Y-27870
X58555Y-50870
X58655Y-43670
X59055Y-50070
X59255Y-45270
X59255Y-46620
X59555Y-27870
X59555Y-43120
X59555Y-50870
X59655Y-47570
X60055Y-43770
X60055Y-46170
X60455Y-45270
X60455Y-46895
X60555Y-27870
X60555Y-41620
X60555Y-50870
X60955Y-47470
X61555Y-27870
X61555Y-40370
X61755Y-47870
X61755Y-48970
X62055Y-43120
X62055Y-46020
X62555Y-27870
X62655Y-44370
X63055Y-31370
X63055Y-34370
X63055Y-37370
X63155Y-48570
X63155Y-48870
X63255Y-45870
X63455Y-45670
X63455Y-46070
X63455Y-48570
X63455Y-48870
X63555Y-27870
X63555Y-50870
X63655Y-45870
X63655Y-46270
X63855Y-46070
X64055Y-46270
X64105Y-48970
X64155Y-45170
X64555Y-27870
X64555Y-29870
X64655Y-45670
X65055Y-40370
X65055Y-42120
X65055Y-43870
X65055Y-49670
X65555Y-27870
X65555Y-49570
X65855Y-49270
X65955Y-48770
X66055Y-45270
X66205Y-49770
X66255Y-48070
X66555Y-27870
X66555Y-29870
X66555Y-35870
X66655Y-48070
X66805Y-43620
X66805Y-44620
X66955Y-47770
X67055Y-49770
X67455Y-46820
X67555Y-27870
X67555Y-37870
X67575Y-48290
X67755Y-46170
X68255Y-48970
X68555Y-27870
X68555Y-29870
X68555Y-35870
X68555Y-50870
X68655Y-45970
X68805Y-43870
X68955Y-48970
X69055Y-47270
X69355Y-46270
X69455Y-47170
X69455Y-48270
X69455Y-48670
X70555Y-29870
X70555Y-30870
X70555Y-31870
X70555Y-32870
X70555Y-33870
X70555Y-34870
X70555Y-37870
X70555Y-43870
X70555Y-44870
X70555Y-45870
X70555Y-46870
X70555Y-47870
X70555Y-48870
T4
X47579Y-28543
X47579Y-50197
X47769Y-28084
X47769Y-29003
X47769Y-49738
X47769Y-50656
X48228Y-27894
X48228Y-29193
X48228Y-49547
X48228Y-50846
X48688Y-28084
X48688Y-29003
X48688Y-49738
X48688Y-50656
X48878Y-28543
X48878Y-50197
X69232Y-28543
X69232Y-50197
X69423Y-28084
X69423Y-29003
X69423Y-49738
X69423Y-50656
X69882Y-27894
X69882Y-29193
X69882Y-49547
X69882Y-50846
X70341Y-28084
X70341Y-29003
X70341Y-49738
X70341Y-50656
X70531Y-28543
X70531Y-50197
T5
X64737Y-47620
X66255Y-45663
T7
X68439Y-47276
X68439Y-48064
T8
X54055Y-50170
X55055Y-50170
X56055Y-50170
T9
X48055Y-38370
X48055Y-39370
X48055Y-40370
X48055Y-41370
X48055Y-42370
X48055Y-43370
X48055Y-44370
X48055Y-45370
X48055Y-46370
X48055Y-47370
X48055Y-48370
X50055Y-28370
X51055Y-28370
X52055Y-28370
X53055Y-28370
X54055Y-28370
X55055Y-28370
X56055Y-28370
X62055Y-50370
X63055Y-50370
X64055Y-50370
X65055Y-50370
X66055Y-50370
X67055Y-50370
X68055Y-50370
X70055Y-30370
X70055Y-31370
X70055Y-32370
X70055Y-33370
X70055Y-34370
X70055Y-35370
X70055Y-36370
T10
X48224Y-32870
X50224Y-40870
X51224Y-31870
X51224Y-33870
X53224Y-39870
X53224Y-41870
X64886Y-31870
X64886Y-33870
X66886Y-39870
X66886Y-41870
X67886Y-32870
X69886Y-40870
T11
X48228Y-28543
X48228Y-50197
X69882Y-28543
X69882Y-50197
T6
G00X57354Y-48540
M15
G01X57354Y-48815
M16
G05
G00X57354Y-50036
M15
G01X57354Y-50311
M16
G05
G00X60756Y-48540
M15
G01X60756Y-48815
M16
G05
G00X60756Y-50036
M15
G01X60756Y-50311
M16
G05
T0
M30
