<?xml version="1.0" standalone="no"?>
 <!DOCTYPE svg PUBLIC "-//W3C//DTD SVG 1.1//EN" 
 "http://www.w3.org/Graphics/SVG/1.1/DTD/svg11.dtd"> 
<svg
  xmlns:svg="http://www.w3.org/2000/svg"
  xmlns="http://www.w3.org/2000/svg"
  xmlns:xlink="http://www.w3.org/1999/xlink"
  version="1.1"
  width="29.700220cm" height="21.000720cm" viewBox="0 0 297002200 210007200">
<title>SVG Picture created as CommunicationBoard-F_Silkscreen.svg date 2024/05/02 17:07:30 </title>
  <desc>Picture generated by PCBNEW </desc>
<g style="fill:#000000; fill-opacity:1.000000;stroke:#000000; stroke-opacity:1.000000;
stroke-linecap:round; stroke-linejoin:round;"
 transform="translate(0 0) scale(1 1)">
</g>
<g style="fill:#000000; fill-opacity:0.0; 
stroke:#000000; stroke-width:0.000000; stroke-opacity:1; 
stroke-linecap:round; stroke-linejoin:round;">
</g>
<g style="fill:#000000; fill-opacity:0.0; 
stroke:#000000; stroke-width:100000.000000; stroke-opacity:1; 
stroke-linecap:round; stroke-linejoin:round;">
<path d="M175000000.000000 70500000.000000 A500000.000000 500000.000000 0.0 0 0 174500000.000000 70000000.000000" />
<path d="M117500000.000000 70000000.000000 A2500000.000000 2500000.000000 0.0 0 0 115000000.000000 72500000.000000" />
<path d="M120000000 111000000
L120000000 124000000
" />
<path d="M169000000 110000000
L121000000 110000000
" />
<path d="M172500000.000000 130000000.000000 A2500000.000000 2500000.000000 0.0 0 0 175000000.000000 127500000.000000" />
<path d="M169000000.000000 125000000.000000 A1000000.000000 1000000.000000 0.0 0 0 170000000.000000 124000000.000000" />
<path d="M169000000 125000000
L121000000 125000000
" />
<path d="M117500000 70000000
L174500000 70000000
" />
<path d="M115000000.000000 127500000.000000 A2500000.000000 2500000.000000 0.0 0 0 117500000.000000 130000000.000000" />
<path d="M117500000 130000000
L172500000 130000000
" />
<path d="M170000000 124000000
L170000000 111000000
" />
<path d="M175000000 70500000
L175000000 127500000
" />
<path d="M115000000 127500000
L115000000 72500000
" />
<path d="M121000000.000000 110000000.000000 A1000000.000000 1000000.000000 0.0 0 0 120000000.000000 111000000.000000" />
<path d="M120000000.000000 124000000.000000 A1000000.000000 1000000.000000 0.0 0 0 121000000.000000 125000000.000000" />
<path d="M170000000.000000 111000000.000000 A1000000.000000 1000000.000000 0.0 0 0 169000000.000000 110000000.000000" />
</g>
<g style="fill:#000000; fill-opacity:0.0; 
stroke:#000000; stroke-width:150000.000000; stroke-opacity:1; 
stroke-linecap:round; stroke-linejoin:round;">
<text x="137634000.000000" y="75100000.000000"
textLength="2550000.000000" font-size="1066666.000000" lengthAdjust="spacingAndGlyphs"
text-anchor="middle" opacity="0">USB</text>
<g class="stroked-text"><desc>USB</desc>
<path d="M136624476 74052380
L136624476 74861904
L136662571 74957142
L136700666 75004761
L136776857 75052380
L136929238 75052380
L137005428 75004761
L137043523 74957142
L137081619 74861904
L137081619 74052380
" />
<path d="M137424476 75004761
L137538761 75052380
L137729238 75052380
L137805428 75004761
L137843523 74957142
L137881619 74861904
L137881619 74766666
L137843523 74671428
L137805428 74623809
L137729238 74576190
L137576857 74528571
L137500666 74480952
L137462571 74433333
L137424476 74338095
L137424476 74242857
L137462571 74147619
L137500666 74100000
L137576857 74052380
L137767333 74052380
L137881619 74100000
" />
<path d="M138491142 74528571
L138605428 74576190
L138643523 74623809
L138681619 74719047
L138681619 74861904
L138643523 74957142
L138605428 75004761
L138529238 75052380
L138224476 75052380
L138224476 74052380
L138491142 74052380
L138567333 74100000
L138605428 74147619
L138643523 74242857
L138643523 74338095
L138605428 74433333
L138567333 74480952
L138491142 74528571
L138224476 74528571
" />
</g><text x="161764000.000000" y="92372000.000000"
textLength="3099762.000000" font-size="1333333.000000" lengthAdjust="spacingAndGlyphs"
text-anchor="middle" opacity="0">DFU</text>
<g class="stroked-text"><desc>DFU</desc>
<path d="M160549714 92324380
L160549714 91324380
L160787809 91324380
L160930666 91372000
L161025904 91467238
L161073523 91562476
L161121142 91752952
L161121142 91895809
L161073523 92086285
L161025904 92181523
L160930666 92276761
L160787809 92324380
L160549714 92324380
" />
<path d="M161883047 91800571
L161549714 91800571
" />
<path d="M161549714 92324380
L161549714 91324380
L162025904 91324380
" />
<path d="M162406857 91324380
L162406857 92133904
L162454476 92229142
L162502095 92276761
L162597333 92324380
L162787809 92324380
L162883047 92276761
L162930666 92229142
L162978285 92133904
L162978285 91324380
" />
</g><text x="134840000.000000" y="76624000.000000"
textLength="3004524.000000" font-size="1333333.000000" lengthAdjust="spacingAndGlyphs"
text-anchor="middle" opacity="0">CLR</text>
<g class="stroked-text"><desc>CLR</desc>
<path d="M134244761 76481142
L134197142 76528761
L134054285 76576380
L133959047 76576380
L133816190 76528761
L133720952 76433523
L133673333 76338285
L133625714 76147809
L133625714 76004952
L133673333 75814476
L133720952 75719238
L133816190 75624000
L133959047 75576380
L134054285 75576380
L134197142 75624000
L134244761 75671619
" />
<path d="M135149523 76576380
L134673333 76576380
L134673333 75576380
" />
<path d="M136054285 76576380
L135720952 76100190
" />
<path d="M135482857 76576380
L135482857 75576380
L135863809 75576380
L135959047 75624000
L136006666 75671619
L136054285 75766857
L136054285 75909714
L136006666 76004952
L135959047 76052571
L135863809 76100190
L135482857 76100190
" />
</g><text x="157954000.000000" y="92372000.000000"
textLength="2909286.000000" font-size="1333333.000000" lengthAdjust="spacingAndGlyphs"
text-anchor="middle" opacity="0">RST</text>
<g class="stroked-text"><desc>RST</desc>
<path d="M157406380 92324380
L157073047 91848190
" />
<path d="M156834952 92324380
L156834952 91324380
L157215904 91324380
L157311142 91372000
L157358761 91419619
L157406380 91514857
L157406380 91657714
L157358761 91752952
L157311142 91800571
L157215904 91848190
L156834952 91848190
" />
<path d="M157787333 92276761
L157930190 92324380
L158168285 92324380
L158263523 92276761
L158311142 92229142
L158358761 92133904
L158358761 92038666
L158311142 91943428
L158263523 91895809
L158168285 91848190
L157977809 91800571
L157882571 91752952
L157834952 91705333
L157787333 91610095
L157787333 91514857
L157834952 91419619
L157882571 91372000
L157977809 91324380
L158215904 91324380
L158358761 91372000
" />
<path d="M158644476 91324380
L159215904 91324380
" />
<path d="M158930190 92324380
L158930190 91324380
" />
</g><g transform="rotate(-270.000000 125188000.000000 81204000.000000)">
<text x="125188000.000000" y="81704000.000000"
textLength="3147381.000000" font-size="1333333.000000" lengthAdjust="spacingAndGlyphs"
text-anchor="middle" opacity="0">BPS</text>
</g>
<g class="stroked-text"><desc>BPS</desc>
<path d="M125259428 80299238
L125211809 80442095
L125164190 80489714
L125068952 80537333
L124926095 80537333
L124830857 80489714
L124783238 80442095
L124735619 80346857
L124735619 79965904
L125735619 79965904
L125735619 80299238
L125688000 80394476
L125640380 80442095
L125545142 80489714
L125449904 80489714
L125354666 80442095
L125307047 80394476
L125259428 80299238
L125259428 79965904
" />
<path d="M124735619 80965904
L125735619 80965904
L125735619 81346857
L125688000 81442095
L125640380 81489714
L125545142 81537333
L125402285 81537333
L125307047 81489714
L125259428 81442095
L125211809 81346857
L125211809 80965904
" />
<path d="M124783238 81918285
L124735619 82061142
L124735619 82299238
L124783238 82394476
L124830857 82442095
L124926095 82489714
L125021333 82489714
L125116571 82442095
L125164190 82394476
L125211809 82299238
L125259428 82108761
L125307047 82013523
L125354666 81965904
L125449904 81918285
L125545142 81918285
L125640380 81965904
L125688000 82013523
L125735619 82108761
L125735619 82346857
L125688000 82489714
" />
</g><text x="141190000.000000" y="98933000.000000"
textLength="4718810.000000" font-size="1333333.000000" lengthAdjust="spacingAndGlyphs"
text-anchor="middle" opacity="0">FLASH</text>
<g class="stroked-text"><desc>FLASH</desc>
<path d="M139499523 98361571
L139166190 98361571
" />
<path d="M139166190 98885380
L139166190 97885380
L139642380 97885380
" />
<path d="M140499523 98885380
L140023333 98885380
L140023333 97885380
" />
<path d="M140785238 98599666
L141261428 98599666
" />
<path d="M140690000 98885380
L141023333 97885380
L141356666 98885380
" />
<path d="M141642380 98837761
L141785238 98885380
L142023333 98885380
L142118571 98837761
L142166190 98790142
L142213809 98694904
L142213809 98599666
L142166190 98504428
L142118571 98456809
L142023333 98409190
L141832857 98361571
L141737619 98313952
L141690000 98266333
L141642380 98171095
L141642380 98075857
L141690000 97980619
L141737619 97933000
L141832857 97885380
L142070952 97885380
L142213809 97933000
" />
<path d="M142642380 98885380
L142642380 97885380
" />
<path d="M142642380 98361571
L143213809 98361571
" />
<path d="M143213809 98885380
L143213809 97885380
" />
</g><text x="141190000.000000" y="100543000.000000"
textLength="4766429.000000" font-size="1333333.000000" lengthAdjust="spacingAndGlyphs"
text-anchor="middle" opacity="0">CLEAR</text>
<g class="stroked-text"><desc>CLEAR</desc>
<path d="M139713809 100400142
L139666190 100447761
L139523333 100495380
L139428095 100495380
L139285238 100447761
L139190000 100352523
L139142380 100257285
L139094761 100066809
L139094761 99923952
L139142380 99733476
L139190000 99638238
L139285238 99543000
L139428095 99495380
L139523333 99495380
L139666190 99543000
L139713809 99590619
" />
<path d="M140618571 100495380
L140142380 100495380
L140142380 99495380
" />
<path d="M140951904 99971571
L141285238 99971571
" />
<path d="M141428095 100495380
L140951904 100495380
L140951904 99495380
L141428095 99495380
" />
<path d="M141809047 100209666
L142285238 100209666
" />
<path d="M141713809 100495380
L142047142 99495380
L142380476 100495380
" />
<path d="M143285238 100495380
L142951904 100019190
" />
<path d="M142713809 100495380
L142713809 99495380
L143094761 99495380
L143190000 99543000
L143237619 99590619
L143285238 99685857
L143285238 99828714
L143237619 99923952
L143190000 99971571
L143094761 100019190
L142713809 100019190
" />
</g><g transform="rotate(-90.000000 156557000.000000 72441000.000000)">
<text x="156557000.000000" y="72941000.000000"
textLength="3766429.000000" font-size="1333333.000000" lengthAdjust="spacingAndGlyphs"
text-anchor="middle" opacity="0">FRST</text>
</g>
<g class="stroked-text"><desc>FRST</desc>
<path d="M156485571 73655285
L156485571 73988619
" />
<path d="M157009380 73988619
L156009380 73988619
L156009380 73512428
" />
<path d="M157009380 72560047
L156533190 72893380
" />
<path d="M157009380 73131476
L156009380 73131476
L156009380 72750523
L156057000 72655285
L156104619 72607666
L156199857 72560047
L156342714 72560047
L156437952 72607666
L156485571 72655285
L156533190 72750523
L156533190 73131476
" />
<path d="M156961761 72179095
L157009380 72036238
L157009380 71798142
L156961761 71702904
L156914142 71655285
L156818904 71607666
L156723666 71607666
L156628428 71655285
L156580809 71702904
L156533190 71798142
L156485571 71988619
L156437952 72083857
L156390333 72131476
L156295095 72179095
L156199857 72179095
L156104619 72131476
L156057000 72083857
L156009380 71988619
L156009380 71750523
L156057000 71607666
" />
<path d="M156009380 71321952
L156009380 70750523
" />
<path d="M157009380 71036238
L156009380 71036238
" />
</g><g transform="rotate(-270.000000 125188000.000000 78156000.000000)">
<text x="125188000.000000" y="78656000.000000"
textLength="3004524.000000" font-size="1333333.000000" lengthAdjust="spacingAndGlyphs"
text-anchor="middle" opacity="0">EX1</text>
</g>
<g class="stroked-text"><desc>EX1</desc>
<path d="M125259428 76989333
L125259428 77322666
" />
<path d="M124735619 77465523
L124735619 76989333
L125735619 76989333
L125735619 77465523
" />
<path d="M125735619 77798857
L124735619 78465523
" />
<path d="M125735619 78465523
L124735619 77798857
" />
<path d="M124735619 79370285
L124735619 78798857
" />
<path d="M124735619 79084571
L125735619 79084571
L125592761 78989333
L125497523 78894095
L125449904 78798857
" />
</g><text x="131284000.000000" y="76624000.000000"
textLength="2909286.000000" font-size="1333333.000000" lengthAdjust="spacingAndGlyphs"
text-anchor="middle" opacity="0">RST</text>
<g class="stroked-text"><desc>RST</desc>
<path d="M130736380 76576380
L130403047 76100190
" />
<path d="M130164952 76576380
L130164952 75576380
L130545904 75576380
L130641142 75624000
L130688761 75671619
L130736380 75766857
L130736380 75909714
L130688761 76004952
L130641142 76052571
L130545904 76100190
L130164952 76100190
" />
<path d="M131117333 76528761
L131260190 76576380
L131498285 76576380
L131593523 76528761
L131641142 76481142
L131688761 76385904
L131688761 76290666
L131641142 76195428
L131593523 76147809
L131498285 76100190
L131307809 76052571
L131212571 76004952
L131164952 75957333
L131117333 75862095
L131117333 75766857
L131164952 75671619
L131212571 75624000
L131307809 75576380
L131545904 75576380
L131688761 75624000
" />
<path d="M131974476 75576380
L132545904 75576380
" />
<path d="M132260190 76576380
L132260190 75576380
" />
</g><g transform="rotate(-270.000000 145000000.000000 93396000.000000)">
<text x="145000000.000000" y="93896000.000000"
textLength="2814048.000000" font-size="1333333.000000" lengthAdjust="spacingAndGlyphs"
text-anchor="middle" opacity="0">SET</text>
</g>
<g class="stroked-text"><desc>SET</desc>
<path d="M144595238 92276952
L144547619 92419809
L144547619 92657904
L144595238 92753142
L144642857 92800761
L144738095 92848380
L144833333 92848380
L144928571 92800761
L144976190 92753142
L145023809 92657904
L145071428 92467428
L145119047 92372190
L145166666 92324571
L145261904 92276952
L145357142 92276952
L145452380 92324571
L145500000 92372190
L145547619 92467428
L145547619 92705523
L145500000 92848380
" />
<path d="M145071428 93276952
L145071428 93610285
" />
<path d="M144547619 93753142
L144547619 93276952
L145547619 93276952
L145547619 93753142
" />
<path d="M145547619 94038857
L145547619 94610285
" />
<path d="M144547619 94324571
L145547619 94324571
" />
</g><text x="131792000.000000" y="104818000.000000"
textLength="3195000.000000" font-size="1333333.000000" lengthAdjust="spacingAndGlyphs"
text-anchor="middle" opacity="0">PRG</text>
<g class="stroked-text"><desc>PRG</desc>
<path d="M130530095 104770380
L130530095 103770380
L130911047 103770380
L131006285 103818000
L131053904 103865619
L131101523 103960857
L131101523 104103714
L131053904 104198952
L131006285 104246571
L130911047 104294190
L130530095 104294190
" />
<path d="M132101523 104770380
L131768190 104294190
" />
<path d="M131530095 104770380
L131530095 103770380
L131911047 103770380
L132006285 103818000
L132053904 103865619
L132101523 103960857
L132101523 104103714
L132053904 104198952
L132006285 104246571
L131911047 104294190
L131530095 104294190
" />
<path d="M133053904 103818000
L132958666 103770380
L132815809 103770380
L132672952 103818000
L132577714 103913238
L132530095 104008476
L132482476 104198952
L132482476 104341809
L132530095 104532285
L132577714 104627523
L132672952 104722761
L132815809 104770380
L132911047 104770380
L133053904 104722761
L133101523 104675142
L133101523 104341809
L132911047 104341809
" />
</g><g transform="rotate(-90.000000 140428000.000000 80696000.000000)">
<text x="140428000.000000" y="81196000.000000"
textLength="2147381.000000" font-size="1333333.000000" lengthAdjust="spacingAndGlyphs"
text-anchor="middle" opacity="0">R9</text>
</g>
<g class="stroked-text"><desc>R9</desc>
<path d="M140880380 80862666
L140404190 81196000
" />
<path d="M140880380 81434095
L139880380 81434095
L139880380 81053142
L139928000 80957904
L139975619 80910285
L140070857 80862666
L140213714 80862666
L140308952 80910285
L140356571 80957904
L140404190 81053142
L140404190 81434095
" />
<path d="M140880380 80386476
L140880380 80196000
L140832761 80100761
L140785142 80053142
L140642285 79957904
L140451809 79910285
L140070857 79910285
L139975619 79957904
L139928000 80005523
L139880380 80100761
L139880380 80291238
L139928000 80386476
L139975619 80434095
L140070857 80481714
L140308952 80481714
L140404190 80434095
L140451809 80386476
L140499428 80291238
L140499428 80100761
L140451809 80005523
L140404190 79957904
L140308952 79910285
" />
</g><g transform="rotate(-90.000000 157954000.000000 88316000.000000)">
<text x="157954000.000000" y="88816000.000000"
textLength="3242619.000000" font-size="1333333.000000" lengthAdjust="spacingAndGlyphs"
text-anchor="middle" opacity="0">SW1</text>
</g>
<g class="stroked-text"><desc>SW1</desc>
<path d="M158358761 89649333
L158406380 89506476
L158406380 89268380
L158358761 89173142
L158311142 89125523
L158215904 89077904
L158120666 89077904
L158025428 89125523
L157977809 89173142
L157930190 89268380
L157882571 89458857
L157834952 89554095
L157787333 89601714
L157692095 89649333
L157596857 89649333
L157501619 89601714
L157454000 89554095
L157406380 89458857
L157406380 89220761
L157454000 89077904
" />
<path d="M157406380 88744571
L158406380 88506476
L157692095 88316000
L158406380 88125523
L157406380 87887428
" />
<path d="M158406380 86982666
L158406380 87554095
" />
<path d="M158406380 87268380
L157406380 87268380
L157549238 87363619
L157644476 87458857
L157692095 87554095
" />
</g><text x="164304000.000000" y="83736000.000000"
textLength="2147381.000000" font-size="1333333.000000" lengthAdjust="spacingAndGlyphs"
text-anchor="middle" opacity="0">R2</text>
<g class="stroked-text"><desc>R2</desc>
<path d="M164137333 83688380
L163804000 83212190
" />
<path d="M163565904 83688380
L163565904 82688380
L163946857 82688380
L164042095 82736000
L164089714 82783619
L164137333 82878857
L164137333 83021714
L164089714 83116952
L164042095 83164571
L163946857 83212190
L163565904 83212190
" />
<path d="M164518285 82783619
L164565904 82736000
L164661142 82688380
L164899238 82688380
L164994476 82736000
L165042095 82783619
L165089714 82878857
L165089714 82974095
L165042095 83116952
L164470666 83688380
L165089714 83688380
" />
</g><text x="143476000.000000" y="80180000.000000"
textLength="2147381.000000" font-size="1333333.000000" lengthAdjust="spacingAndGlyphs"
text-anchor="middle" opacity="0">C8</text>
<g class="stroked-text"><desc>C8</desc>
<path d="M143309333 80037142
L143261714 80084761
L143118857 80132380
L143023619 80132380
L142880761 80084761
L142785523 79989523
L142737904 79894285
L142690285 79703809
L142690285 79560952
L142737904 79370476
L142785523 79275238
L142880761 79180000
L143023619 79132380
L143118857 79132380
L143261714 79180000
L143309333 79227619
" />
<path d="M143880761 79560952
L143785523 79513333
L143737904 79465714
L143690285 79370476
L143690285 79322857
L143737904 79227619
L143785523 79180000
L143880761 79132380
L144071238 79132380
L144166476 79180000
L144214095 79227619
L144261714 79322857
L144261714 79370476
L144214095 79465714
L144166476 79513333
L144071238 79560952
L143880761 79560952
L143785523 79608571
L143737904 79656190
L143690285 79751428
L143690285 79941904
L143737904 80037142
L143785523 80084761
L143880761 80132380
L144071238 80132380
L144166476 80084761
L144214095 80037142
L144261714 79941904
L144261714 79751428
L144214095 79656190
L144166476 79608571
L144071238 79560952
" />
</g><g transform="rotate(-90.000000 125696000.000000 75108000.000000)">
<text x="125696000.000000" y="75608000.000000"
textLength="3099762.000000" font-size="1333333.000000" lengthAdjust="spacingAndGlyphs"
text-anchor="middle" opacity="0">R14</text>
</g>
<g class="stroked-text"><desc>R14</desc>
<path d="M126148380 75750857
L125672190 76084190
" />
<path d="M126148380 76322285
L125148380 76322285
L125148380 75941333
L125196000 75846095
L125243619 75798476
L125338857 75750857
L125481714 75750857
L125576952 75798476
L125624571 75846095
L125672190 75941333
L125672190 76322285
" />
<path d="M126148380 74798476
L126148380 75369904
" />
<path d="M126148380 75084190
L125148380 75084190
L125291238 75179428
L125386476 75274666
L125434095 75369904
" />
<path d="M125481714 73941333
L126148380 73941333
" />
<path d="M125100761 74179428
L125815047 74417523
L125815047 73798476
" />
</g><g transform="rotate(-90.000000 134840000.000000 79172000.000000)">
<text x="134840000.000000" y="79672000.000000"
textLength="3242619.000000" font-size="1333333.000000" lengthAdjust="spacingAndGlyphs"
text-anchor="middle" opacity="0">SW3</text>
</g>
<g class="stroked-text"><desc>SW3</desc>
<path d="M135244761 80505333
L135292380 80362476
L135292380 80124380
L135244761 80029142
L135197142 79981523
L135101904 79933904
L135006666 79933904
L134911428 79981523
L134863809 80029142
L134816190 80124380
L134768571 80314857
L134720952 80410095
L134673333 80457714
L134578095 80505333
L134482857 80505333
L134387619 80457714
L134340000 80410095
L134292380 80314857
L134292380 80076761
L134340000 79933904
" />
<path d="M134292380 79600571
L135292380 79362476
L134578095 79172000
L135292380 78981523
L134292380 78743428
" />
<path d="M134292380 78457714
L134292380 77838666
L134673333 78172000
L134673333 78029142
L134720952 77933904
L134768571 77886285
L134863809 77838666
L135101904 77838666
L135197142 77886285
L135244761 77933904
L135292380 78029142
L135292380 78314857
L135244761 78410095
L135197142 78457714
" />
</g><text x="155922000.000000" y="82720000.000000"
textLength="2147381.000000" font-size="1333333.000000" lengthAdjust="spacingAndGlyphs"
text-anchor="middle" opacity="0">C5</text>
<g class="stroked-text"><desc>C5</desc>
<path d="M155755333 82577142
L155707714 82624761
L155564857 82672380
L155469619 82672380
L155326761 82624761
L155231523 82529523
L155183904 82434285
L155136285 82243809
L155136285 82100952
L155183904 81910476
L155231523 81815238
L155326761 81720000
L155469619 81672380
L155564857 81672380
L155707714 81720000
L155755333 81767619
" />
<path d="M156660095 81672380
L156183904 81672380
L156136285 82148571
L156183904 82100952
L156279142 82053333
L156517238 82053333
L156612476 82100952
L156660095 82148571
L156707714 82243809
L156707714 82481904
L156660095 82577142
L156612476 82624761
L156517238 82672380
L156279142 82672380
L156183904 82624761
L156136285 82577142
" />
</g><g transform="rotate(-90.000000 141698000.000000 80696000.000000)">
<text x="141698000.000000" y="81196000.000000"
textLength="2195000.000000" font-size="1333333.000000" lengthAdjust="spacingAndGlyphs"
text-anchor="middle" opacity="0">U7</text>
</g>
<g class="stroked-text"><desc>U7</desc>
<path d="M141150380 81457904
L141959904 81457904
L142055142 81410285
L142102761 81362666
L142150380 81267428
L142150380 81076952
L142102761 80981714
L142055142 80934095
L141959904 80886476
L141150380 80886476
" />
<path d="M141150380 80505523
L141150380 79838857
L142150380 80267428
" />
</g><g transform="rotate(-90.000000 131284000.000000 79172000.000000)">
<text x="131284000.000000" y="79672000.000000"
textLength="3242619.000000" font-size="1333333.000000" lengthAdjust="spacingAndGlyphs"
text-anchor="middle" opacity="0">SW4</text>
</g>
<g class="stroked-text"><desc>SW4</desc>
<path d="M131688761 80505333
L131736380 80362476
L131736380 80124380
L131688761 80029142
L131641142 79981523
L131545904 79933904
L131450666 79933904
L131355428 79981523
L131307809 80029142
L131260190 80124380
L131212571 80314857
L131164952 80410095
L131117333 80457714
L131022095 80505333
L130926857 80505333
L130831619 80457714
L130784000 80410095
L130736380 80314857
L130736380 80076761
L130784000 79933904
" />
<path d="M130736380 79600571
L131736380 79362476
L131022095 79172000
L131736380 78981523
L130736380 78743428
" />
<path d="M131069714 77933904
L131736380 77933904
" />
<path d="M130688761 78172000
L131403047 78410095
L131403047 77791047
" />
</g><text x="155922000.000000" y="83990000.000000"
textLength="2147381.000000" font-size="1333333.000000" lengthAdjust="spacingAndGlyphs"
text-anchor="middle" opacity="0">C4</text>
<g class="stroked-text"><desc>C4</desc>
<path d="M155755333 83847142
L155707714 83894761
L155564857 83942380
L155469619 83942380
L155326761 83894761
L155231523 83799523
L155183904 83704285
L155136285 83513809
L155136285 83370952
L155183904 83180476
L155231523 83085238
L155326761 82990000
L155469619 82942380
L155564857 82942380
L155707714 82990000
L155755333 83037619
" />
<path d="M156612476 83275714
L156612476 83942380
" />
<path d="M156374380 82894761
L156136285 83609047
L156755333 83609047
" />
</g><text x="151604000.000000" y="91864000.000000"
textLength="2147381.000000" font-size="1333333.000000" lengthAdjust="spacingAndGlyphs"
text-anchor="middle" opacity="0">C6</text>
<g class="stroked-text"><desc>C6</desc>
<path d="M151437333 91721142
L151389714 91768761
L151246857 91816380
L151151619 91816380
L151008761 91768761
L150913523 91673523
L150865904 91578285
L150818285 91387809
L150818285 91244952
L150865904 91054476
L150913523 90959238
L151008761 90864000
L151151619 90816380
L151246857 90816380
L151389714 90864000
L151437333 90911619
" />
<path d="M152294476 90816380
L152104000 90816380
L152008761 90864000
L151961142 90911619
L151865904 91054476
L151818285 91244952
L151818285 91625904
L151865904 91721142
L151913523 91768761
L152008761 91816380
L152199238 91816380
L152294476 91768761
L152342095 91721142
L152389714 91625904
L152389714 91387809
L152342095 91292571
L152294476 91244952
L152199238 91197333
L152008761 91197333
L151913523 91244952
L151865904 91292571
L151818285 91387809
" />
</g><g transform="rotate(-90.000000 161764000.000000 88316000.000000)">
<text x="161764000.000000" y="88816000.000000"
textLength="3242619.000000" font-size="1333333.000000" lengthAdjust="spacingAndGlyphs"
text-anchor="middle" opacity="0">SW2</text>
</g>
<g class="stroked-text"><desc>SW2</desc>
<path d="M162168761 89649333
L162216380 89506476
L162216380 89268380
L162168761 89173142
L162121142 89125523
L162025904 89077904
L161930666 89077904
L161835428 89125523
L161787809 89173142
L161740190 89268380
L161692571 89458857
L161644952 89554095
L161597333 89601714
L161502095 89649333
L161406857 89649333
L161311619 89601714
L161264000 89554095
L161216380 89458857
L161216380 89220761
L161264000 89077904
" />
<path d="M161216380 88744571
L162216380 88506476
L161502095 88316000
L162216380 88125523
L161216380 87887428
" />
<path d="M161311619 87554095
L161264000 87506476
L161216380 87411238
L161216380 87173142
L161264000 87077904
L161311619 87030285
L161406857 86982666
L161502095 86982666
L161644952 87030285
L162216380 87601714
L162216380 86982666
" />
</g><text x="148556000.000000" y="89197000.000000"
textLength="2147381.000000" font-size="1333333.000000" lengthAdjust="spacingAndGlyphs"
text-anchor="middle" opacity="0">R4</text>
<g class="stroked-text"><desc>R4</desc>
<path d="M148389333 89149380
L148056000 88673190
" />
<path d="M147817904 89149380
L147817904 88149380
L148198857 88149380
L148294095 88197000
L148341714 88244619
L148389333 88339857
L148389333 88482714
L148341714 88577952
L148294095 88625571
L148198857 88673190
L147817904 88673190
" />
<path d="M149246476 88482714
L149246476 89149380
" />
<path d="M149008380 88101761
L148770285 88816047
L149389333 88816047
" />
</g><g transform="rotate(-45.000000 150842000.000000 80696000.000000)">
<text x="150842000.000000" y="81196000.000000"
textLength="2147381.000000" font-size="1333333.000000" lengthAdjust="spacingAndGlyphs"
text-anchor="middle" opacity="0">C1</text>
</g>
<g class="stroked-text"><desc>C1</desc>
<path d="M150976687 81066389
L150976687 81133732
L150909343 81268419
L150842000 81335763
L150707312 81403106
L150572625 81403106
L150471610 81369435
L150303251 81268419
L150202236 81167404
L150101221 80999045
L150067549 80898030
L150067549 80763343
L150134893 80628656
L150202236 80561312
L150336923 80493969
L150404267 80493969
" />
<path d="M151717465 80460297
L151313404 80864358
" />
<path d="M151515435 80662328
L150808328 79955221
L150842000 80123580
L150842000 80258267
L150808328 80359282
" />
</g><text x="134332000.000000" y="101770000.000000"
textLength="2147381.000000" font-size="1333333.000000" lengthAdjust="spacingAndGlyphs"
text-anchor="middle" opacity="0">C7</text>
<g class="stroked-text"><desc>C7</desc>
<path d="M134165333 101627142
L134117714 101674761
L133974857 101722380
L133879619 101722380
L133736761 101674761
L133641523 101579523
L133593904 101484285
L133546285 101293809
L133546285 101150952
L133593904 100960476
L133641523 100865238
L133736761 100770000
L133879619 100722380
L133974857 100722380
L134117714 100770000
L134165333 100817619
" />
<path d="M134498666 100722380
L135165333 100722380
L134736761 101722380
" />
</g><text x="151604000.000000" y="88562000.000000"
textLength="2147381.000000" font-size="1333333.000000" lengthAdjust="spacingAndGlyphs"
text-anchor="middle" opacity="0">D1</text>
<g class="stroked-text"><desc>D1</desc>
<path d="M150865904 88514380
L150865904 87514380
L151104000 87514380
L151246857 87562000
L151342095 87657238
L151389714 87752476
L151437333 87942952
L151437333 88085809
L151389714 88276285
L151342095 88371523
L151246857 88466761
L151104000 88514380
L150865904 88514380
" />
<path d="M152389714 88514380
L151818285 88514380
" />
<path d="M152104000 88514380
L152104000 87514380
L152008761 87657238
L151913523 87752476
L151818285 87800095
" />
</g><text x="138142000.000000" y="80942000.000000"
textLength="3099762.000000" font-size="1333333.000000" lengthAdjust="spacingAndGlyphs"
text-anchor="middle" opacity="0">R10</text>
<g class="stroked-text"><desc>R10</desc>
<path d="M137499142 80894380
L137165809 80418190
" />
<path d="M136927714 80894380
L136927714 79894380
L137308666 79894380
L137403904 79942000
L137451523 79989619
L137499142 80084857
L137499142 80227714
L137451523 80322952
L137403904 80370571
L137308666 80418190
L136927714 80418190
" />
<path d="M138451523 80894380
L137880095 80894380
" />
<path d="M138165809 80894380
L138165809 79894380
L138070571 80037238
L137975333 80132476
L137880095 80180095
" />
<path d="M139070571 79894380
L139165809 79894380
L139261047 79942000
L139308666 79989619
L139356285 80084857
L139403904 80275333
L139403904 80513428
L139356285 80703904
L139308666 80799142
L139261047 80846761
L139165809 80894380
L139070571 80894380
L138975333 80846761
L138927714 80799142
L138880095 80703904
L138832476 80513428
L138832476 80275333
L138880095 80084857
L138927714 79989619
L138975333 79942000
L139070571 79894380
" />
</g><text x="152112000.000000" y="86784000.000000"
textLength="2147381.000000" font-size="1333333.000000" lengthAdjust="spacingAndGlyphs"
text-anchor="middle" opacity="0">R7</text>
<g class="stroked-text"><desc>R7</desc>
<path d="M151945333 86736380
L151612000 86260190
" />
<path d="M151373904 86736380
L151373904 85736380
L151754857 85736380
L151850095 85784000
L151897714 85831619
L151945333 85926857
L151945333 86069714
L151897714 86164952
L151850095 86212571
L151754857 86260190
L151373904 86260190
" />
<path d="M152278666 85736380
L152945333 85736380
L152516761 86736380
" />
</g><text x="155668000.000000" y="79926000.000000"
textLength="2147381.000000" font-size="1333333.000000" lengthAdjust="spacingAndGlyphs"
text-anchor="middle" opacity="0">R3</text>
<g class="stroked-text"><desc>R3</desc>
<path d="M155501333 79878380
L155168000 79402190
" />
<path d="M154929904 79878380
L154929904 78878380
L155310857 78878380
L155406095 78926000
L155453714 78973619
L155501333 79068857
L155501333 79211714
L155453714 79306952
L155406095 79354571
L155310857 79402190
L154929904 79402190
" />
<path d="M155834666 78878380
L156453714 78878380
L156120380 79259333
L156263238 79259333
L156358476 79306952
L156406095 79354571
L156453714 79449809
L156453714 79687904
L156406095 79783142
L156358476 79830761
L156263238 79878380
L155977523 79878380
L155882285 79830761
L155834666 79783142
" />
</g><text x="136872000.000000" y="101770000.000000"
textLength="3099762.000000" font-size="1333333.000000" lengthAdjust="spacingAndGlyphs"
text-anchor="middle" opacity="0">R12</text>
<g class="stroked-text"><desc>R12</desc>
<path d="M136229142 101722380
L135895809 101246190
" />
<path d="M135657714 101722380
L135657714 100722380
L136038666 100722380
L136133904 100770000
L136181523 100817619
L136229142 100912857
L136229142 101055714
L136181523 101150952
L136133904 101198571
L136038666 101246190
L135657714 101246190
" />
<path d="M137181523 101722380
L136610095 101722380
" />
<path d="M136895809 101722380
L136895809 100722380
L136800571 100865238
L136705333 100960476
L136610095 101008095
" />
<path d="M137562476 100817619
L137610095 100770000
L137705333 100722380
L137943428 100722380
L138038666 100770000
L138086285 100817619
L138133904 100912857
L138133904 101008095
L138086285 101150952
L137514857 101722380
L138133904 101722380
" />
</g><text x="169384000.000000" y="76108000.000000"
textLength="2195000.000000" font-size="1333333.000000" lengthAdjust="spacingAndGlyphs"
text-anchor="middle" opacity="0">U3</text>
<g class="stroked-text"><desc>U3</desc>
<path d="M168622095 75060380
L168622095 75869904
L168669714 75965142
L168717333 76012761
L168812571 76060380
L169003047 76060380
L169098285 76012761
L169145904 75965142
L169193523 75869904
L169193523 75060380
" />
<path d="M169574476 75060380
L170193523 75060380
L169860190 75441333
L170003047 75441333
L170098285 75488952
L170145904 75536571
L170193523 75631809
L170193523 75869904
L170145904 75965142
L170098285 76012761
L170003047 76060380
L169717333 76060380
L169622095 76012761
L169574476 75965142
" />
</g><text x="159224000.000000" y="85260000.000000"
textLength="3099762.000000" font-size="1333333.000000" lengthAdjust="spacingAndGlyphs"
text-anchor="middle" opacity="0">R11</text>
<g class="stroked-text"><desc>R11</desc>
<path d="M158581142 85212380
L158247809 84736190
" />
<path d="M158009714 85212380
L158009714 84212380
L158390666 84212380
L158485904 84260000
L158533523 84307619
L158581142 84402857
L158581142 84545714
L158533523 84640952
L158485904 84688571
L158390666 84736190
L158009714 84736190
" />
<path d="M159533523 85212380
L158962095 85212380
" />
<path d="M159247809 85212380
L159247809 84212380
L159152571 84355238
L159057333 84450476
L158962095 84498095
" />
<path d="M160485904 85212380
L159914476 85212380
" />
<path d="M160200190 85212380
L160200190 84212380
L160104952 84355238
L160009714 84450476
L159914476 84498095
" />
</g><text x="154652000.000000" y="91864000.000000"
textLength="2147381.000000" font-size="1333333.000000" lengthAdjust="spacingAndGlyphs"
text-anchor="middle" opacity="0">R5</text>
<g class="stroked-text"><desc>R5</desc>
<path d="M154485333 91816380
L154152000 91340190
" />
<path d="M153913904 91816380
L153913904 90816380
L154294857 90816380
L154390095 90864000
L154437714 90911619
L154485333 91006857
L154485333 91149714
L154437714 91244952
L154390095 91292571
L154294857 91340190
L153913904 91340190
" />
<path d="M155390095 90816380
L154913904 90816380
L154866285 91292571
L154913904 91244952
L155009142 91197333
L155247238 91197333
L155342476 91244952
L155390095 91292571
L155437714 91387809
L155437714 91625904
L155390095 91721142
L155342476 91768761
L155247238 91816380
L155009142 91816380
L154913904 91768761
L154866285 91721142
" />
</g><text x="143222000.000000" y="86784000.000000"
textLength="3099762.000000" font-size="1333333.000000" lengthAdjust="spacingAndGlyphs"
text-anchor="middle" opacity="0">R13</text>
<g class="stroked-text"><desc>R13</desc>
<path d="M142579142 86736380
L142245809 86260190
" />
<path d="M142007714 86736380
L142007714 85736380
L142388666 85736380
L142483904 85784000
L142531523 85831619
L142579142 85926857
L142579142 86069714
L142531523 86164952
L142483904 86212571
L142388666 86260190
L142007714 86260190
" />
<path d="M143531523 86736380
L142960095 86736380
" />
<path d="M143245809 86736380
L143245809 85736380
L143150571 85879238
L143055333 85974476
L142960095 86022095
" />
<path d="M143864857 85736380
L144483904 85736380
L144150571 86117333
L144293428 86117333
L144388666 86164952
L144436285 86212571
L144483904 86307809
L144483904 86545904
L144436285 86641142
L144388666 86688761
L144293428 86736380
L144007714 86736380
L143912476 86688761
L143864857 86641142
" />
</g><text x="152112000.000000" y="85260000.000000"
textLength="2147381.000000" font-size="1333333.000000" lengthAdjust="spacingAndGlyphs"
text-anchor="middle" opacity="0">R6</text>
<g class="stroked-text"><desc>R6</desc>
<path d="M151945333 85212380
L151612000 84736190
" />
<path d="M151373904 85212380
L151373904 84212380
L151754857 84212380
L151850095 84260000
L151897714 84307619
L151945333 84402857
L151945333 84545714
L151897714 84640952
L151850095 84688571
L151754857 84736190
L151373904 84736190
" />
<path d="M152802476 84212380
L152612000 84212380
L152516761 84260000
L152469142 84307619
L152373904 84450476
L152326285 84640952
L152326285 85021904
L152373904 85117142
L152421523 85164761
L152516761 85212380
L152707238 85212380
L152802476 85164761
L152850095 85117142
L152897714 85021904
L152897714 84783809
L152850095 84688571
L152802476 84640952
L152707238 84593333
L152516761 84593333
L152421523 84640952
L152373904 84688571
L152326285 84783809
" />
</g><g transform="rotate(-90.000000 150842000.000000 83236000.000000)">
<text x="150842000.000000" y="83736000.000000"
textLength="2147381.000000" font-size="1333333.000000" lengthAdjust="spacingAndGlyphs"
text-anchor="middle" opacity="0">C2</text>
</g>
<g class="stroked-text"><desc>C2</desc>
<path d="M151199142 83402666
L151246761 83450285
L151294380 83593142
L151294380 83688380
L151246761 83831238
L151151523 83926476
L151056285 83974095
L150865809 84021714
L150722952 84021714
L150532476 83974095
L150437238 83926476
L150342000 83831238
L150294380 83688380
L150294380 83593142
L150342000 83450285
L150389619 83402666
" />
<path d="M150389619 83021714
L150342000 82974095
L150294380 82878857
L150294380 82640761
L150342000 82545523
L150389619 82497904
L150484857 82450285
L150580095 82450285
L150722952 82497904
L151294380 83069333
L151294380 82450285
" />
</g><g transform="rotate(-90.000000 124426000.000000 75108000.000000)">
<text x="124426000.000000" y="75608000.000000"
textLength="3099762.000000" font-size="1333333.000000" lengthAdjust="spacingAndGlyphs"
text-anchor="middle" opacity="0">R15</text>
</g>
<g class="stroked-text"><desc>R15</desc>
<path d="M124878380 75750857
L124402190 76084190
" />
<path d="M124878380 76322285
L123878380 76322285
L123878380 75941333
L123926000 75846095
L123973619 75798476
L124068857 75750857
L124211714 75750857
L124306952 75798476
L124354571 75846095
L124402190 75941333
L124402190 76322285
" />
<path d="M124878380 74798476
L124878380 75369904
" />
<path d="M124878380 75084190
L123878380 75084190
L124021238 75179428
L124116476 75274666
L124164095 75369904
" />
<path d="M123878380 73893714
L123878380 74369904
L124354571 74417523
L124306952 74369904
L124259333 74274666
L124259333 74036571
L124306952 73941333
L124354571 73893714
L124449809 73846095
L124687904 73846095
L124783142 73893714
L124830761 73941333
L124878380 74036571
L124878380 74274666
L124830761 74369904
L124783142 74417523
" />
</g><g transform="rotate(-90.000000 131284000.000000 100762000.000000)">
<text x="131284000.000000" y="101262000.000000"
textLength="3242619.000000" font-size="1333333.000000" lengthAdjust="spacingAndGlyphs"
text-anchor="middle" opacity="0">SW5</text>
</g>
<g class="stroked-text"><desc>SW5</desc>
<path d="M131688761 102095333
L131736380 101952476
L131736380 101714380
L131688761 101619142
L131641142 101571523
L131545904 101523904
L131450666 101523904
L131355428 101571523
L131307809 101619142
L131260190 101714380
L131212571 101904857
L131164952 102000095
L131117333 102047714
L131022095 102095333
L130926857 102095333
L130831619 102047714
L130784000 102000095
L130736380 101904857
L130736380 101666761
L130784000 101523904
" />
<path d="M130736380 101190571
L131736380 100952476
L131022095 100762000
L131736380 100571523
L130736380 100333428
" />
<path d="M130736380 99476285
L130736380 99952476
L131212571 100000095
L131164952 99952476
L131117333 99857238
L131117333 99619142
L131164952 99523904
L131212571 99476285
L131307809 99428666
L131545904 99428666
L131641142 99476285
L131688761 99523904
L131736380 99619142
L131736380 99857238
L131688761 99952476
L131641142 100000095
" />
</g><text x="164304000.000000" y="82212000.000000"
textLength="2147381.000000" font-size="1333333.000000" lengthAdjust="spacingAndGlyphs"
text-anchor="middle" opacity="0">R1</text>
<g class="stroked-text"><desc>R1</desc>
<path d="M164137333 82164380
L163804000 81688190
" />
<path d="M163565904 82164380
L163565904 81164380
L163946857 81164380
L164042095 81212000
L164089714 81259619
L164137333 81354857
L164137333 81497714
L164089714 81592952
L164042095 81640571
L163946857 81688190
L163565904 81688190
" />
<path d="M165089714 82164380
L164518285 82164380
" />
<path d="M164804000 82164380
L164804000 81164380
L164708761 81307238
L164613523 81402476
L164518285 81450095
" />
</g><text x="147540000.000000" y="85260000.000000"
textLength="2195000.000000" font-size="1333333.000000" lengthAdjust="spacingAndGlyphs"
text-anchor="middle" opacity="0">U1</text>
<g class="stroked-text"><desc>U1</desc>
<path d="M146778095 84212380
L146778095 85021904
L146825714 85117142
L146873333 85164761
L146968571 85212380
L147159047 85212380
L147254285 85164761
L147301904 85117142
L147349523 85021904
L147349523 84212380
" />
<path d="M148349523 85212380
L147778095 85212380
" />
<path d="M148063809 85212380
L148063809 84212380
L147968571 84355238
L147873333 84450476
L147778095 84498095
" />
</g><text x="145508000.000000" y="90594000.000000"
textLength="2147381.000000" font-size="1333333.000000" lengthAdjust="spacingAndGlyphs"
text-anchor="middle" opacity="0">C3</text>
<g class="stroked-text"><desc>C3</desc>
<path d="M145341333 90451142
L145293714 90498761
L145150857 90546380
L145055619 90546380
L144912761 90498761
L144817523 90403523
L144769904 90308285
L144722285 90117809
L144722285 89974952
L144769904 89784476
L144817523 89689238
L144912761 89594000
L145055619 89546380
L145150857 89546380
L145293714 89594000
L145341333 89641619
" />
<path d="M145674666 89546380
L146293714 89546380
L145960380 89927333
L146103238 89927333
L146198476 89974952
L146246095 90022571
L146293714 90117809
L146293714 90355904
L146246095 90451142
L146198476 90498761
L146103238 90546380
L145817523 90546380
L145722285 90498761
L145674666 90451142
" />
</g><text x="134000000.000000" y="90500000.000000"
textLength="2195000.000000" font-size="1333333.000000" lengthAdjust="spacingAndGlyphs"
text-anchor="middle" opacity="0">U5</text>
<g class="stroked-text"><desc>U5</desc>
<path d="M133238095 89452380
L133238095 90261904
L133285714 90357142
L133333333 90404761
L133428571 90452380
L133619047 90452380
L133714285 90404761
L133761904 90357142
L133809523 90261904
L133809523 89452380
" />
<path d="M134761904 89452380
L134285714 89452380
L134238095 89928571
L134285714 89880952
L134380952 89833333
L134619047 89833333
L134714285 89880952
L134761904 89928571
L134809523 90023809
L134809523 90261904
L134761904 90357142
L134714285 90404761
L134619047 90452380
L134380952 90452380
L134285714 90404761
L134238095 90357142
" />
</g><g transform="rotate(-90.000000 145762000.000000 80696000.000000)">
<text x="145762000.000000" y="81196000.000000"
textLength="2147381.000000" font-size="1333333.000000" lengthAdjust="spacingAndGlyphs"
text-anchor="middle" opacity="0">R8</text>
</g>
<g class="stroked-text"><desc>R8</desc>
<path d="M146214380 80862666
L145738190 81196000
" />
<path d="M146214380 81434095
L145214380 81434095
L145214380 81053142
L145262000 80957904
L145309619 80910285
L145404857 80862666
L145547714 80862666
L145642952 80910285
L145690571 80957904
L145738190 81053142
L145738190 81434095
" />
<path d="M145642952 80291238
L145595333 80386476
L145547714 80434095
L145452476 80481714
L145404857 80481714
L145309619 80434095
L145262000 80386476
L145214380 80291238
L145214380 80100761
L145262000 80005523
L145309619 79957904
L145404857 79910285
L145452476 79910285
L145547714 79957904
L145595333 80005523
L145642952 80100761
L145642952 80291238
L145690571 80386476
L145738190 80434095
L145833428 80481714
L146023904 80481714
L146119142 80434095
L146166761 80386476
L146214380 80291238
L146214380 80100761
L146166761 80005523
L146119142 79957904
L146023904 79910285
L145833428 79910285
L145738190 79957904
L145690571 80005523
L145642952 80100761
" />
</g></g>
<g style="fill:#000000; fill-opacity:1.0; 
stroke:#000000; stroke-width:1.000000; stroke-opacity:1; 
stroke-linecap:round; stroke-linejoin:round;">
<path style="fill:#000000; fill-opacity:1.0; 
stroke:#000000; stroke-width:1.000000; stroke-opacity:1; 
stroke-linecap:round; stroke-linejoin:round;fill-rule:evenodd;"
d="M 125477729.000000,126345194.000000
125548974.000000,126409126.000000
125557349.000000,126475216.000000
125528690.000000,126576116.000000
125416811.000000,126616828.000000
125301153.000000,126621614.000000
125124577.000000,126605237.000000
125053331.000000,126541306.000000
125044957.000000,126475216.000000
125073615.000000,126374315.000000
125185495.000000,126333604.000000
125301153.000000,126328818.000000
Z" /> 
<path style="fill:#000000; fill-opacity:1.0; 
stroke:#000000; stroke-width:1.000000; stroke-opacity:1; 
stroke-linecap:round; stroke-linejoin:round;fill-rule:evenodd;"
d="M 122259216.000000,127086530.000000
122337799.000000,126980813.000000
122369872.000000,126947681.000000
122604052.000000,126797275.000000
122850149.000000,126772121.000000
123077366.000000,126857439.000000
123254909.000000,127038454.000000
123351983.000000,127300387.000000
123361383.000000,127423474.000000
123361383.000000,127719596.000000
122702594.000000,127719596.000000
122702594.000000,128012392.000000
122718828.000000,128195741.000000
122759384.000000,128297721.000000
122775793.000000,128305187.000000
122827188.000000,128241580.000000
122848986.000000,128088323.000000
122848992.000000,128085590.000000
122863273.000000,127938052.000000
122935715.000000,127877538.000000
123105188.000000,127865994.000000
123277519.000000,127878553.000000
123348190.000000,127940327.000000
123361383.000000,128075719.000000
123300878.000000,128348349.000000
123142597.000000,128546162.000000
122921391.000000,128654545.000000
122672110.000000,128658883.000000
122429606.000000,128544560.000000
122369872.000000,128491511.000000
122279090.000000,128385714.000000
122225164.000000,128266220.000000
122198755.000000,128092903.000000
122190523.000000,127825640.000000
122190202.000000,127719596.000000
122194757.000000,127415798.000000
122208384.000000,127280403.000000
122702594.000000,127280403.000000
122733248.000000,127399349.000000
122775793.000000,127426801.000000
122835266.000000,127365493.000000
122848992.000000,127280403.000000
122818338.000000,127161457.000000
122775793.000000,127134005.000000
122716320.000000,127195313.000000
122702594.000000,127280403.000000
122208384.000000,127280403.000000
122214649.000000,127218151.000000
Z" /> 
<path style="fill:#000000; fill-opacity:1.0; 
stroke:#000000; stroke-width:1.000000; stroke-opacity:1; 
stroke-linecap:round; stroke-linejoin:round;fill-rule:evenodd;"
d="M 145463251.000000,127086530.000000
145541833.000000,126980813.000000
145573906.000000,126947681.000000
145808087.000000,126797275.000000
146054183.000000,126772121.000000
146281401.000000,126857439.000000
146458944.000000,127038454.000000
146556018.000000,127300387.000000
146565418.000000,127423474.000000
146565418.000000,127719596.000000
145906628.000000,127719596.000000
145906628.000000,128012392.000000
145922863.000000,128195741.000000
145963419.000000,128297721.000000
145979827.000000,128305187.000000
146031223.000000,128241580.000000
146053021.000000,128088323.000000
146053026.000000,128085590.000000
146067308.000000,127938052.000000
146139749.000000,127877538.000000
146309222.000000,127865994.000000
146481553.000000,127878553.000000
146552225.000000,127940327.000000
146565418.000000,128075719.000000
146504913.000000,128348349.000000
146346632.000000,128546162.000000
146125426.000000,128654545.000000
145876145.000000,128658883.000000
145633640.000000,128544560.000000
145573906.000000,128491511.000000
145483125.000000,128385714.000000
145429199.000000,128266220.000000
145402790.000000,128092903.000000
145394558.000000,127825640.000000
145394237.000000,127719596.000000
145398792.000000,127415798.000000
145412418.000000,127280403.000000
145906628.000000,127280403.000000
145937282.000000,127399349.000000
145979827.000000,127426801.000000
146039300.000000,127365493.000000
146053026.000000,127280403.000000
146022372.000000,127161457.000000
145979827.000000,127134005.000000
145920354.000000,127195313.000000
145906628.000000,127280403.000000
145412418.000000,127280403.000000
145418683.000000,127218151.000000
Z" /> 
<path style="fill:#000000; fill-opacity:1.0; 
stroke:#000000; stroke-width:1.000000; stroke-opacity:1; 
stroke-linecap:round; stroke-linejoin:round;fill-rule:evenodd;"
d="M 125557349.000000,128671181.000000
125044957.000000,128671181.000000
125044957.000000,126768011.000000
125557349.000000,126768011.000000
Z" /> 
<path style="fill:#000000; fill-opacity:1.0; 
stroke:#000000; stroke-width:1.000000; stroke-opacity:1; 
stroke-linecap:round; stroke-linejoin:round;fill-rule:evenodd;"
d="M 134412145.000000,127408501.000000
134464271.000000,127780934.000000
134502624.000000,128014906.000000
134529140.000000,128117508.000000
134545756.000000,128095830.000000
134554408.000000,127956964.000000
134555028.000000,127931631.000000
134566121.000000,127710231.000000
134588549.000000,127419942.000000
134607834.000000,127217942.000000
134654861.000000,126768011.000000
134902024.000000,126768011.000000
135067301.000000,126780145.000000
135123633.000000,126835524.000000
135114376.000000,126932709.000000
135092204.000000,127071427.000000
135059485.000000,127317665.000000
135021090.000000,127633357.000000
134991101.000000,127896376.000000
134937042.000000,128314986.000000
134873785.000000,128608712.000000
134787540.000000,128798995.000000
134664522.000000,128907276.000000
134490943.000000,128954996.000000
134304611.000000,128963977.000000
134098766.000000,128954398.000000
134001427.000000,128914623.000000
133975342.000000,128828096.000000
133975216.000000,128817579.000000
134026976.000000,128695241.000000
134121614.000000,128671181.000000
134240761.000000,128658249.000000
134268012.000000,128640441.000000
134252120.000000,128560409.000000
134209837.000000,128372333.000000
134149249.000000,128110451.000000
134078445.000000,127808998.000000
134005512.000000,127502213.000000
133938538.000000,127224330.000000
133885610.000000,127009587.000000
133855955.000000,126896109.000000
133857300.000000,126808815.000000
133951545.000000,126772839.000000
134072521.000000,126768011.000000
134326089.000000,126768011.000000
Z" /> 
<path style="fill:#000000; fill-opacity:1.0; 
stroke:#000000; stroke-width:1.000000; stroke-opacity:1; 
stroke-linecap:round; stroke-linejoin:round;fill-rule:evenodd;"
d="M 148739661.000000,126336888.000000
148813300.000000,126388578.000000
148833653.000000,126525110.000000
148834582.000000,126636253.000000
148843384.000000,126822951.000000
148875124.000000,126884019.000000
148922421.000000,126855850.000000
149092917.000000,126776349.000000
149299094.000000,126793284.000000
149451544.000000,126883038.000000
149504068.000000,126966621.000000
149538578.000000,127109431.000000
149558192.000000,127337277.000000
149566030.000000,127675966.000000
149566571.000000,127834623.000000
149566571.000000,128671181.000000
149054179.000000,128671181.000000
149054179.000000,127902593.000000
149050813.000000,127551614.000000
149038463.000000,127323292.000000
149013755.000000,127193995.000000
148973311.000000,127140089.000000
148944381.000000,127134005.000000
148894241.000000,127157569.000000
148861623.000000,127244013.000000
148843152.000000,127416972.000000
148835451.000000,127700078.000000
148834582.000000,127902593.000000
148834582.000000,128671181.000000
148322190.000000,128671181.000000
148322190.000000,126328818.000000
148578386.000000,126328818.000000
Z" /> 
<path style="fill:#000000; fill-opacity:1.0; 
stroke:#000000; stroke-width:1.000000; stroke-opacity:1; 
stroke-linecap:round; stroke-linejoin:round;fill-rule:evenodd;"
d="M 125883762.000000,127094472.000000
125941384.000000,126915322.000000
125965171.000000,126883038.000000
126144761.000000,126785549.000000
126350285.000000,126781329.000000
126494294.000000,126855850.000000
126566826.000000,126906776.000000
126582133.000000,126855850.000000
126647916.000000,126794680.000000
126818636.000000,126768222.000000
126838329.000000,126768011.000000
127094525.000000,126768011.000000
127094525.000000,127750883.000000
127093646.000000,128147033.000000
127087988.000000,128423463.000000
127073014.000000,128606847.000000
127044191.000000,128723864.000000
126996983.000000,128801188.000000
126926856.000000,128865497.000000
126901656.000000,128885465.000000
126656724.000000,129005652.000000
126378500.000000,129036269.000000
126123079.000000,128976986.000000
125996542.000000,128890778.000000
125865177.000000,128716040.000000
125867785.000000,128594190.000000
126002409.000000,128531755.000000
126106340.000000,128524784.000000
126275678.000000,128543169.000000
126360323.000000,128588376.000000
126362536.000000,128597982.000000
126421824.000000,128662923.000000
126472334.000000,128671181.000000
126560166.000000,128606791.000000
126582133.000000,128473544.000000
126568848.000000,128343787.000000
126519557.000000,128341092.000000
126494294.000000,128363746.000000
126323798.000000,128443246.000000
126117621.000000,128426312.000000
125965171.000000,128336558.000000
125899620.000000,128194144.000000
125858704.000000,127953073.000000
125842422.000000,127659002.000000
125843786.000000,127609798.000000
126362536.000000,127609798.000000
126369866.000000,127876677.000000
126396059.000000,128025010.000000
126447416.000000,128082107.000000
126472334.000000,128085590.000000
126533922.000000,128053826.000000
126568153.000000,127940326.000000
126581329.000000,127717779.000000
126582133.000000,127609798.000000
126574803.000000,127342919.000000
126548610.000000,127194586.000000
126497253.000000,127137489.000000
126472334.000000,127134005.000000
126410747.000000,127165770.000000
126376516.000000,127279270.000000
126363340.000000,127501817.000000
126362536.000000,127609798.000000
125843786.000000,127609798.000000
125850775.000000,127357583.000000
Z" /> 
<path style="fill:#000000; fill-opacity:1.0; 
stroke:#000000; stroke-width:1.000000; stroke-opacity:1; 
stroke-linecap:round; stroke-linejoin:round;fill-rule:evenodd;"
d="M 121100199.000000,126341701.000000
121372291.000000,126362748.000000
121565974.000000,126404883.000000
121694560.000000,126490124.000000
121771360.000000,126640486.000000
121809684.000000,126877987.000000
121822842.000000,127224642.000000
121824208.000000,127539245.000000
121819929.000000,127968474.000000
121797546.000000,128272790.000000
121742743.000000,128473629.000000
121641201.000000,128592428.000000
121478603.000000,128650622.000000
121240631.000000,128669646.000000
121068156.000000,128671181.000000
120579827.000000,128671181.000000
120579827.000000,127500000.000000
121092219.000000,127500000.000000
121096270.000000,127872236.000000
121109793.000000,128115969.000000
121134849.000000,128248905.000000
121173496.000000,128288751.000000
121183718.000000,128286887.000000
121229381.000000,128219259.000000
121258578.000000,128043095.000000
121272981.000000,127744021.000000
121275216.000000,127500000.000000
121268877.000000,127120403.000000
121248744.000000,126872328.000000
121213146.000000,126741401.000000
121183718.000000,126713112.000000
121141898.000000,126735355.000000
121114110.000000,126846904.000000
121098294.000000,127065463.000000
121092392.000000,127408741.000000
121092219.000000,127500000.000000
120579827.000000,127500000.000000
120579827.000000,126312298.000000
Z" /> 
<path style="fill:#000000; fill-opacity:1.0; 
stroke:#000000; stroke-width:1.000000; stroke-opacity:1; 
stroke-linecap:round; stroke-linejoin:round;fill-rule:evenodd;"
d="M 136740790.000000,127798713.000000
136864363.000000,127706292.000000
137012968.000000,127630860.000000
137226870.000000,127507040.000000
137326150.000000,127389653.000000
137342363.000000,127302417.000000
137301431.000000,127166224.000000
137232565.000000,127134005.000000
137144257.000000,127197637.000000
137122767.000000,127317003.000000
137099132.000000,127447785.000000
136998664.000000,127495629.000000
136903170.000000,127500000.000000
136747496.000000,127481693.000000
136690146.000000,127396532.000000
136683574.000000,127285716.000000
136747665.000000,127064633.000000
136913320.000000,126895598.000000
137140611.000000,126793077.000000
137389609.000000,126771540.000000
137620386.000000,126845451.000000
137708358.000000,126914409.000000
137773756.000000,126996147.000000
137816423.000000,127104959.000000
137841030.000000,127271207.000000
137852246.000000,127525253.000000
137854755.000000,127865994.000000
137854755.000000,128671181.000000
137598559.000000,128671181.000000
137420148.000000,128648627.000000
137342978.000000,128590094.000000
137342363.000000,128583343.000000
137320758.000000,128532417.000000
137254525.000000,128583343.000000
137081524.000000,128665690.000000
136888020.000000,128623851.000000
136798600.000000,128556154.000000
136717047.000000,128392368.000000
136683752.000000,128137575.000000
136683574.000000,128116010.000000
136684547.000000,128093422.000000
137122767.000000,128093422.000000
137156514.000000,128261984.000000
137232565.000000,128305187.000000
137314114.000000,128249094.000000
137342225.000000,128070611.000000
137342363.000000,128051288.000000
137327731.000000,127881713.000000
137274788.000000,127830255.000000
137232565.000000,127839523.000000
137150635.000000,127938795.000000
137122767.000000,128093422.000000
136684547.000000,128093422.000000
136692094.000000,127918249.000000
Z" /> 
<path style="fill:#000000; fill-opacity:1.0; 
stroke:#000000; stroke-width:1.000000; stroke-opacity:1; 
stroke-linecap:round; stroke-linejoin:round;fill-rule:evenodd;"
d="M 141492975.000000,126336888.000000
141566614.000000,126388578.000000
141586967.000000,126525110.000000
141587896.000000,126636253.000000
141596698.000000,126822951.000000
141628439.000000,126884019.000000
141675735.000000,126855850.000000
141846231.000000,126776349.000000
142052408.000000,126793284.000000
142204858.000000,126883038.000000
142257383.000000,126966621.000000
142291892.000000,127109431.000000
142311506.000000,127337277.000000
142319345.000000,127675966.000000
142319885.000000,127834623.000000
142319885.000000,128671181.000000
141807493.000000,128671181.000000
141807493.000000,127902593.000000
141804127.000000,127551614.000000
141791778.000000,127323292.000000
141767069.000000,127193995.000000
141726625.000000,127140089.000000
141697695.000000,127134005.000000
141647555.000000,127157569.000000
141614937.000000,127244013.000000
141596466.000000,127416972.000000
141588765.000000,127700078.000000
141587896.000000,127902593.000000
141587896.000000,128671181.000000
141075505.000000,128671181.000000
141075505.000000,126328818.000000
141331700.000000,126328818.000000
Z" /> 
<path style="fill:#000000; fill-opacity:1.0; 
stroke:#000000; stroke-width:1.000000; stroke-opacity:1; 
stroke-linecap:round; stroke-linejoin:round;fill-rule:evenodd;"
d="M 130402430.000000,127253168.000000
130443653.000000,127014970.000000
130503500.000000,126883038.000000
130685939.000000,126777645.000000
130901262.000000,126807164.000000
130978876.000000,126843785.000000
131068868.000000,126877723.000000
131109665.000000,126830428.000000
131120285.000000,126672403.000000
131120461.000000,126624189.000000
131128023.000000,126435646.000000
131175011.000000,126351442.000000
131297880.000000,126329545.000000
131376657.000000,126328818.000000
131632853.000000,126328818.000000
131632853.000000,128671181.000000
131376657.000000,128671181.000000
131207329.000000,128652152.000000
131122678.000000,128605359.000000
131120461.000000,128595407.000000
131075653.000000,128557021.000000
130978876.000000,128595407.000000
130748674.000000,128666728.000000
130558361.000000,128603714.000000
130503500.000000,128556154.000000
130442327.000000,128419192.000000
130401634.000000,128178841.000000
130381420.000000,127876674.000000
130381549.000000,127719596.000000
130900865.000000,127719596.000000
130906036.000000,128020058.000000
130924800.000000,128200376.000000
130962031.000000,128286545.000000
131010663.000000,128305187.000000
131067000.000000,128277605.000000
131100809.000000,128177531.000000
131116966.000000,127978969.000000
131120461.000000,127719596.000000
131115290.000000,127419135.000000
131096526.000000,127238816.000000
131059295.000000,127152647.000000
131010663.000000,127134005.000000
130954326.000000,127161587.000000
130920517.000000,127261661.000000
130904360.000000,127460223.000000
130900865.000000,127719596.000000
130381549.000000,127719596.000000
130381685.000000,127554259.000000
Z" /> 
<path style="fill:#000000; fill-opacity:1.0; 
stroke:#000000; stroke-width:1.000000; stroke-opacity:1; 
stroke-linecap:round; stroke-linejoin:round;fill-rule:evenodd;"
d="M 145174640.000000,126548415.000000
145154944.000000,126705354.000000
145071221.000000,126762767.000000
144991643.000000,126768011.000000
144808646.000000,126768011.000000
144808646.000000,128671181.000000
144296254.000000,128671181.000000
144296254.000000,126768011.000000
144113257.000000,126768011.000000
143982474.000000,126744377.000000
143934630.000000,126643909.000000
143930260.000000,126548415.000000
143930260.000000,126328818.000000
145174640.000000,126328818.000000
Z" /> 
<path style="fill:#000000; fill-opacity:1.0; 
stroke:#000000; stroke-width:1.000000; stroke-opacity:1; 
stroke-linecap:round; stroke-linejoin:round;fill-rule:evenodd;"
d="M 140050721.000000,127536599.000000
140054087.000000,127887578.000000
140066436.000000,128115900.000000
140091144.000000,128245198.000000
140131588.000000,128299104.000000
140160519.000000,128305187.000000
140210659.000000,128281624.000000
140243276.000000,128195179.000000
140261747.000000,128022220.000000
140269448.000000,127739114.000000
140270317.000000,127536599.000000
140270317.000000,126768011.000000
140782709.000000,126768011.000000
140782709.000000,128671181.000000
140526513.000000,128671181.000000
140348102.000000,128648627.000000
140270932.000000,128590094.000000
140270317.000000,128583343.000000
140248712.000000,128532417.000000
140182479.000000,128583343.000000
140011983.000000,128662843.000000
139805805.000000,128645908.000000
139653355.000000,128556154.000000
139600831.000000,128472572.000000
139566322.000000,128329762.000000
139546708.000000,128101916.000000
139538869.000000,127763227.000000
139538329.000000,127604569.000000
139538329.000000,126768011.000000
140050721.000000,126768011.000000
Z" /> 
<path style="fill:#000000; fill-opacity:1.0; 
stroke:#000000; stroke-width:1.000000; stroke-opacity:1; 
stroke-linecap:round; stroke-linejoin:round;fill-rule:evenodd;"
d="M 127812844.000000,126787041.000000
127897496.000000,126833833.000000
127899712.000000,126843785.000000
127944520.000000,126882172.000000
128041298.000000,126843785.000000
128271499.000000,126772465.000000
128461813.000000,126835478.000000
128516674.000000,126883038.000000
128569198.000000,126966621.000000
128603708.000000,127109431.000000
128623322.000000,127337277.000000
128631160.000000,127675966.000000
128631700.000000,127834623.000000
128631700.000000,128671181.000000
128119309.000000,128671181.000000
128119309.000000,127902593.000000
128115942.000000,127551614.000000
128103593.000000,127323292.000000
128078885.000000,127193995.000000
128038441.000000,127140089.000000
128009510.000000,127134005.000000
127959370.000000,127157569.000000
127926753.000000,127244013.000000
127908282.000000,127416972.000000
127900581.000000,127700078.000000
127899712.000000,127902593.000000
127899712.000000,128671181.000000
127387320.000000,128671181.000000
127387320.000000,126768011.000000
127643516.000000,126768011.000000
Z" /> 
<path style="fill:#000000; fill-opacity:1.0; 
stroke:#000000; stroke-width:1.000000; stroke-opacity:1; 
stroke-linecap:round; stroke-linejoin:round;fill-rule:evenodd;"
d="M 128993510.000000,127086530.000000
129072093.000000,126980813.000000
129104166.000000,126947681.000000
129338346.000000,126797275.000000
129584443.000000,126772121.000000
129811660.000000,126857439.000000
129989203.000000,127038454.000000
130086277.000000,127300387.000000
130095677.000000,127423474.000000
130095677.000000,127719596.000000
129436888.000000,127719596.000000
129436888.000000,128012392.000000
129453122.000000,128195741.000000
129493678.000000,128297721.000000
129510087.000000,128305187.000000
129561482.000000,128241580.000000
129583280.000000,128088323.000000
129583285.000000,128085590.000000
129597567.000000,127938052.000000
129670008.000000,127877538.000000
129839481.000000,127865994.000000
130011812.000000,127878553.000000
130082484.000000,127940327.000000
130095677.000000,128075719.000000
130035172.000000,128348349.000000
129876891.000000,128546162.000000
129655685.000000,128654545.000000
129406404.000000,128658883.000000
129163900.000000,128544560.000000
129104166.000000,128491511.000000
129013384.000000,128385714.000000
128959458.000000,128266220.000000
128933049.000000,128092903.000000
128924817.000000,127825640.000000
128924496.000000,127719596.000000
128929051.000000,127415798.000000
128942678.000000,127280403.000000
129436888.000000,127280403.000000
129467542.000000,127399349.000000
129510087.000000,127426801.000000
129569560.000000,127365493.000000
129583285.000000,127280403.000000
129552632.000000,127161457.000000
129510087.000000,127134005.000000
129450614.000000,127195313.000000
129436888.000000,127280403.000000
128942678.000000,127280403.000000
128948943.000000,127218151.000000
Z" /> 
<path style="fill:#000000; fill-opacity:1.0; 
stroke:#000000; stroke-width:1.000000; stroke-opacity:1; 
stroke-linecap:round; stroke-linejoin:round;fill-rule:evenodd;"
d="M 142634208.000000,127236471.000000
142673967.000000,127101763.000000
142744478.000000,126998195.000000
142792350.000000,126947681.000000
143034223.000000,126795723.000000
143297673.000000,126778963.000000
143548119.000000,126897402.000000
143604192.000000,126947681.000000
143694974.000000,127053478.000000
143748899.000000,127172973.000000
143775309.000000,127346290.000000
143783541.000000,127613553.000000
143783862.000000,127719596.000000
143779307.000000,128023394.000000
143759415.000000,128221042.000000
143714847.000000,128352662.000000
143636265.000000,128458379.000000
143604192.000000,128491511.000000
143374345.000000,128634302.000000
143109271.000000,128671744.000000
142861340.000000,128601776.000000
142759078.000000,128524784.000000
142685371.000000,128428708.000000
142640962.000000,128297737.000000
142619019.000000,128095857.000000
142612714.000000,127787056.000000
142612680.000000,127752868.000000
142613101.000000,127719596.000000
143125072.000000,127719596.000000
143133633.000000,128009595.000000
143157005.000000,128213383.000000
143191723.000000,128303235.000000
143198271.000000,128305187.000000
143234521.000000,128236700.000000
143259994.000000,128049724.000000
143271226.000000,127771982.000000
143271470.000000,127719596.000000
143262909.000000,127429597.000000
143239537.000000,127225809.000000
143204819.000000,127135957.000000
143198271.000000,127134005.000000
143162021.000000,127202492.000000
143136548.000000,127389469.000000
143125316.000000,127667210.000000
143125072.000000,127719596.000000
142613101.000000,127719596.000000
142616634.000000,127440710.000000
Z" /> 
<path style="fill:#000000; fill-opacity:1.0; 
stroke:#000000; stroke-width:1.000000; stroke-opacity:1; 
stroke-linecap:round; stroke-linejoin:round;fill-rule:evenodd;"
d="M 136237959.000000,126564791.000000
136309205.000000,126628722.000000
136317579.000000,126694812.000000
136363349.000000,126814038.000000
136427378.000000,126841210.000000
136516797.000000,126902236.000000
136537176.000000,126987608.000000
136491407.000000,127106833.000000
136427378.000000,127134005.000000
136372484.000000,127160569.000000
136338888.000000,127257262.000000
136322087.000000,127449591.000000
136317579.000000,127756196.000000
136322267.000000,128067258.000000
136339331.000000,128257639.000000
136373271.000000,128352844.000000
136427378.000000,128378386.000000
136516797.000000,128439411.000000
136537176.000000,128524784.000000
136511142.000000,128622496.000000
136407249.000000,128664286.000000
136259020.000000,128671181.000000
136054075.000000,128649330.000000
135907903.000000,128595531.000000
135893026.000000,128583343.000000
135846088.000000,128458302.000000
135816215.000000,128203441.000000
135805210.000000,127834539.000000
135805188.000000,127814755.000000
135797740.000000,127491649.000000
135777053.000000,127260200.000000
135745608.000000,127143490.000000
135731989.000000,127134005.000000
135672516.000000,127072698.000000
135658790.000000,126987608.000000
135689444.000000,126868662.000000
135731989.000000,126841210.000000
135791462.000000,126779902.000000
135805188.000000,126694812.000000
135833846.000000,126593912.000000
135945726.000000,126553200.000000
136061383.000000,126548415.000000
Z" /> 
<path style="fill:#000000; fill-opacity:1.0; 
stroke:#000000; stroke-width:1.000000; stroke-opacity:1; 
stroke-linecap:round; stroke-linejoin:round;fill-rule:evenodd;"
d="M 147683384.000000,126829920.000000
147882534.000000,126986296.000000
148008267.000000,127193108.000000
148029395.000000,127313675.000000
148006405.000000,127446677.000000
147907659.000000,127495394.000000
147809798.000000,127500000.000000
147652859.000000,127480304.000000
147595446.000000,127396581.000000
147590202.000000,127317003.000000
147551173.000000,127168693.000000
147477325.000000,127134005.000000
147419973.000000,127157317.000000
147388839.000000,127245749.000000
147379400.000000,127427051.000000
147385826.000000,127695422.000000
147410735.000000,128030296.000000
147454218.000000,128229733.000000
147498703.000000,128287113.000000
147568373.000000,128249130.000000
147590202.000000,128091690.000000
147607122.000000,127933307.000000
147687960.000000,127873736.000000
147809798.000000,127865994.000000
147964549.000000,127883718.000000
148022229.000000,127967910.000000
148029395.000000,128088918.000000
147963062.000000,128339291.000000
147791234.000000,128542631.000000
147554672.000000,128658410.000000
147443804.000000,128671181.000000
147186894.000000,128602754.000000
147037883.000000,128491511.000000
146949011.000000,128388686.000000
146895343.000000,128273180.000000
146868198.000000,128106339.000000
146858894.000000,127849511.000000
146858213.000000,127691637.000000
146861332.000000,127385783.000000
146876818.000000,127189486.000000
146913869.000000,127065943.000000
146981679.000000,126978346.000000
147051082.000000,126919722.000000
147253352.000000,126811287.000000
147457003.000000,126768011.000000
Z" /> 
<path style="fill:#000000; fill-opacity:1.0; 
stroke:#000000; stroke-width:1.000000; stroke-opacity:1; 
stroke-linecap:round; stroke-linejoin:round;fill-rule:evenodd;"
d="M 132694237.000000,126328818.000000
132858150.000000,126337647.000000
132931081.000000,126392242.000000
132949846.000000,126534768.000000
132950432.000000,126622234.000000
132956560.000000,126805107.000000
132988003.000000,126869700.000000
133064347.000000,126844018.000000
133093268.000000,126826447.000000
133279596.000000,126774752.000000
133440963.000000,126809144.000000
133645822.000000,126881043.000000
133666520.000000,127658686.000000
133672177.000000,128023390.000000
133664050.000000,128270484.000000
133639073.000000,128428368.000000
133594176.000000,128525436.000000
133569793.000000,128553755.000000
133375596.000000,128660617.000000
133170187.000000,128631967.000000
133065459.000000,128556154.000000
132977738.000000,128479917.000000
132951699.000000,128512496.000000
132950432.000000,128556154.000000
132901354.000000,128639736.000000
132738829.000000,128670467.000000
132694237.000000,128671181.000000
132438041.000000,128671181.000000
132438041.000000,127719596.000000
132950432.000000,127719596.000000
132955604.000000,128020058.000000
132974368.000000,128200376.000000
133011598.000000,128286545.000000
133060231.000000,128305187.000000
133116567.000000,128277605.000000
133150377.000000,128177531.000000
133166534.000000,127978969.000000
133170029.000000,127719596.000000
133164857.000000,127419135.000000
133146094.000000,127238816.000000
133108863.000000,127152647.000000
133060231.000000,127134005.000000
133003894.000000,127161587.000000
132970085.000000,127261661.000000
132953928.000000,127460223.000000
132950432.000000,127719596.000000
132438041.000000,127719596.000000
132438041.000000,126328818.000000
Z" /> 
<path style="fill:#000000; fill-opacity:1.0; 
stroke:#000000; stroke-width:1.000000; stroke-opacity:1; 
stroke-linecap:round; stroke-linejoin:round;fill-rule:evenodd;"
d="M 138665333.000000,126859510.000000
138670723.000000,127390201.000000
138790258.000000,127079106.000000
138876899.000000,126885056.000000
138967495.000000,126794147.000000
139105697.000000,126768610.000000
139149794.000000,126768011.000000
139389795.000000,126768011.000000
139239275.000000,127149884.000000
139178019.000000,127309951.000000
139141255.000000,127441923.000000
139131708.000000,127575962.000000
139152104.000000,127742229.000000
139205170.000000,127970885.000000
139293632.000000,128292091.000000
139365204.000000,128543083.000000
139363120.000000,128631245.000000
139266563.000000,128666902.000000
139155115.000000,128671181.000000
139015594.000000,128662881.000000
138928692.000000,128615623.000000
138865417.000000,128495869.000000
138796775.000000,128270081.000000
138791257.000000,128250288.000000
138674080.000000,127829394.000000
138667011.000000,128250288.000000
138659943.000000,128671181.000000
138147551.000000,128671181.000000
138147551.000000,126328818.000000
138659943.000000,126328818.000000
Z" /> 
<path style="fill:#000000; fill-opacity:1.0; 
stroke:#000000; stroke-width:1.000000; stroke-opacity:1; 
stroke-linecap:round; stroke-linejoin:round;fill-rule:evenodd;"
d="M 124314390.000000,126780772.000000
124538987.000000,126871237.000000
124697328.000000,127036341.000000
124752162.000000,127243804.000000
124721929.000000,127383102.000000
124602888.000000,127426028.000000
124569164.000000,127426801.000000
124425665.000000,127392489.000000
124386167.000000,127280403.000000
124340398.000000,127161178.000000
124276369.000000,127134005.000000
124179533.000000,127180058.000000
124175320.000000,127294177.000000
124253441.000000,127440307.000000
124403611.000000,127582388.000000
124404467.000000,127582987.000000
124604000.000000,127734423.000000
124707705.000000,127861729.000000
124746319.000000,128014351.000000
124751041.000000,128140490.000000
124689734.000000,128406460.000000
124517181.000000,128589637.000000
124254675.000000,128669392.000000
124203170.000000,128671181.000000
123942490.000000,128618449.000000
123800577.000000,128524784.000000
123689832.000000,128350401.000000
123654179.000000,128195389.000000
123684412.000000,128056090.000000
123803452.000000,128013164.000000
123837176.000000,128012392.000000
123980675.000000,128046703.000000
124020173.000000,128158789.000000
124065942.000000,128278015.000000
124129971.000000,128305187.000000
124228934.000000,128260620.000000
124229600.000000,128145624.000000
124141990.000000,127988257.000000
123976123.000000,127816576.000000
123946974.000000,127792795.000000
123766280.000000,127632450.000000
123679392.000000,127491491.000000
123654526.000000,127314078.000000
123654179.000000,127278403.000000
123684934.000000,127047615.000000
123791325.000000,126901091.000000
123816864.000000,126881960.000000
124061146.000000,126779496.000000
Z" /> 
</g>
<g style="fill:#000000; fill-opacity:1.0; 
stroke:#000000; stroke-width:120000.000000; stroke-opacity:1; 
stroke-linecap:round; stroke-linejoin:round;">
</g>
<g style="fill:#000000; fill-opacity:0.0; 
stroke:#000000; stroke-width:120000.000000; stroke-opacity:1; 
stroke-linecap:round; stroke-linejoin:round;">
<path d="M127028000 77664000
L128428000 77664000
" />
<path d="M126328000 78964000
L126328000 78364000
" />
<path d="M129128000 78364000
L129128000 78964000
" />
<path d="M128428000 79664000
L127028000 79664000
" />
<path d="M127028000.000000 77664000.000001 A699999.000000 699999.000000 0.0 0 0 126328000.000001 78364000.000000" />
<path d="M129128000.000000 78364000.000000 A700000.000000 700000.000000 0.0 0 0 128428000.000000 77664000.000000" />
<path d="M128428000.000000 79664000.000000 A700000.000000 700000.000000 0.0 0 0 129128000.000000 78964000.000000" />
<path d="M126328000.000001 78964000.000000 A699999.000000 699999.000000 0.0 0 0 127028000.000000 79663999.999999" />
<path d="M141427258 78649500
L140952742 78649500
" />
<path d="M141427258 79694500
L140952742 79694500
" />
<path d="M117060000 106290000
L118390000 106290000
" />
<path d="M115730000 108890000
L118390000 108890000
" />
<path d="M118390000 106290000
L118390000 107620000
" />
<path d="M115730000 108890000
L115730000 124190000
" />
<path d="M115730000 124190000
L118390000 124190000
" />
<path d="M118390000 108890000
L118390000 124190000
" />
<path d="M154299843 82208371
L154017000 82491214
" />
<path d="M152885629 80794157
L152602786 81077000
" />
<path d="M155431214 81077000
L155148371 81359843
" />
<path d="M156204000 86116000
L156204000 90516000
" />
<path d="M159704000 90516000
L159704000 86116000
" />
<path d="M158004000 86116000
L157904000 86116000
" />
<path d="M158004000 90516000
L157904000 90516000
" />
<path d="M131611252 75335000
L131088748 75335000
" />
<path d="M131611252 73865000
L131088748 73865000
" />
<path d="M161662742 83758500
L162137258 83758500
" />
<path d="M161662742 82713500
L162137258 82713500
" />
<path d="M143883580 80440000
L143602420 80440000
" />
<path d="M143883580 81460000
L143602420 81460000
" />
<path d="M127965258 75601500
L127490742 75601500
" />
<path d="M127965258 76646500
L127490742 76646500
" />
<path d="M134890000 81372000
L134790000 81372000
" />
<path d="M136590000 81372000
L136590000 76972000
" />
<path d="M133090000 76972000
L133090000 81372000
" />
<path d="M134890000 76972000
L134790000 76972000
" />
<path d="M158348580 81202000
L158067420 81202000
" />
<path d="M158348580 82222000
L158067420 82222000
" />
<path d="M142968000 84542000
L144768000 84542000
" />
<path d="M142968000 81422000
L143768000 81422000
" />
<path d="M142968000 81422000
L142168000 81422000
" />
<path d="M142968000 84542000
L142168000 84542000
" />
<path d="M131234000 76972000
L131334000 76972000
" />
<path d="M129534000 76972000
L129534000 81372000
" />
<path d="M133034000 81372000
L133034000 76972000
" />
<path d="M131234000 81372000
L131334000 81372000
" />
<path d="M158348580 82726000
L158067420 82726000
" />
<path d="M158348580 83746000
L158067420 83746000
" />
<path d="M151463420 89330000
L151744580 89330000
" />
<path d="M151463420 90350000
L151744580 90350000
" />
<path d="M163514000 90516000
L163514000 86116000
" />
<path d="M161814000 86116000
L161714000 86116000
" />
<path d="M161814000 90516000
L161714000 90516000
" />
<path d="M160014000 86116000
L160014000 90516000
" />
<path d="M134578748 75335000
L135101252 75335000
" />
<path d="M134578748 73865000
L135101252 73865000
" />
<path d="M148318742 90362500
L148793258 90362500
" />
<path d="M148318742 89317500
L148793258 89317500
" />
<path d="M138369000 97753000
L136899000 97753000
" />
<path d="M138369000 100038000
L138369000 97753000
" />
<path d="M136899000 97753000
L136899000 100038000
" />
<path d="M155790000 72327000
L155855000 72327000
" />
<path d="M149385000 72327000
L149450000 72327000
" />
<path d="M149450000 77182000
L149450000 75857000
" />
<path d="M155855000 75857000
L155855000 72327000
" />
<path d="M155790000 75857000
L155855000 75857000
" />
<path d="M149385000 75857000
L149450000 75857000
" />
<path d="M149385000 75857000
L149385000 72327000
" />
<circle cx="156557000.000000" cy="74925000.000000" r="700000.000000" /> 
<path d="M151763789 78290962
L151564978 78489773
" />
<path d="M152485038 79012211
L152286227 79211022
" />
<path d="M147977289 78731918
L146845918 79863289
" />
<path d="M148118711 81136082
L149462214 79792579
" />
<path d="M135488580 97966000
L135207420 97966000
" />
<path d="M135488580 98986000
L135207420 98986000
" />
</g>
<g style="fill:#000000; fill-opacity:0.0; 
stroke:#000000; stroke-width:100000.000000; stroke-opacity:1; 
stroke-linecap:round; stroke-linejoin:round;">
<path d="M155861000 88762000
L152956000 88762000
" />
<path d="M154856000 87362000
L153056000 87362000
" />
</g>
<g style="fill:#000000; fill-opacity:0.0; 
stroke:#000000; stroke-width:120000.000000; stroke-opacity:1; 
stroke-linecap:round; stroke-linejoin:round;">
<path d="M138379258 79694500
L137904742 79694500
" />
<path d="M138379258 78649500
L137904742 78649500
" />
<path d="M154889258 85761500
L154414742 85761500
" />
<path d="M154889258 86806500
L154414742 86806500
" />
<path d="M155430742 78678500
L155905258 78678500
" />
<path d="M155430742 77633500
L155905258 77633500
" />
<path d="M135110742 100522500
L135585258 100522500
" />
<path d="M135110742 99477500
L135585258 99477500
" />
<path d="M174600000 70900000
L174600000 80900000
" />
<path d="M174600000 80900000
L157200000 80900000
" />
<path d="M157200000 80900000
L157200000 70900000
" />
<path d="M157200000 70900000
L174600000 70900000
" />
<path d="M161662742 84237500
L162137258 84237500
" />
<path d="M161662742 85282500
L162137258 85282500
" />
<path d="M127028000 80204000
L128428000 80204000
" />
<path d="M126328000 81504000
L126328000 80904000
" />
<path d="M129128000 80904000
L129128000 81504000
" />
<path d="M128428000 82204000
L127028000 82204000
" />
<path d="M128428000.000000 82204000.000000 A700000.000000 700000.000000 0.0 0 0 129128000.000000 81504000.000000" />
<path d="M126328000.000001 81504000.000000 A699999.000000 699999.000000 0.0 0 0 127028000.000000 82203999.999999" />
<path d="M127028000.000000 80204000.000001 A699999.000000 699999.000000 0.0 0 0 126328000.000001 80904000.000000" />
<path d="M129128000.000000 80904000.000000 A700000.000000 700000.000000 0.0 0 0 128428000.000000 80204000.000000" />
<path d="M135161000 106845000
L135226000 106845000
" />
<path d="M135161000 103315000
L135226000 103315000
" />
<path d="M141566000 103315000
L141631000 103315000
" />
<path d="M141631000 106845000
L141631000 103315000
" />
<path d="M135161000 106845000
L135161000 103315000
" />
<path d="M135226000 108170000
L135226000 106845000
" />
<path d="M141566000 106845000
L141631000 106845000
" />
<path d="M154889258 90362500
L154414742 90362500
" />
<path d="M154889258 89317500
L154414742 89317500
" />
<path d="M143492742 84491500
L143967258 84491500
" />
<path d="M143492742 85536500
L143967258 85536500
" />
<path d="M151290000 126610000
L152620000 126610000
" />
<path d="M153890000 129270000
L169190000 129270000
" />
<path d="M169190000 129270000
L169190000 126610000
" />
<path d="M153890000 129270000
L153890000 126610000
" />
<path d="M151290000 127940000
L151290000 126610000
" />
<path d="M153890000 126610000
L169190000 126610000
" />
<path d="M154889258 84237500
L154414742 84237500
" />
<path d="M154889258 85282500
L154414742 85282500
" />
<path d="M151098000 85662580
L151098000 85381420
" />
<path d="M150078000 85662580
L150078000 85381420
" />
<path d="M127965258 74077500
L127490742 74077500
" />
<path d="M127965258 75122500
L127490742 75122500
" />
<path d="M129534000 98562000
L129534000 102962000
" />
<path d="M131234000 102962000
L131334000 102962000
" />
<path d="M133034000 102962000
L133034000 98562000
" />
<path d="M131234000 98562000
L131334000 98562000
" />
<path d="M143268000 94796000
L142668000 94796000
" />
<path d="M142668000 91996000
L143268000 91996000
" />
<path d="M143968000 92696000
L143968000 94096000
" />
<path d="M141968000 94096000
L141968000 92696000
" />
<path d="M141968000.000001 94096000.000000 A699999.000000 699999.000000 0.0 0 0 142668000.000000 94795999.999999" />
<path d="M143268000.000000 94795999.999999 A699999.000000 699999.000000 0.0 0 0 143967999.999999 94096000.000000" />
<path d="M143968000.000000 92696000.000000 A700000.000000 700000.000000 0.0 0 0 143268000.000000 91996000.000000" />
<path d="M142668000.000000 91996000.000000 A700000.000000 700000.000000 0.0 0 0 141968000.000000 92696000.000000" />
<path d="M161662742 82234500
L162137258 82234500
" />
<path d="M161662742 81189500
L162137258 81189500
" />
<path d="M138115000 77686000
L138115000 75401000
" />
<path d="M136645000 75401000
L136645000 77686000
" />
<path d="M138115000 75401000
L136645000 75401000
" />
</g>
<g style="fill:#000000; fill-opacity:0.0; 
stroke:#000000; stroke-width:150000.000000; stroke-opacity:1; 
stroke-linecap:round; stroke-linejoin:round;">
<path d="M150110000 81760000
L150110000 86830000
" />
<path d="M144970000 82690000
L144970000 86830000
" />
</g>
<g style="fill:#000000; fill-opacity:0.0; 
stroke:#000000; stroke-width:120000.000000; stroke-opacity:1; 
stroke-linecap:round; stroke-linejoin:round;">
<path d="M138379258 81062500
L137904742 81062500
" />
<path d="M138379258 82107500
L137904742 82107500
" />
</g>
<g style="fill:#000000; fill-opacity:0.0; 
stroke:#000000; stroke-width:127000.000000; stroke-opacity:1; 
stroke-linecap:round; stroke-linejoin:round;">
<path d="M147946000 74118000
L147946000 75708000
" />
<path d="M147946000 70298000
L147946000 71678000
" />
<path d="M139006000 70298000
L147946000 70298000
" />
<path d="M139006000 70298000
L139006000 71678000
" />
<path d="M139006000 74118000
L139006000 75708000
" />
</g>
<g style="fill:#000000; fill-opacity:0.0; 
stroke:#000000; stroke-width:120000.000000; stroke-opacity:1; 
stroke-linecap:round; stroke-linejoin:round;">
<path d="M145648580 89334000
L145367420 89334000
" />
<path d="M145648580 88314000
L145367420 88314000
" />
<path d="M126900000 97100000
L128800000 97100000
" />
<path d="M139200000 97100000
L141100000 97100000
" />
<path d="M126900000 95200000
L126900000 97100000
" />
<path d="M126900000 84800000
L126900000 82900000
" />
<path d="M141100000 84800000
L141100000 82900000
" />
<path d="M128800000 97100000
L128800000 97600000
" />
<path d="M126900000 82900000
L128800000 82900000
" />
<path d="M141100000 82900000
L139200000 82900000
" />
<path d="M141100000 97100000
L141100000 95200000
" />
<path d="M145524742 78649500
L145999258 78649500
" />
<path d="M145524742 79694500
L145999258 79694500
" />
<path d="M138710000 72060000
L138710000 73390000
" />
<path d="M136110000 70730000
L120810000 70730000
" />
<path d="M138710000 73390000
L137380000 73390000
" />
<path d="M136110000 70730000
L136110000 73390000
" />
<path d="M120810000 70730000
L120810000 73390000
" />
<path d="M136110000 73390000
L120810000 73390000
" />
<g >
</g>
<g >
</g>
<g >
</g>
<g >
</g>
<g >
</g>
<g >
</g>
<g >
</g>
<g >
</g>
<g >
</g>
<g >
</g>
<g >
</g>
<g >
</g>
<g >
</g>
<g >
</g>
<g >
</g>
<g >
</g>
<g >
</g>
<g >
</g>
<g >
</g>
<g >
</g>
<g >
</g>
<g >
</g>
<g >
</g>
<g >
</g>
<g >
</g>
<g >
</g>
<g >
</g>
<g >
</g>
<g >
</g>
<g >
</g>
<g >
</g>
<g >
</g>
<g >
</g>
<g >
</g>
<g >
</g>
<g >
</g>
<g >
</g>
<g >
</g>
<g >
</g>
<g >
</g>
<g >
</g>
<g >
</g>
<g >
</g>
<g >
</g>
<g >
</g>
<g >
</g>
<g >
</g>
<g >
</g>
<g >
</g>
<g >
</g>
<g >
</g>
<g >
</g>
<g >
</g>
<g >
</g>
<g >
</g>
<g >
</g>
<g >
</g>
</g> 
</svg>
