<?xml version="1.0" standalone="no"?>
 <!DOCTYPE svg PUBLIC "-//W3C//DTD SVG 1.1//EN" 
 "http://www.w3.org/Graphics/SVG/1.1/DTD/svg11.dtd"> 
<svg
  xmlns:svg="http://www.w3.org/2000/svg"
  xmlns="http://www.w3.org/2000/svg"
  xmlns:xlink="http://www.w3.org/1999/xlink"
  version="1.1"
  width="29.700220cm" height="21.000720cm" viewBox="0 0 297002200 210007200">
<title>SVG Picture created as CommunicationBoard-Edge_Cuts.svg date 2024/05/02 17:07:30 </title>
  <desc>Picture generated by PCBNEW </desc>
<g style="fill:#000000; fill-opacity:1.000000;stroke:#000000; stroke-opacity:1.000000;
stroke-linecap:round; stroke-linejoin:round;"
 transform="translate(0 0) scale(1 1)">
</g>
<g style="fill:#000000; fill-opacity:0.0; 
stroke:#000000; stroke-width:0.000000; stroke-opacity:1; 
stroke-linecap:round; stroke-linejoin:round;">
</g>
<g style="fill:#000000; fill-opacity:0.0; 
stroke:#000000; stroke-width:100000.000000; stroke-opacity:1; 
stroke-linecap:round; stroke-linejoin:round;">
<path d="M175000000.000000 70500000.000000 A500000.000000 500000.000000 0.0 0 0 174500000.000000 70000000.000000" />
<path d="M117500000.000000 70000000.000000 A2500000.000000 2500000.000000 0.0 0 0 115000000.000000 72500000.000000" />
<path d="M120000000 111000000
L120000000 124000000
" />
<path d="M169000000 110000000
L121000000 110000000
" />
<path d="M172500000.000000 130000000.000000 A2500000.000000 2500000.000000 0.0 0 0 175000000.000000 127500000.000000" />
<path d="M169000000.000000 125000000.000000 A1000000.000000 1000000.000000 0.0 0 0 170000000.000000 124000000.000000" />
<path d="M169000000 125000000
L121000000 125000000
" />
<path d="M117500000 70000000
L174500000 70000000
" />
<path d="M115000000.000000 127500000.000000 A2500000.000000 2500000.000000 0.0 0 0 117500000.000000 130000000.000000" />
<path d="M117500000 130000000
L172500000 130000000
" />
<path d="M170000000 124000000
L170000000 111000000
" />
<path d="M175000000 70500000
L175000000 127500000
" />
<path d="M115000000 127500000
L115000000 72500000
" />
<path d="M121000000.000000 110000000.000000 A1000000.000000 1000000.000000 0.0 0 0 120000000.000000 111000000.000000" />
<path d="M120000000.000000 124000000.000000 A1000000.000000 1000000.000000 0.0 0 0 121000000.000000 125000000.000000" />
<path d="M170000000.000000 111000000.000000 A1000000.000000 1000000.000000 0.0 0 0 169000000.000000 110000000.000000" />
<g >
</g>
<g >
</g>
<g >
</g>
<g >
</g>
<g >
</g>
<g >
</g>
<g >
</g>
<g >
</g>
<g >
</g>
<g >
</g>
<g >
</g>
<g >
</g>
<g >
</g>
<g >
</g>
<g >
</g>
<g >
</g>
<g >
</g>
<g >
</g>
<g >
</g>
<g >
</g>
<g >
</g>
<g >
</g>
<g >
</g>
<g >
</g>
<g >
</g>
<g >
</g>
<g >
</g>
<g >
</g>
<g >
</g>
<g >
</g>
<g >
</g>
<g >
</g>
<g >
</g>
<g >
</g>
<g >
</g>
<g >
</g>
<g >
</g>
<g >
</g>
<g >
</g>
<g >
</g>
<g >
</g>
<g >
</g>
<g >
</g>
<g >
</g>
<g >
</g>
<g >
</g>
<g >
</g>
<g >
</g>
<g >
</g>
<g >
</g>
<g >
</g>
<g >
</g>
<g >
</g>
<g >
</g>
<g >
</g>
<g >
</g>
<g >
</g>
</g> 
</svg>
